<svg xmlns="http://www.w3.org/2000/svg" width="371" height="525" fill="none"><g filter="url(#a)"><g clip-path="url(#b)"><rect width="355" height="509" x="8" y="6" fill="#fff" rx="16"/><path fill="#fff" stroke="#262525" stroke-linecap="round" stroke-linejoin="round" stroke-width=".9" d="M285.009 388.564c6.216 8.036 4.782 19.625-3.197 25.877l-66.976 52.513c-10.193 7.993-21.641 13.732-34.031 17.071-11.957 3.22-24.27 4.074-36.6 2.519-12.33-1.545-24.058-5.414-34.87-11.486-11.2023-6.294-20.9035-14.689-28.8324-24.954l28.9004-22.657c20.021 25.902 57.232 30.565 82.944 10.402l66.975-52.513c7.98-6.26 19.488-4.816 25.695 3.22l-.008.008Z"/><path fill="#D9B43B" stroke="#262525" stroke-linecap="round" stroke-linejoin="round" stroke-width=".9" d="m237.249 456.68-39.475-33.007 64.991-41.941c5.292-3.416 12.161-2.989 16.994 1.051l4.469 3.74c8.82 7.379 8.989 20.958.348 28.55l-47.327 41.607Z"/><path fill="#fff" d="m60.2946 420.53-8.6073 6.746-12.4488-16.106c-1.8487-2.391-1.4247-5.842.9498-7.703 2.3744-1.862 5.8003-1.435 7.649.956l12.4488 16.107h.0085Z"/><path fill="#fff" d="m68.9019 413.792-8.6073 6.746-18.1898-23.527c-1.8487-2.392-1.4247-5.842.9497-7.704 2.3745-1.861 5.8004-1.434 7.6491.957l18.1898 23.528h.0085Z"/><path fill="#fff" d="m77.5091 407.045-8.6072 6.747-20.7508-26.842c-1.8487-2.391-1.4247-5.841.9498-7.703 2.3744-1.862 5.8003-1.435 7.649.957l20.7507 26.841h.0085Z"/><path fill="#fff" d="m86.108 400.298-8.6074 6.747-18.1897-23.528c-1.8487-2.391-1.4247-5.841.9497-7.703 2.3745-1.862 5.8004-1.435 7.6491.957l18.1898 23.527h.0085ZM104.137 405.738l-8.6077 6.747-15.4932-20.043c-1.8486-2.392-1.4245-5.842.9499-7.704 2.3744-1.861 5.8003-1.434 7.649.957l15.493 20.043h.009Z"/><path fill="#fff" d="m51.6866 427.274 43.0198-33.727 11.6476 15.068c6.876 8.895 5.289 21.731-3.544 28.656l-11.021 8.64c-8.8328 6.925-21.5785 5.326-28.4546-3.569l-11.6478-15.068Z"/><path stroke="#262525" stroke-linecap="round" stroke-linejoin="round" stroke-width=".9" d="m92.256 411.921-3.4513 24.297M54.3839 430.761 39.2385 411.17c-1.8487-2.391-1.4247-5.842.9498-7.703 2.3744-1.862 5.8003-1.435 7.649.956l12.4488 16.107M60.2946 420.53l-18.1898-23.528c-1.8487-2.391-1.4247-5.842.9497-7.703 2.3745-1.862 5.8004-1.435 7.6491.956l18.1898 23.528M68.9019 413.792 48.1511 386.95c-1.8487-2.391-1.4247-5.841.9498-7.703 2.3744-1.862 5.8003-1.435 7.649.957l20.7507 26.841M77.5091 407.045l-18.1897-23.528c-1.8487-2.391-1.4247-5.841.9497-7.703 2.3745-1.862 5.8004-1.435 7.6491.957l20.8865 27.02M92.697 408.821l-12.6609-16.379c-1.8486-2.392-1.4245-5.842.9499-7.704 2.3744-1.861 5.8003-1.434 7.649.957l15.493 20.043M83.8268 449.72c-7.4285 1.691-15.5016-.923-20.4879-7.379l-8.955-11.58"/><path stroke="#262525" stroke-linecap="round" stroke-linejoin="round" stroke-width=".9" d="m97.412 397.036 8.955 11.58c5.063 6.551 5.537 15.227 1.916 22.111"/><path fill="#262525" d="M89.5255 465.305H38.789c-1.7129 0-3.2648-1.392-3.4768-3.117L22.0239 353.174c-.212-1.725 1.0091-3.117 2.7136-3.117H75.474c1.713 0 3.2648 1.392 3.4768 3.117L92.239 462.188c.212 1.725-1.009 3.117-2.7135 3.117Z"/><path fill="#262525" d="M92.9005 465.305H42.1641c-1.7129 0-3.2648-1.392-3.4768-3.117L25.399 353.174c-.212-1.725 1.0091-3.117 2.7136-3.117H78.849c1.713 0 3.2649 1.392 3.4769 3.117l13.2883 109.014c.212 1.725-1.0092 3.117-2.7137 3.117Z"/><path fill="#fff" stroke="#262525" stroke-linecap="round" stroke-linejoin="round" stroke-width=".9" d="M77.4921 355.309h-9.0567c-.4494 0-.8649.188-1.1363.513l-.2204.265c-.2799.333-.6954.529-1.1533.529H46.9469c-.458 0-.9243-.188-1.289-.529l-.2883-.265c-.3562-.333-.8056-.513-1.2551-.513H30.7584c-1.5943 0-2.7306 1.307-2.5356 2.913l12.4064 101.737c.195 1.606 1.6451 2.912 3.2394 2.912h46.7423c1.5943 0 2.7306-1.306 2.5356-2.912L80.7401 358.222c-.1951-1.606-1.6452-2.913-3.2395-2.913h-.0085Z"/><path fill="#fff" stroke="#262525" stroke-linecap="round" stroke-linejoin="round" stroke-width=".9" d="M33.8197 376.873h45.8604l-1.4078-11.546H32.412l1.4077 11.546ZM42.4609 447.756h46.0215l-1.3907-10.061-.1781-1.477H41.0532l1.4077 11.538ZM65.1791 355.309H47.354c-.246 0-.4665-.196-.5004-.444-.0339-.247.1442-.444.3901-.444h17.8252c.2459 0 .4664.197.5003.444.0339.248-.1441.444-.3901.444Z"/><path fill="#fff" d="m92.697 408.821-12.6609-16.379c-1.8486-2.392-1.4245-5.842.9499-7.704 2.3744-1.861 5.8003-1.434 7.649.957l15.493 20.043"/><path stroke="#262525" stroke-linecap="round" stroke-linejoin="round" stroke-width=".9" d="m92.697 408.821-12.6609-16.379c-1.8486-2.392-1.4245-5.842.9499-7.704 2.3744-1.861 5.8003-1.434 7.649.957l15.493 20.043"/><path fill="#fff" stroke="#262525" stroke-linecap="round" stroke-linejoin="round" stroke-width=".9" d="m313.024 352.55-8.347-2.865c-3.768-1.294-7.864.734-9.148 4.529l-10.289 30.402c-1.284 3.794.729 7.919 4.497 9.212l8.348 2.866c3.768 1.293 7.864-.735 9.148-4.53l10.289-30.402c1.284-3.794-.729-7.919-4.498-9.212Z"/><path fill="#262525" d="m311.585 364.302 3.613-10.675c-.628-.495-1.34-.897-2.137-1.17l-8.345-2.861c-3.773-1.289-7.869.735-9.15 4.535l-8.336 24.646c10.066 3.451 20.599-3.347 24.364-14.466l-.009-.009Z"/><path fill="#D9B43B" stroke="#262525" stroke-linecap="round" stroke-linejoin="round" stroke-width=".9" d="M293.667 338.648c-2.705 5.969-7.726 16.149-12.22 18.25-4.495 2.101-7.556 4.381-7.556 4.381l-8.972-4.492s2.943-1.862 3.85-4.176c0 0-5.079 3.527-7.199 2.493l-6.411-3.202s4.791-.76 6.962-3.963c2.179-3.202 2.595-7.925 6.309-12.306 3.714-4.39 12.084-2.724 15.179-4.782 3.104-2.05 7.963-10.675 7.963-10.675l13.67 6.84s-8.87 5.654-11.575 11.623v.009Z"/><path fill="#fff" stroke="#262525" stroke-linecap="round" stroke-linejoin="round" stroke-width=".9" d="M284.949 368.452c-7.386-4.833-9.48-14.774-4.681-22.212l16.723-25.911c6.267-9.718 19.174-12.468 28.815-6.157 9.651 6.311 12.381 19.309 6.115 29.019l-11.398 17.661c-7.742 11.999-23.668 15.398-35.582 7.6h.008Z"/><path fill="#D9B43B" d="M333.354 383.577c1.221-3.681 4.698-6.866 5.927-12.503 1.23-5.636-5.139-11.341-5.393-15.073-.246-3.732 3.629-12.836 3.629-12.836 2.383-6.499 4.58-21.854-14.653-31.47s-31.3 8.489-31.3 8.489l.737 4.492c11.796 5.5 22.354-1.597 22.354-1.597 6.945 3.075 9.184 13.246 9.184 13.246s.89 10.538-2.205 16.32c-3.087 5.782-8.107 15.961-7.055 20.838 1.051 4.876 1.094 8.711 1.094 8.711l8.98 4.492s-.305-3.485.975-5.611c0 0 .28 6.208 2.375 7.284l6.411 3.203s-2.29-4.304-1.069-7.985h.009Z"/><path stroke="#262525" stroke-linecap="round" stroke-linejoin="round" stroke-width=".9" d="M292.319 324.676c11.795 5.5 22.353-1.597 22.353-1.597 6.945 3.075 9.184 13.246 9.184 13.246s.89 10.538-2.205 16.32c-3.087 5.782-8.107 15.961-7.055 20.838 1.051 4.876 1.094 8.711 1.094 8.711l8.98 4.492s-.305-3.485.975-5.611c0 0 .28 6.208 2.375 7.284l6.411 3.203s-2.29-4.304-1.069-7.985 4.698-6.866 5.928-12.503c1.229-5.636-5.139-11.341-5.394-15.073-.245-3.732 3.63-12.836 3.63-12.836 2.383-6.499 4.579-21.854-14.654-31.47s-31.3 8.489-31.3 8.489l-.568.974"/><path stroke="#262525" stroke-linecap="round" stroke-linejoin="round" stroke-width=".9" d="M301.664 337.367s-6.454 5.687-9.863 9.505c-.432.486-.373 1.229.119 1.648.916.76 4.045 2.613 4.045 2.613"/><path fill="#262525" d="m314.511 340.458-3.842-2.57c-.525-.351-.661-1.068-.313-1.589.347-.529 1.06-.666 1.577-.316l3.841 2.571c.526.35.662 1.067.314 1.588-.347.53-1.06.666-1.577.316ZM299.577 331.286l-4.002-2.306c-.543-.316-.738-1.016-.424-1.562.314-.547 1.009-.743 1.552-.427l4.002 2.305c.543.316.738 1.017.424 1.563-.313.547-1.009.743-1.552.427Z"/><path fill="#fff" stroke="#262525" stroke-linecap="round" stroke-linejoin="round" stroke-width=".9" d="m296.954 356.556-5.416-.12-4.548-2.617c-.115 2.378.297 5.686 2.599 6.542 2.344.873 6.496-1.308 7.796-3.805h-.431Z"/><path fill="#fff" stroke="#262525" stroke-linecap="round" stroke-linejoin="round" stroke-width=".9" d="M292.12 352.508c-2.344-.873-3.855-.711-5.201 1.311l4.547 2.617h5.847c-.146-2.744-2.738-3.015-5.193-3.928Z"/><path fill="#262525" d="M310.432 345.693c-.695 1.085-1.399.777-2.179.265-.781-.512-1.34-1.025-.645-2.109.933-1.452 1.569-1.034 2.349-.53.78.512 1.399.939.475 2.374Z"/><path stroke="#262525" stroke-linecap="round" stroke-linejoin="round" stroke-width=".9" d="M304.386 342.926s3.833-1.955 7.793 2.169c0 0 2.162 2.332 4.07 2.349"/><path fill="#262525" d="M292.225 333.78c-.695 1.084-.135 1.597.645 2.109.78.513 1.475.82 2.179-.265.933-1.451.305-1.861-.475-2.374-.78-.512-1.424-.905-2.349.53Z"/><path stroke="#262525" stroke-linecap="round" stroke-linejoin="round" stroke-width=".9" d="M297.195 338.221s.211-4.322-5.131-6.294c0 0-2.993-1.042-3.782-2.793"/><path fill="#fff" d="m323.975 364.738-4.885-.658c-3.977-.538-6.046-5.064-3.858-8.455 1.153-1.784 3.214-2.741 5.308-2.459l4.885.657c3.977.538 6.046 5.065 3.858 8.455-1.153 1.785-3.214 2.741-5.308 2.46Z"/><path stroke="#262525" stroke-linecap="round" stroke-linejoin="round" stroke-width=".9" d="M318.386 360.006c-.084-.845.102-1.733.602-2.502 1.154-1.793 3.537-2.306 5.317-1.136 1.171.769 1.79 2.076 1.747 3.382"/><path stroke="#262525" stroke-linecap="round" stroke-linejoin="round" stroke-width=".9" d="M319.472 357.06c.542.077 1.085.265 1.569.589 1.11.726 1.729 1.939 1.746 3.186"/><path stroke="#262525" stroke-linecap="round" stroke-linejoin="round" stroke-width=".9" d="m321.286 353.268 4.147.555c3.977.538 6.047 5.065 3.859 8.455-1.154 1.785-3.214 2.741-5.309 2.46l-4.884-.658c-1.332-.179-2.443-.803-3.257-1.682"/><path fill="#fff" stroke="#262525" stroke-linecap="round" stroke-linejoin="round" stroke-width=".9" d="M280.828 515c2.027-14.8-8.132-28.524-22.845-30.77-10.974-1.665-21.845 3.553-27.467 13.186-3.35 5.739-6.462 11.606-9.337 17.575h59.64l.009.009Z"/><path fill="#fff" d="M301.545 515c2.298-4.748 3.595-10.086 3.595-15.731 0-19.83-15.959-35.911-35.65-35.911s-35.659 16.073-35.659 35.911c0 5.645 1.298 10.983 3.596 15.731h64.118Z"/><path stroke="#262525" stroke-linecap="round" stroke-linejoin="round" stroke-width=".9" d="M237.435 515h64.118c2.298-4.748 3.596-10.086 3.596-15.731 0-19.83-15.96-35.911-35.65-35.911-17.385 0-31.869 12.537-35.015 29.113"/><path stroke="#262525" stroke-linecap="round" stroke-linejoin="round" stroke-width=".9" d="m255.515 513.992-4.367-3.552-2.918-22.563M258.644 513.147l2.34-23.204M255.754 497.461c2.019-.48 3.27-2.518 2.793-4.551-.476-2.034-2.5-3.293-4.519-2.813s-3.27 2.517-2.793 4.551c.476 2.033 2.5 3.293 4.519 2.813Z"/><path fill="#fff" d="M314.909 515c-.949-2.639-1.941-5.269-2.985-7.883-4.129-10.376-14.11-17.174-25.202-17.174-14.23 0-25.899 11.026-27.06 25.057h55.247Z"/><path stroke="#262525" stroke-linecap="round" stroke-linejoin="round" stroke-width=".9" d="M259.67 515h55.239c-.949-2.639-1.942-5.269-2.985-7.883-1.306-3.287-3.205-6.225-5.546-8.693"/><path fill="#262525" stroke="#262525" stroke-linecap="round" stroke-linejoin="round" stroke-width=".9" d="m308.312 495.879-2.146 2.084c-.398.384-.958.546-1.501.427l-66.848-14.724c-.551-.119-1.001-.512-1.196-1.05l-1.068-2.912c-1.756-4.791-2.12-9.992-1.035-14.988l1.442-6.644-1.247-5.252c-3.18-13.425.89-27.542 10.71-37.167l2.248-2.194c2.654-2.597 4.486-5.927 5.274-9.565l1.696-7.797c2.443-11.222 13.45-18.336 24.593-15.876l6.97 1.537s-1.73 4.116 2.264 5.534c12.017 4.27 20.582-.504 20.582-.504l6.054 1.332c11.143 2.46 18.207 13.545 15.765 24.766l-15.086 69.465c-1.12 5.15-3.723 9.847-7.48 13.511l.009.017Z"/><path fill="#fff" stroke="#262525" stroke-linecap="round" stroke-linejoin="round" stroke-width=".9" d="M323.203 499.252c1.255 5.278 1.755 10.573 1.586 15.748h36.651c.161-8.13-.713-16.269-2.612-24.314l-19.699-83.146c-2.349-9.906-12.22-16.021-22.057-13.655-9.837 2.365-15.909 12.306-13.56 22.213l19.699 83.146-.008.008Z"/><path fill="#D9B43B" stroke="#262525" stroke-linecap="round" stroke-linejoin="round" stroke-width=".9" d="M311.687 476.536H363l-21.641-68.509c-2.951-9.343-11.576-15.696-21.311-15.696-11.465 0-20.208 10.342-18.385 21.743l10.024 62.462Z"/><path fill="#D4AF37" d="m51.7869 37.3864-4.1477 4.1477-4.2045-4.1477 4.2045-4.2046 4.1477 4.2046Zm5.3409 5.3409-4.1477 4.2045-4.1477-4.2045 4.1477-4.1478 4.1477 4.1478Zm-10.6818 0-4.2045 4.2045-4.2046-4.2045 4.2046-4.1478 4.2045 4.1478Zm5.3409 5.3977-4.1477 4.1477-4.2045-4.1477 4.2045-4.2045 4.1477 4.2045ZM69.5089 50V35.4545h5.4545c1.1174 0 2.0549.2084 2.8125.625.7623.4167 1.3376.9896 1.7259 1.7188.393.7244.5895 1.5483.5895 2.4716 0 .9328-.1965 1.7613-.5895 2.4858-.393.7244-.973 1.295-1.7401 1.7116-.767.412-1.7116.6179-2.8338.6179h-3.615V42.919h3.2599c.6534 0 1.1884-.1136 1.6051-.3409.4167-.2272.7244-.5397.9233-.9375.2036-.3977.3054-.8546.3054-1.3707s-.1018-.9707-.3054-1.3637c-.1989-.3929-.509-.6983-.9304-.9161-.4167-.2226-.9541-.3339-1.6122-.3339h-2.4148V50h-2.6349Zm15.7013.2202c-.6913 0-1.3139-.1231-1.8679-.3693-.5492-.251-.9848-.6203-1.3068-1.108-.3172-.4877-.4758-1.089-.4758-1.804 0-.6155.1136-1.1245.3409-1.527.2272-.4024.5374-.7244.9304-.9659.393-.2415.8357-.4237 1.3281-.5469.4972-.1278 1.0109-.2201 1.5412-.2769.6392-.0663 1.1577-.1255 1.5554-.1776.3977-.0568.6865-.142.8665-.2557.1846-.1184.2769-.3006.2769-.5469v-.0426c0-.535-.1586-.9493-.4758-1.2429-.3172-.2935-.7742-.4403-1.3707-.4403-.6298 0-1.1293.1373-1.4986.4119-.3646.2746-.6108.599-.7387.973l-2.4005-.3409c.1894-.6629.5019-1.2168.9375-1.6619.4356-.4498.9682-.786 1.598-1.0085.6297-.2273 1.3257-.3409 2.0881-.3409.5255 0 1.0487.0615 1.5696.1846.5208.1231.9966.3267 1.4275.6108.4309.2794.7765.6605 1.0369 1.1435.2652.4829.3978 1.0866.3978 1.8111V50h-2.4716v-1.4986h-.0852c-.1563.3031-.3765.5871-.6606.8523-.2793.2604-.6321.4711-1.0582.6321-.4214.1562-.9162.2344-1.4844.2344Zm.6676-1.8892c.5161 0 .9636-.1018 1.3424-.3054.3788-.2084.67-.483.8736-.8239.2083-.3409.3124-.7126.3124-1.1151v-1.2855c-.0804.0663-.2178.1279-.4119.1847-.1894.0568-.4024.1065-.6392.1491a19.5992 19.5992 0 0 1-.7031.1137c-.232.0331-.4332.0615-.6037.0852-.3835.0521-.7268.1373-1.0298.2557-.3031.1184-.5422.2841-.7174.4971-.1752.2084-.2627.4783-.2627.8097 0 .4735.1728.831.5184 1.0725.3457.2414.786.3622 1.321.3622Zm16.3002-6.3566-2.3442.2557c-.0663-.2367-.1823-.4593-.348-.6676-.161-.2083-.3788-.3764-.6534-.5043-.2746-.1278-.6108-.1917-1.0085-.1917-.5351 0-.9849.116-1.3495.348-.3598.232-.5374.5327-.5326.902-.0048.3172.1112.5753.348.7741.2415.1989.6392.3622 1.1932.4901l1.8608.3977c1.0322.2225 1.7992.5753 2.3012 1.0582.507.483.762 1.1151.767 1.8964-.005.6865-.206 1.2926-.604 1.8181-.393.5209-.94.9281-1.64 1.2216-.7011.2936-1.5061.4404-2.4152.4404-1.3352 0-2.41-.2794-3.2244-.8381-.8144-.5634-1.2997-1.3471-1.456-2.3509l2.5071-.2414c.1137.4924.3552.8641.7245 1.115.3693.251.8499.3764 1.4417.3764.6108 0 1.1009-.1254 1.4702-.3764.3741-.2509.5611-.5611.5611-.9304 0-.3125-.1207-.5705-.3622-.7741-.2368-.2036-.6061-.3599-1.108-.4688l-1.8608-.3906c-1.0464-.2178-1.8205-.5847-2.3224-1.1008-.5019-.5209-.7505-1.179-.7458-1.9745-.0047-.6723.1776-1.2547.5469-1.7471.3741-.4972.8925-.8807 1.5554-1.1506.6676-.2746 1.437-.4119 2.3083-.4119 1.2784 0 2.2846.2722 3.0186.8167.738.5445 1.195 1.2808 1.371 2.2088Zm10.976 0-2.344.2557c-.066-.2367-.182-.4593-.348-.6676-.161-.2083-.378-.3764-.653-.5043-.275-.1278-.611-.1917-1.009-.1917-.535 0-.984.116-1.349.348-.36.232-.537.5327-.533.902-.004.3172.112.5753.348.7741.242.1989.64.3622 1.194.4901l1.86.3977c1.033.2225 1.8.5753 2.301 1.0582.507.483.763 1.1151.767 1.8964-.004.6865-.205 1.2926-.603 1.8181-.393.5209-.94.9281-1.641 1.2216-.701.2936-1.506.4404-2.415.4404-1.335 0-2.41-.2794-3.224-.8381-.814-.5634-1.3-1.3471-1.456-2.3509l2.507-.2414c.114.4924.355.8641.725 1.115.369.251.849.3764 1.441.3764.611 0 1.101-.1254 1.47-.3764.375-.2509.562-.5611.562-.9304 0-.3125-.121-.5705-.363-.7741-.236-.2036-.606-.3599-1.108-.4688l-1.86-.3906c-1.047-.2178-1.821-.5847-2.323-1.1008-.502-.5209-.75-1.179-.746-1.9745-.004-.6723.178-1.2547.547-1.7471.374-.4972.893-.8807 1.556-1.1506.667-.2746 1.437-.4119 2.308-.4119 1.278 0 2.284.2722 3.018.8167.739.5445 1.196 1.2808 1.371 2.2088Zm7.113 8.2387c-1.065 0-1.989-.2344-2.77-.7032-.781-.4687-1.387-1.1245-1.818-1.9673-.426-.8428-.639-1.8276-.639-2.9545s.213-2.1141.639-2.9617c.431-.8475 1.037-1.5057 1.818-1.9744.781-.4688 1.705-.7031 2.77-.7031s1.989.2343 2.77.7031c.781.4687 1.385 1.1269 1.811 1.9744.431.8476.646 1.8348.646 2.9617s-.215 2.1117-.646 2.9545c-.426.8428-1.03 1.4986-1.811 1.9673-.781.4688-1.705.7032-2.77.7032Zm.014-2.0597c.578 0 1.061-.1586 1.449-.4758.388-.322.677-.7529.867-1.2927.194-.5397.291-1.1411.291-1.8039 0-.6676-.097-1.2713-.291-1.8111-.19-.5445-.479-.9778-.867-1.2997-.388-.322-.871-.483-1.449-.483-.592 0-1.084.161-1.477.483-.388.3219-.679.7552-.874 1.2997-.189.5398-.284 1.1435-.284 1.8111 0 .6628.095 1.2642.284 1.8039.195.5398.486.9707.874 1.2927.393.3172.885.4758 1.477.4758Zm17.548 2.0455c-1.023 0-1.932-.1752-2.727-.5256-.791-.3504-1.416-.8381-1.875-1.4631-.459-.625-.703-1.347-.732-2.1662h2.671c.024.393.154.7363.39 1.0299.237.2888.552.5137.945.6747.393.161.833.2415 1.321.2415.521 0 .983-.09 1.385-.2699.402-.1847.717-.4404.945-.7671.227-.3267.338-.7031.333-1.1292.005-.4404-.108-.8286-.34-1.1648-.232-.3362-.569-.599-1.009-.7884-.436-.1894-.961-.2841-1.577-.2841h-1.285v-2.0312h1.285c.507 0 .95-.0876 1.328-.2628.384-.1752.685-.4214.902-.7386.218-.322.325-.6937.32-1.1151.005-.4119-.088-.7694-.277-1.0724-.185-.3078-.447-.5469-.788-.7174-.336-.1704-.732-.2556-1.186-.2556-.445 0-.857.0805-1.236.2414-.379.161-.684.3907-.916.689-.232.2935-.356.6439-.37 1.0511h-2.535c.019-.8144.253-1.5294.703-2.1449.454-.6203 1.061-1.1032 1.818-1.4489.758-.3503 1.608-.5255 2.55-.5255.97 0 1.813.1823 2.528.5469.72.3598 1.276.8451 1.669 1.4559s.59 1.2855.59 2.0242c.004.8191-.237 1.5057-.725 2.0596-.483.554-1.117.9162-1.903 1.0867v.1136c1.023.1421 1.806.5208 2.351 1.1364.549.6108.821 1.3707.817 2.2798 0 .8144-.232 1.5436-.697 2.1875-.459.6392-1.093 1.1411-1.903 1.5057-.805.3646-1.728.5469-2.77.5469Z"/><rect width="48.1606" height="24" x="37" y="83" fill="#E4ECF7" rx="6"/><path fill="#505780" d="M42.7124 91.7273h1.8963l2.0029 4.8863h.0852l2.0028-4.8863h1.8963V99h-1.4914v-4.7337h-.0604l-1.8821 4.6982h-1.0156l-1.8821-4.7159h-.0604V99h-1.4915v-7.2727Zm11.6078 7.3792c-.5611 0-1.044-.1136-1.4489-.3409-.4024-.2296-.7126-.554-.9304-.973-.2178-.4214-.3267-.9197-.3267-1.495 0-.5611.1089-1.0535.3267-1.4773.2178-.4238.5244-.754.9198-.9908.3977-.2367.8641-.3551 1.3991-.3551.3599 0 .6949.058 1.005.174.3125.1137.5847.2853.8168.515.2343.2296.4166.5184.5468.8664.1302.3457.1953.7505.1953 1.2145v.4155h-4.6058v-.9375h3.1818c0-.2178-.0473-.4107-.142-.5788-.0947-.1681-.2261-.2995-.3942-.3942-.1657-.0971-.3587-.1456-.5788-.1456-.2297 0-.4333.0533-.6108.1598-.1752.1042-.3125.245-.412.4226-.0994.1752-.1503.3705-.1527.5859v.8914c0 .2698.0498.503.1492.6995.1018.1965.245.348.4297.4546.1846.1065.4036.1598.6569.1598.1681 0 .322-.0237.4617-.0711.1397-.0473.2592-.1183.3587-.213.0994-.0947.1751-.2107.2272-.348l1.3992.0923c-.071.3362-.2166.6297-.4368.8807-.2178.2486-.4995.4427-.8452.5824-.3433.1373-.7398.2059-1.1896.2059Zm-.6392-6.2642.7528-1.6157h1.3992l-1.0831 1.6157H53.681Zm7.0312.7032v1.1363h-3.2848v-1.1363h3.2848Zm-2.539-1.3069h1.5128v5.0853c0 .1396.0213.2485.0639.3267.0426.0757.1018.129.1775.1598.0782.0307.1681.0461.2699.0461.071 0 .1421-.0059.2131-.0177.071-.0142.1255-.0249.1633-.032l.238 1.1257c-.0758.0237-.1823.0509-.3196.0817-.1373.0331-.3043.0533-.5007.0604-.3646.0142-.6842-.0344-.9589-.1456-.2722-.1113-.4841-.2841-.6356-.5185-.1515-.2344-.2261-.5303-.2237-.8878v-5.2841Zm5.9304 6.8679c-.5516 0-1.0287-.1172-1.4311-.3515-.4001-.2368-.7091-.5658-.9269-.9872-.2178-.4238-.3267-.9151-.3267-1.4738 0-.5634.1089-1.0558.3267-1.4772.2178-.4238.5268-.7529.9269-.9873.4024-.2367.8795-.3551 1.4311-.3551.5516 0 1.0274.1184 1.4275.3551.4025.2344.7126.5635.9304.9873.2178.4214.3267.9138.3267 1.4772 0 .5587-.1089 1.05-.3267 1.4738-.2178.4214-.5279.7504-.9304.9872-.4001.2343-.8759.3515-1.4275.3515Zm.0071-1.1718c.2509 0 .4604-.0711.6285-.2131.1681-.1444.2948-.3409.38-.5895.0876-.2486.1314-.5315.1314-.8487 0-.3173-.0438-.6002-.1314-.8487-.0852-.2486-.2119-.4451-.38-.5895-.1681-.1444-.3776-.2166-.6285-.2166-.2533 0-.4664.0722-.6392.2166-.1705.1444-.2995.3409-.3871.5895-.0852.2485-.1279.5314-.1279.8487 0 .3172.0427.6001.1279.8487.0876.2486.2166.4451.3871.5895.1728.142.3859.2131.6392.2131Zm5.6711 1.1541c-.4143 0-.7895-.1066-1.1257-.3196-.3338-.2155-.5989-.5315-.7954-.9482-.1942-.419-.2912-.9327-.2912-1.5412 0-.625.1006-1.1446.3018-1.5589.2013-.4167.4688-.728.8026-.934.3362-.2083.7043-.3125 1.1044-.3125.3054 0 .5599.0521.7635.1563.2059.1018.3717.2296.4971.3835.1279.1515.2249.3007.2912.4474h.0462v-2.7343h1.5092V99h-1.4914v-.8736h-.064c-.071.1515-.1716.3019-.3018.451-.1279.1468-.2948.2687-.5007.3658-.2036.097-.4522.1456-.7458.1456Zm.4794-1.2039c.2439 0 .4498-.0662.6179-.1988.1705-.135.3007-.3232.3907-.5647.0923-.2414.1385-.5243.1385-.8487 0-.3243-.045-.606-.135-.8451-.09-.2392-.2202-.4238-.3906-.554-.1705-.1302-.3776-.1953-.6215-.1953-.2485 0-.4581.0674-.6285.2024-.1705.1349-.2995.322-.3871.5611-.0876.2391-.1314.5161-.1314.8309 0 .3173.0438.5978.1314.8416.09.2415.219.4309.3871.5682.1704.135.38.2024.6285.2024Zm6.3326 1.2216c-.5516 0-1.0286-.1172-1.4311-.3515-.4001-.2368-.7091-.5658-.9269-.9872-.2178-.4238-.3267-.9151-.3267-1.4738 0-.5634.1089-1.0558.3267-1.4772.2178-.4238.5268-.7529.9269-.9873.4025-.2367.8795-.3551 1.4311-.3551.5516 0 1.0275.1184 1.4276.3551.4024.2344.7126.5635.9304.9873.2178.4214.3267.9138.3267 1.4772 0 .5587-.1089 1.05-.3267 1.4738-.2178.4214-.528.7504-.9304.9872-.4001.2343-.876.3515-1.4276.3515Zm.0071-1.1718c.251 0 .4605-.0711.6286-.2131.168-.1444.2947-.3409.3799-.5895.0876-.2486.1314-.5315.1314-.8487 0-.3173-.0438-.6002-.1314-.8487-.0852-.2486-.2119-.4451-.3799-.5895-.1681-.1444-.3776-.2166-.6286-.2166-.2533 0-.4664.0722-.6392.2166-.1705.1444-.2995.3409-.3871.5895-.0852.2485-.1278.5314-.1278.8487 0 .3172.0426.6001.1278.8487.0876.2486.2166.4451.3871.5895.1728.142.3859.2131.6392.2131Z"/><rect width="51" height="24" x="95.1606" y="83" fill="#D4AF37" rx="6"/><path fill="#fff" d="M105.516 92.995v-1.2677h5.973v1.2677h-2.227V99h-1.52v-6.005h-2.226Zm7.741 6.108c-.348 0-.658-.0604-.93-.1811-.272-.1231-.488-.3042-.646-.5433-.157-.2415-.235-.5422-.235-.902 0-.3031.056-.5576.167-.7635.111-.206.263-.3717.455-.4972.191-.1255.409-.2202.653-.2841.246-.0639.504-.1089.774-.1349.317-.0332.573-.0639.767-.0924.194-.0307.335-.0757.423-.1349.087-.0592.131-.1468.131-.2628v-.0213c0-.2249-.071-.3989-.213-.522-.14-.1231-.338-.1847-.597-.1847-.272 0-.488.0604-.649.1811-.161.1184-.268.2676-.32.4475l-1.399-.1136c.071-.3315.211-.6179.419-.8594.208-.2439.477-.4309.806-.5611.331-.1326.715-.1989 1.151-.1989.303 0 .593.0355.87.1066.279.071.526.1811.742.3302.218.1492.389.3409.515.5753.125.232.188.5102.188.8345V99h-1.435v-.7564h-.042c-.088.1705-.205.3208-.352.451-.147.1278-.323.2285-.529.3018-.206.0711-.444.1066-.714.1066Zm.433-1.0441c.223 0 .419-.0437.59-.1313.17-.09.304-.2107.401-.3623.097-.1515.146-.3231.146-.5149v-.5788c-.048.0308-.113.0592-.196.0852-.08.0237-.171.0462-.273.0675-.102.0189-.204.0367-.305.0533-.102.0142-.194.0272-.277.039-.178.0261-.333.0675-.466.1243-.132.0568-.235.1338-.308.2308-.074.0947-.111.2131-.111.3551 0 .206.075.3634.224.4723.152.1066.343.1598.575.1598Zm-.163-5.2166.753-1.6157h1.399l-1.083 1.6157h-1.069Zm6.877.7032v1.1363h-3.285v-1.1363h3.285Zm-2.539-1.3069h1.513v5.0853c0 .1396.021.2485.064.3267.042.0757.101.129.177.1598.078.0307.168.0461.27.0461.071 0 .142-.0059.213-.0177.071-.0142.125-.0249.163-.032l.238 1.1257c-.075.0237-.182.0509-.319.0817-.138.0331-.305.0533-.501.0604-.365.0142-.684-.0344-.959-.1456-.272-.1113-.484-.2841-.635-.5185-.152-.2344-.227-.5303-.224-.8878v-5.2841ZM121.389 99v-5.4545h1.513V99h-1.513Zm.76-6.1577c-.225 0-.418-.0745-.579-.2237-.158-.1515-.238-.3326-.238-.5433 0-.2083.08-.3871.238-.5362.161-.1516.354-.2273.579-.2273.225 0 .417.0757.576.2273.161.1491.241.3279.241.5362 0 .2107-.08.3918-.241.5433-.159.1492-.351.2237-.576.2237Zm4.429 6.2642c-.558 0-1.039-.1183-1.441-.3551-.4-.2391-.708-.5705-.924-.9943-.213-.4238-.319-.9115-.319-1.4631 0-.5587.107-1.0487.323-1.4701.218-.4238.527-.7541.927-.9908.4-.2391.876-.3587 1.427-.3587.476 0 .893.0864 1.25.2593.358.1728.641.4154.849.7279.208.3125.323.6795.344 1.1009h-1.427c-.04-.2723-.147-.4912-.32-.657-.17-.168-.394-.2521-.671-.2521-.234 0-.439.0639-.614.1918-.173.1254-.308.3089-.405.5504-.097.2415-.146.5339-.146.8771 0 .348.048.644.142.8878.097.2439.234.4297.409.5575.175.1279.38.1918.614.1918.173 0 .328-.0355.465-.1065.14-.0711.255-.174.345-.309.092-.1373.153-.3018.181-.4936h1.427c-.023.4167-.137.7836-.34 1.1009-.202.3148-.48.561-.835.7386-.355.1776-.775.2663-1.261.2663Zm4.96-.0035c-.348 0-.658-.0604-.93-.1811-.272-.1231-.488-.3042-.646-.5433-.156-.2415-.235-.5422-.235-.902 0-.3031.056-.5576.167-.7635.112-.206.263-.3717.455-.4972s.409-.2202.653-.2841c.246-.0639.504-.1089.774-.1349.318-.0332.573-.0639.767-.0924.195-.0307.335-.0757.423-.1349.088-.0592.131-.1468.131-.2628v-.0213c0-.2249-.071-.3989-.213-.522-.139-.1231-.338-.1847-.596-.1847-.273 0-.489.0604-.65.1811-.161.1184-.268.2676-.32.4475l-1.399-.1136c.071-.3315.211-.6179.419-.8594.209-.2439.477-.4309.806-.5611.332-.1326.715-.1989 1.151-.1989.303 0 .593.0355.87.1066.279.071.527.1811.742.3302.218.1492.39.3409.515.5753.125.232.188.5102.188.8345V99h-1.434v-.7564h-.043c-.088.1705-.205.3208-.352.451-.146.1278-.323.2285-.529.3018-.206.0711-.444.1066-.714.1066Zm.434-1.0441c.222 0 .419-.0437.589-.1313.171-.09.304-.2107.401-.3623.098-.1515.146-.3231.146-.5149v-.5788c-.047.0308-.112.0592-.195.0852-.081.0237-.172.0462-.274.0675-.101.0189-.203.0367-.305.0533-.102.0142-.194.0272-.277.039-.178.0261-.333.0675-.465.1243-.133.0568-.236.1338-.309.2308-.074.0947-.11.2131-.11.3551 0 .206.074.3634.223.4723.152.1066.344.1598.576.1598Z"/><path fill="#425466" d="M46.4261 167h-1.2329c-.0729-.355-.2005-.666-.3828-.935-.179-.268-.3978-.494-.6563-.676-.2552-.185-.5386-.325-.8501-.417-.3116-.093-.6364-.14-.9745-.14-.6164 0-1.1749.156-1.6754.468-.4971.311-.8932.77-1.1882 1.377-.2917.606-.4375 1.35-.4375 2.232 0 .882.1458 1.626.4375 2.232.295.607.6911 1.066 1.1882 1.377.5005.312 1.059.468 1.6754.468.3381 0 .6629-.047.9745-.139.3115-.093.5949-.231.8501-.413.2585-.186.4773-.413.6563-.681.1823-.272.3099-.583.3828-.935h1.2329c-.0928.521-.2618.986-.5071 1.397-.2452.411-.5502.761-.9147 1.049-.3646.285-.7739.502-1.228.651-.4508.15-.933.224-1.4468.224-.8683 0-1.6406-.212-2.3167-.636-.6762-.424-1.2081-1.028-1.5959-1.81-.3878-.782-.5817-1.71-.5817-2.784 0-1.074.1939-2.002.5817-2.784.3878-.782.9197-1.385 1.5959-1.81.6761-.424 1.4484-.636 2.3167-.636.5138 0 .996.075 1.4468.224.4541.149.8634.368 1.228.656.3645.285.6695.633.9147 1.044.2453.408.4143.873.5071 1.397Zm4.9356 7.159c-.6894 0-1.2943-.164-1.8146-.492-.5171-.328-.9214-.787-1.2131-1.377-.2884-.59-.4325-1.28-.4325-2.068 0-.796.1441-1.49.4325-2.084.2917-.593.696-1.053 1.2131-1.382.5203-.328 1.1252-.492 1.8146-.492s1.2926.164 1.8096.492c.5204.329.9248.789 1.2131 1.382.2917.594.4375 1.288.4375 2.084 0 .788-.1458 1.478-.4375 2.068-.2883.59-.6927 1.049-1.2131 1.377-.517.328-1.1202.492-1.8096.492Zm0-1.054c.5237 0 .9545-.134 1.2926-.403.3381-.268.5883-.621.7507-1.059.1624-.437.2436-.911.2436-1.421 0-.511-.0812-.986-.2436-1.427-.1624-.441-.4126-.797-.7507-1.069-.3381-.272-.7689-.408-1.2926-.408-.5237 0-.9546.136-1.2926.408-.3381.272-.5883.628-.7507 1.069-.1624.441-.2436.916-.2436 1.427 0 .51.0812.984.2436 1.421.1624.438.4126.791.7507 1.059.338.269.7689.403 1.2926.403Zm5.2512-9.287h1.1733v8.193c0 .372.0415.632.1243.781.0829.149.2536.22.5121.214.1392-.007.2419-.017.3082-.03.0696-.017.1326-.033.1889-.05l.2387 1.014c-.1028.03-.232.057-.3878.08-.1558.026-.3182.04-.4872.04-.5568 0-.9745-.153-1.2529-.458-.2784-.305-.4176-.729-.4176-1.272v-8.512Zm6.7253 10.341c-.6893 0-1.2942-.164-1.8146-.492-.517-.328-.9214-.787-1.2131-1.377-.2883-.59-.4325-1.28-.4325-2.068 0-.796.1442-1.49.4325-2.084.2917-.593.6961-1.053 1.2131-1.382.5204-.328 1.1253-.492 1.8146-.492.6894 0 1.2927.164 1.8097.492.5204.329.9247.789 1.2131 1.382.2916.594.4375 1.288.4375 2.084 0 .788-.1459 1.478-.4375 2.068-.2884.59-.6927 1.049-1.2131 1.377-.517.328-1.1203.492-1.8097.492Zm0-1.054c.5237 0 .9546-.134 1.2927-.403.338-.268.5883-.621.7507-1.059.1624-.437.2436-.911.2436-1.421 0-.511-.0812-.986-.2436-1.427-.1624-.441-.4127-.797-.7507-1.069-.3381-.272-.769-.408-1.2927-.408-.5236 0-.9545.136-1.2926.408-.338.272-.5883.628-.7507 1.069-.1624.441-.2436.916-.2436 1.427 0 .51.0812.984.2436 1.421.1624.438.4127.791.7507 1.059.3381.269.769.403 1.2926.403Zm8.3536 1.054c-.7159 0-1.3324-.169-1.8495-.507-.517-.338-.9147-.804-1.1932-1.397-.2784-.593-.4176-1.271-.4176-2.033 0-.776.1426-1.46.4276-2.054.2883-.596.6894-1.062 1.2031-1.397.5171-.338 1.1203-.507 1.8097-.507.5369 0 1.0208.1 1.4517.298.4309.199.7838.478 1.0589.836.2751.358.4458.775.5121 1.253h-1.1733c-.0895-.348-.2883-.657-.5966-.925-.3049-.272-.7159-.408-1.2329-.408-.4574 0-.8585.119-1.2032.358-.3413.235-.6082.569-.8004.999-.1889.428-.2834.93-.2834 1.507 0 .59.0928 1.104.2784 1.541.189.438.4541.777.7955 1.019.3447.242.749.363 1.2131.363.3049 0 .5816-.053.8302-.159.2486-.106.4591-.258.6314-.457.1724-.199.295-.438.3679-.716h1.1733c-.0663.45-.2303.856-.4922 1.218-.2585.358-.6015.643-1.0291.855-.4242.209-.9181.313-1.4815.313Zm7.6015 0c-.6363 0-1.1981-.161-1.6853-.482-.4873-.325-.8684-.782-1.1435-1.372-.2751-.594-.4127-1.295-.4127-2.103 0-.802.1376-1.498.4127-2.088.2751-.59.6579-1.046 1.1484-1.368.4906-.321 1.0573-.482 1.7003-.482.4972 0 .8899.083 1.1783.249.2916.162.5137.348.6662.557.1557.205.2767.374.3629.507h.0994v-1.213h1.1733V174h-1.1335v-1.173h-.1392c-.0862.139-.2088.315-.3679.527-.1591.208-.3861.396-.6811.561-.295.163-.6877.244-1.1783.244Zm.1591-1.054c.4707 0 .8684-.123 1.1932-.368.3248-.248.5717-.591.7408-1.029.169-.441.2535-.949.2535-1.526 0-.57-.0828-1.069-.2486-1.497-.1657-.431-.4109-.765-.7358-1.004-.3248-.242-.7258-.363-1.2031-.363-.4971 0-.9114.128-1.2429.383-.3281.252-.575.595-.7407 1.029-.1625.431-.2437.915-.2437 1.452 0 .543.0829 1.037.2486 1.481.1691.441.4176.792.7458 1.054.3314.259.7424.388 1.2329.388Zm5.6527.895v-7.636h1.1335v1.193h.0995c.1591-.408.4159-.724.7706-.95.3546-.228.7805-.343 1.2777-.343.5038 0 .923.115 1.2578.343.338.226.6015.542.7905.95h.0795c.1956-.395.4889-.708.88-.94.3911-.235.8601-.353 1.4069-.353.6828 0 1.2413.214 1.6755.642.4341.424.6512 1.085.6512 1.983V174h-1.1733v-5.111c0-.563-.1541-.966-.4623-1.208-.3083-.242-.6712-.363-1.0888-.363-.5369 0-.9529.163-1.2479.487-.2949.322-.4424.73-.4424 1.223V174h-1.1932v-5.23c0-.434-.1409-.784-.4226-1.049-.2817-.269-.6446-.403-1.0888-.403-.3049 0-.5899.081-.8551.244-.2618.162-.4739.388-.6364.676-.159.285-.2386.615-.2386.989V174h-1.1733Zm15.2699.159c-.689 0-1.2939-.164-1.8143-.492-.517-.328-.9214-.787-1.213-1.377-.2884-.59-.4326-1.28-.4326-2.068 0-.796.1442-1.49.4326-2.084.2916-.593.696-1.053 1.213-1.382.5204-.328 1.1253-.492 1.8143-.492.69 0 1.293.164 1.81.492.52.329.925.789 1.213 1.382.292.594.438 1.288.438 2.084 0 .788-.146 1.478-.438 2.068-.288.59-.693 1.049-1.213 1.377-.517.328-1.12.492-1.81.492Zm0-1.054c.524 0 .955-.134 1.293-.403.338-.268.588-.621.751-1.059.162-.437.243-.911.243-1.421 0-.511-.081-.986-.243-1.427-.163-.441-.413-.797-.751-1.069-.338-.272-.769-.408-1.293-.408-.5233 0-.9542.136-1.2923.408-.338.272-.5883.628-.7507 1.069-.1624.441-.2436.916-.2436 1.427 0 .51.0812.984.2436 1.421.1624.438.4127.791.7507 1.059.3381.269.769.403 1.2923.403Zm10.661-5.031-1.054.298c-.067-.176-.164-.346-.294-.512-.126-.169-.298-.308-.517-.418-.218-.109-.498-.164-.84-.164-.467 0-.857.108-1.168.324-.308.212-.463.482-.463.81 0 .292.107.522.319.691.212.169.543.31.994.423l1.133.278c.683.166 1.192.419 1.527.761.335.338.502.774.502 1.307 0 .438-.126.829-.378 1.173-.249.345-.597.617-1.044.816-.447.199-.968.298-1.561.298-.779 0-1.424-.169-1.934-.507-.51-.338-.834-.832-.969-1.482l1.113-.278c.106.411.307.719.602.925.298.205.687.308 1.168.308.547 0 .981-.116 1.303-.348.324-.235.487-.517.487-.845 0-.265-.093-.487-.279-.666-.185-.183-.47-.319-.855-.408l-1.272-.298c-.7-.166-1.213-.423-1.542-.771-.324-.351-.487-.79-.487-1.317 0-.431.121-.812.363-1.144.245-.331.578-.591.999-.78.425-.189.905-.284 1.442-.284.756 0 1.349.166 1.78.497.434.332.742.769.925 1.313Zm11.252 0-1.054.298c-.067-.176-.164-.346-.294-.512-.126-.169-.298-.308-.517-.418-.218-.109-.499-.164-.84-.164-.467 0-.857.108-1.168.324-.308.212-.463.482-.463.81 0 .292.106.522.319.691.212.169.543.31.994.423l1.133.278c.683.166 1.192.419 1.527.761.334.338.502.774.502 1.307 0 .438-.126.829-.378 1.173-.249.345-.597.617-1.044.816-.447.199-.968.298-1.561.298-.779 0-1.424-.169-1.934-.507-.51-.338-.834-.832-.97-1.482l1.114-.278c.106.411.307.719.602.925.298.205.687.308 1.168.308.547 0 .981-.116 1.303-.348.324-.235.487-.517.487-.845 0-.265-.093-.487-.279-.666-.185-.183-.47-.319-.855-.408l-1.272-.298c-.7-.166-1.214-.423-1.542-.771-.324-.351-.487-.79-.487-1.317 0-.431.121-.812.363-1.144.245-.331.578-.591.999-.78.425-.189.905-.284 1.442-.284.756 0 1.349.166 1.78.497.434.332.742.769.925 1.313Zm5.107 6.085c-.736 0-1.371-.162-1.904-.487-.531-.328-.94-.786-1.228-1.372-.285-.59-.428-1.276-.428-2.059 0-.782.143-1.471.428-2.068.288-.6.689-1.067 1.203-1.402.517-.338 1.12-.507 1.809-.507.398 0 .791.066 1.179.199.387.133.74.348 1.059.646.318.295.571.686.76 1.174.189.487.284 1.087.284 1.799v.498h-5.887v-1.015h4.693c0-.431-.086-.815-.258-1.153-.169-.338-.411-.605-.726-.8-.311-.196-.679-.294-1.104-.294-.467 0-.871.116-1.213.348-.338.229-.598.527-.78.895-.183.368-.274.762-.274 1.183v.676c0 .577.1 1.066.299 1.467.202.398.482.701.84.91.358.205.774.308 1.248.308.308 0 .586-.043.835-.129.252-.09.469-.222.651-.398.183-.179.323-.401.423-.666l1.133.318c-.119.385-.32.723-.601 1.014-.282.289-.63.514-1.044.676-.415.16-.88.239-1.397.239Zm9.759-3.281v-4.514h1.173V174h-1.173v-1.293h-.08c-.179.388-.457.718-.835.99-.378.268-.855.402-1.432.402-.477 0-.901-.104-1.272-.313-.372-.212-.663-.53-.875-.954-.212-.428-.319-.966-.319-1.616v-4.852h1.174v4.772c0 .557.156 1.001.467 1.333.315.331.716.497 1.203.497.292 0 .588-.075.89-.224.305-.149.56-.378.766-.686.209-.308.313-.701.313-1.178Zm7.26 5.986v-10.5h1.133v1.213h.139c.087-.133.206-.302.358-.507.156-.209.378-.395.667-.557.291-.166.686-.249 1.183-.249.643 0 1.21.161 1.7.482.491.322.873.778 1.149 1.368.275.59.412 1.286.412 2.088 0 .808-.137 1.509-.412 2.103-.276.59-.657 1.047-1.144 1.372-.487.321-1.049.482-1.685.482-.491 0-.884-.081-1.179-.244-.295-.165-.522-.353-.681-.561-.159-.212-.281-.388-.368-.527h-.099v4.037h-1.173Zm1.153-6.682c0 .577.085 1.085.254 1.526.169.438.416.781.74 1.029.325.245.723.368 1.194.368.49 0 .899-.129 1.228-.388.331-.262.58-.613.745-1.054.169-.444.254-.938.254-1.481 0-.537-.083-1.021-.249-1.452-.162-.434-.409-.777-.74-1.029-.329-.255-.741-.383-1.238-.383-.478 0-.879.121-1.204.363-.324.239-.57.573-.735 1.004-.166.428-.249.927-.249 1.497Zm7.378-6.364h1.173v8.193c0 .372.042.632.125.781.082.149.253.22.512.214.139-.007.242-.017.308-.03.069-.017.132-.033.189-.05l.238 1.014c-.102.03-.232.057-.387.08-.156.026-.319.04-.488.04-.556 0-.974-.153-1.252-.458-.279-.305-.418-.729-.418-1.272v-8.512Zm6.507 10.341c-.637 0-1.199-.161-1.686-.482-.487-.325-.868-.782-1.143-1.372-.275-.594-.413-1.295-.413-2.103 0-.802.138-1.498.413-2.088.275-.59.658-1.046 1.148-1.368.491-.321 1.057-.482 1.7-.482.498 0 .89.083 1.179.249.291.162.513.348.666.557.156.205.277.374.363.507h.099v-1.213h1.174V174h-1.134v-1.173h-.139c-.086.139-.209.315-.368.527-.159.208-.386.396-.681.561-.295.163-.688.244-1.178.244Zm.159-1.054c.47 0 .868-.123 1.193-.368.325-.248.572-.591.741-1.029.169-.441.253-.949.253-1.526 0-.57-.083-1.069-.248-1.497-.166-.431-.411-.765-.736-1.004-.325-.242-.726-.363-1.203-.363-.498 0-.912.128-1.243.383-.328.252-.575.595-.741 1.029-.162.431-.244.915-.244 1.452 0 .543.083 1.037.249 1.481.169.441.418.792.746 1.054.331.259.742.388 1.233.388Zm6.826-3.699V174h-1.174v-7.636h1.134v1.193h.099c.179-.388.451-.7.816-.935.364-.238.835-.358 1.412-.358.517 0 .969.106 1.357.318.388.209.689.527.905.955.215.424.323.961.323 1.611V174h-1.174v-4.773c0-.6-.155-1.067-.467-1.402-.311-.338-.739-.507-1.283-.507-.374 0-.709.081-1.004.244-.291.162-.522.399-.691.711-.169.311-.253.689-.253 1.133Zm10.118 4.753c-.689 0-1.294-.164-1.815-.492-.517-.328-.921-.787-1.213-1.377-.288-.59-.432-1.28-.432-2.068 0-.796.144-1.49.432-2.084.292-.593.696-1.053 1.213-1.382.521-.328 1.126-.492 1.815-.492.689 0 1.293.164 1.81.492.52.329.924.789 1.213 1.382.291.594.437 1.288.437 2.084 0 .788-.146 1.478-.437 2.068-.289.59-.693 1.049-1.213 1.377-.517.328-1.121.492-1.81.492Zm0-1.054c.524 0 .955-.134 1.293-.403.338-.268.588-.621.75-1.059.163-.437.244-.911.244-1.421 0-.511-.081-.986-.244-1.427-.162-.441-.412-.797-.75-1.069-.338-.272-.769-.408-1.293-.408-.524 0-.955.136-1.293.408-.338.272-.588.628-.75 1.069-.163.441-.244.916-.244 1.427 0 .51.081.984.244 1.421.162.438.412.791.75 1.059.338.269.769.403 1.293.403Zm12.39 1.054c-.735 0-1.37-.162-1.904-.487-.53-.328-.939-.786-1.228-1.372-.285-.59-.427-1.276-.427-2.059 0-.782.142-1.471.427-2.068.289-.6.69-1.067 1.204-1.402.517-.338 1.12-.507 1.809-.507.398 0 .791.066 1.178.199.388.133.741.348 1.059.646.319.295.572.686.761 1.174.189.487.283 1.087.283 1.799v.498h-5.886v-1.015h4.693c0-.431-.086-.815-.258-1.153-.169-.338-.411-.605-.726-.8-.312-.196-.68-.294-1.104-.294-.467 0-.872.116-1.213.348-.338.229-.598.527-.78.895-.183.368-.274.762-.274 1.183v.676c0 .577.1 1.066.298 1.467.203.398.483.701.841.91.358.205.774.308 1.247.308.309 0 .587-.043.836-.129.252-.09.469-.222.651-.398.182-.179.323-.401.423-.666l1.133.318c-.119.385-.32.723-.601 1.014-.282.289-.63.514-1.044.676-.415.16-.88.239-1.398.239Zm4.947-.159v-7.636h1.134v1.193h.099c.159-.408.416-.724.771-.95.354-.228.78-.343 1.277-.343.504 0 .924.115 1.258.343.338.226.602.542.791.95h.079c.196-.395.489-.708.88-.94.391-.235.86-.353 1.407-.353.683 0 1.241.214 1.676.642.434.424.651 1.085.651 1.983V174h-1.173v-5.111c0-.563-.154-.966-.463-1.208-.308-.242-.671-.363-1.088-.363-.537 0-.953.163-1.248.487-.295.322-.443.73-.443 1.223V174h-1.193v-5.23c0-.434-.141-.784-.423-1.049-.281-.269-.644-.403-1.088-.403-.305 0-.59.081-.855.244-.262.162-.474.388-.637.676-.159.285-.238.615-.238.989V174h-1.174Zm18.989.159c-.636 0-1.198-.161-1.685-.482-.487-.325-.869-.782-1.144-1.372-.275-.594-.412-1.295-.412-2.103 0-.802.137-1.498.412-2.088.275-.59.658-1.046 1.149-1.368.49-.321 1.057-.482 1.7-.482.497 0 .89.083 1.178.249.292.162.514.348.667.557.155.205.276.374.362.507h.1v-1.213h1.173V174h-1.133v-1.173h-.14c-.086.139-.208.315-.367.527-.16.208-.387.396-.682.561-.294.163-.687.244-1.178.244Zm.159-1.054c.471 0 .869-.123 1.193-.368.325-.248.572-.591.741-1.029.169-.441.254-.949.254-1.526 0-.57-.083-1.069-.249-1.497-.165-.431-.411-.765-.736-1.004-.324-.242-.725-.363-1.203-.363-.497 0-.911.128-1.243.383-.328.252-.575.595-.74 1.029-.163.431-.244.915-.244 1.452 0 .543.083 1.037.249 1.481.169.441.417.792.745 1.054.332.259.743.388 1.233.388Zm8.755 1.054c-.716 0-1.332-.169-1.849-.507-.517-.338-.915-.804-1.193-1.397-.279-.593-.418-1.271-.418-2.033 0-.776.143-1.46.428-2.054.288-.596.689-1.062 1.203-1.397.517-.338 1.12-.507 1.809-.507.537 0 1.021.1 1.452.298.431.199.784.478 1.059.836.275.358.446.775.512 1.253h-1.173c-.09-.348-.289-.657-.597-.925-.305-.272-.716-.408-1.233-.408-.457 0-.858.119-1.203.358-.341.235-.608.569-.8.999-.189.428-.284.93-.284 1.507 0 .59.093 1.104.279 1.541.189.438.454.777.795 1.019.345.242.749.363 1.213.363.305 0 .582-.053.831-.159.248-.106.459-.258.631-.457s.295-.438.368-.716h1.173c-.066.45-.23.856-.492 1.218-.259.358-.602.643-1.029.855-.424.209-.918.313-1.482.313Zm-.557-.199h.975l-.08.398c.259.04.496.147.711.323.216.179.323.462.323.85 0 .428-.177.776-.532 1.044-.351.272-.87.408-1.556.408l-.039-.776c.308 0 .563-.049.765-.149.206-.096.308-.258.308-.487 0-.229-.084-.384-.253-.467-.169-.083-.443-.14-.82-.169l.198-.975Zm8.159.199c-.637 0-1.198-.161-1.686-.482-.487-.325-.868-.782-1.143-1.372-.275-.594-.413-1.295-.413-2.103 0-.802.138-1.498.413-2.088.275-.59.658-1.046 1.148-1.368.491-.321 1.058-.482 1.701-.482.497 0 .89.083 1.178.249.292.162.514.348.666.557.156.205.277.374.363.507h.1v-1.213h1.173V174h-1.134v-1.173h-.139c-.086.139-.209.315-.368.527-.159.208-.386.396-.681.561-.295.163-.688.244-1.178.244Zm.159-1.054c.471 0 .868-.123 1.193-.368.325-.248.572-.591.741-1.029.169-.441.253-.949.253-1.526 0-.57-.082-1.069-.248-1.497-.166-.431-.411-.765-.736-1.004-.325-.242-.726-.363-1.203-.363-.497 0-.912.128-1.243.383-.328.252-.575.595-.741 1.029-.162.431-.243.915-.243 1.452 0 .543.083 1.037.248 1.481.169.441.418.792.746 1.054.331.259.742.388 1.233.388Zm-1.372-7.656-.915-.04c0-.507.144-.921.433-1.243.291-.325.651-.487 1.078-.487.189 0 .357.033.502.099.146.063.286.136.418.219.133.083.269.158.408.224.142.063.303.094.482.094.189 0 .348-.073.477-.218.133-.15.199-.329.199-.537l.895.079c0 .517-.146.928-.437 1.233-.289.305-.647.458-1.074.458-.229 0-.418-.032-.567-.095-.149-.066-.282-.141-.398-.224-.116-.082-.238-.155-.368-.218-.129-.067-.288-.1-.477-.1s-.346.075-.472.224c-.123.146-.184.323-.184.532Zm10.127 8.71c-.689 0-1.294-.164-1.815-.492-.517-.328-.921-.787-1.213-1.377-.288-.59-.432-1.28-.432-2.068 0-.796.144-1.49.432-2.084.292-.593.696-1.053 1.213-1.382.521-.328 1.126-.492 1.815-.492.689 0 1.293.164 1.81.492.52.329.924.789 1.213 1.382.291.594.437 1.288.437 2.084 0 .788-.146 1.478-.437 2.068-.289.59-.693 1.049-1.213 1.377-.517.328-1.121.492-1.81.492Zm0-1.054c.524 0 .954-.134 1.293-.403.338-.268.588-.621.75-1.059.163-.437.244-.911.244-1.421 0-.511-.081-.986-.244-1.427-.162-.441-.412-.797-.75-1.069-.339-.272-.769-.408-1.293-.408-.524 0-.955.136-1.293.408-.338.272-.588.628-.75 1.069-.163.441-.244.916-.244 1.427 0 .51.081.984.244 1.421.162.438.412.791.75 1.059.338.269.769.403 1.293.403Zm12.291 1.054c-.716 0-1.332-.169-1.85-.507-.517-.338-.914-.804-1.193-1.397-.278-.593-.417-1.271-.417-2.033 0-.776.142-1.46.427-2.054.289-.596.69-1.062 1.203-1.397.517-.338 1.121-.507 1.81-.507.537 0 1.021.1 1.452.298.431.199.784.478 1.059.836.275.358.445.775.512 1.253h-1.174c-.089-.348-.288-.657-.596-.925-.305-.272-.716-.408-1.233-.408-.457 0-.859.119-1.203.358-.342.235-.608.569-.801.999-.189.428-.283.93-.283 1.507 0 .59.093 1.104.278 1.541.189.438.454.777.796 1.019.345.242.749.363 1.213.363.305 0 .582-.053.83-.159.249-.106.459-.258.632-.457.172-.199.295-.438.367-.716h1.174c-.067.45-.231.856-.492 1.218-.259.358-.602.643-1.03.855-.424.209-.918.313-1.481.313Zm7.82 0c-.689 0-1.294-.164-1.814-.492-.517-.328-.922-.787-1.213-1.377-.289-.59-.433-1.28-.433-2.068 0-.796.144-1.49.433-2.084.291-.593.696-1.053 1.213-1.382.52-.328 1.125-.492 1.814-.492.69 0 1.293.164 1.81.492.52.329.925.789 1.213 1.382.292.594.437 1.288.437 2.084 0 .788-.145 1.478-.437 2.068-.288.59-.693 1.049-1.213 1.377-.517.328-1.12.492-1.81.492Zm0-1.054c.524 0 .955-.134 1.293-.403.338-.268.588-.621.751-1.059.162-.437.243-.911.243-1.421 0-.511-.081-.986-.243-1.427-.163-.441-.413-.797-.751-1.069-.338-.272-.769-.408-1.293-.408-.523 0-.954.136-1.292.408-.338.272-.589.628-.751 1.069-.162.441-.244.916-.244 1.427 0 .51.082.984.244 1.421.162.438.413.791.751 1.059.338.269.769.403 1.292.403Zm5.251.895v-7.636h1.134v1.193h.099c.16-.408.416-.724.771-.95.355-.228.781-.343 1.278-.343.504 0 .923.115 1.258.343.338.226.601.542.79.95h.08c.195-.395.488-.708.88-.94.391-.235.86-.353 1.406-.353.683 0 1.242.214 1.676.642.434.424.651 1.085.651 1.983V174h-1.173v-5.111c0-.563-.154-.966-.462-1.208-.309-.242-.672-.363-1.089-.363-.537 0-.953.163-1.248.487-.295.322-.443.73-.443 1.223V174h-1.193v-5.23c0-.434-.141-.784-.422-1.049-.282-.269-.645-.403-1.089-.403-.305 0-.59.081-.855.244-.262.162-.474.388-.637.676-.159.285-.238.615-.238.989V174h-1.174ZM40.9574 197.159c-.6364 0-1.1982-.161-1.6854-.482-.4872-.325-.8684-.782-1.1434-1.372-.2751-.594-.4127-1.295-.4127-2.103 0-.802.1376-1.498.4127-2.088.275-.59.6579-1.046 1.1484-1.368.4905-.321 1.0573-.482 1.7003-.482.4971 0 .8899.083 1.1782.249.2917.162.5138.348.6662.557.1558.205.2768.374.363.507h.0994v-1.213h1.1733V197h-1.1335v-1.173h-.1392c-.0862.139-.2088.315-.3679.527-.1591.208-.3862.396-.6811.561-.295.163-.6878.244-1.1783.244Zm.1591-1.054c.4706 0 .8683-.123 1.1932-.368.3248-.248.5717-.591.7407-1.029.1691-.441.2536-.949.2536-1.526 0-.57-.0829-1.069-.2486-1.497-.1657-.431-.411-.765-.7358-1.004-.3248-.242-.7258-.363-1.2031-.363-.4972 0-.9115.128-1.2429.383-.3281.252-.5751.595-.7408 1.029-.1624.431-.2436.915-.2436 1.452 0 .543.0829 1.037.2486 1.481.169.441.4176.792.7457 1.054.3315.259.7424.388 1.233.388Zm8.7549 1.054c-.7159 0-1.3323-.169-1.8494-.507-.517-.338-.9148-.804-1.1932-1.397-.2784-.593-.4176-1.271-.4176-2.033 0-.776.1425-1.46.4276-2.054.2883-.596.6894-1.062 1.2031-1.397.517-.338 1.1203-.507 1.8097-.507.5369 0 1.0208.1 1.4517.298.4308.199.7838.478 1.0589.836.2751.358.4458.775.5121 1.253H51.701c-.0895-.348-.2884-.657-.5966-.925-.3049-.272-.7159-.408-1.233-.408-.4573 0-.8584.119-1.2031.358-.3414.235-.6082.569-.8004.999-.1889.428-.2834.93-.2834 1.507 0 .59.0928 1.104.2784 1.541.1889.438.4541.777.7955 1.019.3447.242.749.363 1.213.363.305 0 .5817-.053.8303-.159.2486-.106.459-.258.6314-.457.1723-.199.295-.438.3679-.716h1.1733c-.0663.45-.2304.856-.4922 1.218-.2585.358-.6016.643-1.0291.855-.4243.209-.9181.313-1.4816.313Zm7.8204 0c-.6894 0-1.2943-.164-1.8147-.492-.517-.328-.9214-.787-1.213-1.377-.2884-.59-.4326-1.28-.4326-2.068 0-.796.1442-1.49.4326-2.084.2916-.593.696-1.053 1.213-1.382.5204-.328 1.1253-.492 1.8147-.492s1.2926.164 1.8096.492c.5204.329.9247.789 1.2131 1.382.2917.594.4375 1.288.4375 2.084 0 .788-.1458 1.478-.4375 2.068-.2884.59-.6927 1.049-1.2131 1.377-.517.328-1.1202.492-1.8096.492Zm0-1.054c.5236 0 .9545-.134 1.2926-.403.338-.268.5883-.621.7507-1.059.1624-.437.2436-.911.2436-1.421 0-.511-.0812-.986-.2436-1.427-.1624-.441-.4127-.797-.7507-1.069-.3381-.272-.769-.408-1.2926-.408-.5237 0-.9546.136-1.2927.408-.338.272-.5883.628-.7507 1.069-.1624.441-.2436.916-.2436 1.427 0 .51.0812.984.2436 1.421.1624.438.4127.791.7507 1.059.3381.269.769.403 1.2927.403Zm5.2512.895v-7.636h1.1335v1.193h.0995c.159-.408.4159-.724.7706-.95.3546-.228.7805-.343 1.2777-.343.5037 0 .923.115 1.2578.343.338.226.6015.542.7904.95h.0796c.1955-.395.4889-.708.88-.94.3911-.235.8601-.353 1.4069-.353.6828 0 1.2413.214 1.6755.642.4341.424.6512 1.085.6512 1.983V197h-1.1733v-5.111c0-.563-.1541-.966-.4623-1.208-.3083-.242-.6712-.363-1.0888-.363-.5369 0-.9529.163-1.2479.487-.295.322-.4424.73-.4424 1.223V197h-1.1932v-5.23c0-.434-.1409-.784-.4226-1.049-.2817-.269-.6447-.403-1.0888-.403-.3049 0-.5899.081-.8551.244-.2618.162-.474.388-.6364.676-.1591.285-.2386.615-.2386.989V197H62.943Zm12.168 2.864v-10.5h1.1335v1.213h.1392c.0862-.133.2055-.302.358-.507.1557-.209.3778-.395.6661-.557.2917-.166.6861-.249 1.1833-.249.643 0 1.2097.161 1.7003.482.4905.322.8733.778 1.1484 1.368.2751.59.4127 1.286.4127 2.088 0 .808-.1376 1.509-.4127 2.103-.2751.59-.6562 1.047-1.1435 1.372-.4872.321-1.049.482-1.6853.482-.4906 0-.8833-.081-1.1783-.244-.295-.165-.522-.353-.6811-.561-.1591-.212-.2817-.388-.3679-.527h-.0994v4.037H75.111Zm1.1534-6.682c0 .577.0845 1.085.2535 1.526.1691.438.416.781.7408 1.029.3248.245.7225.368 1.1932.368.4905 0 .8998-.129 1.228-.388.3314-.262.58-.613.7457-1.054.169-.444.2536-.938.2536-1.481 0-.537-.0829-1.021-.2486-1.452-.1624-.434-.4094-.777-.7408-1.029-.3281-.255-.7408-.383-1.2379-.383-.4773 0-.8783.121-1.2031.363-.3249.239-.5701.573-.7358 1.004-.1658.428-.2486.927-.2486 1.497Zm10.2613 3.977c-.6363 0-1.1981-.161-1.6853-.482-.4872-.325-.8684-.782-1.1435-1.372-.2751-.594-.4126-1.295-.4126-2.103 0-.802.1375-1.498.4126-2.088.2751-.59.6579-1.046 1.1484-1.368.4906-.321 1.0573-.482 1.7003-.482.4972 0 .8899.083 1.1783.249.2917.162.5137.348.6662.557.1558.205.2767.374.3629.507h.0995v-1.213h1.1732V197h-1.1335v-1.173h-.1392c-.0862.139-.2088.315-.3679.527-.1591.208-.3861.396-.6811.561-.295.163-.6877.244-1.1783.244Zm.1591-1.054c.4707 0 .8684-.123 1.1932-.368.3248-.248.5718-.591.7408-1.029.169-.441.2535-.949.2535-1.526 0-.57-.0828-1.069-.2485-1.497-.1658-.431-.411-.765-.7358-1.004-.3248-.242-.7259-.363-1.2032-.363-.4971 0-.9114.128-1.2429.383-.3281.252-.575.595-.7407 1.029-.1624.431-.2436.915-.2436 1.452 0 .543.0828 1.037.2485 1.481.1691.441.4177.792.7458 1.054.3314.259.7424.388 1.2329.388Zm6.826-3.699V197h-1.1733v-7.636h1.1336v1.193h.0994c.179-.388.4507-.7.8153-.935.3646-.238.8353-.358 1.412-.358.517 0 .9694.106 1.3572.318.3878.209.6894.527.9048.955.2155.424.3232.961.3232 1.611V197h-1.1733v-4.773c0-.6-.1558-1.067-.4673-1.402-.3116-.338-.7391-.507-1.2827-.507-.3745 0-.7093.081-1.0043.244-.2916.162-.522.399-.691.711-.1691.311-.2536.689-.2536 1.133Zm8.1892 0V197h-1.173v-10.182h1.173v3.739h.1c.179-.395.447-.708.805-.94.361-.235.842-.353 1.442-.353.52 0 .976.105 1.367.313.391.206.694.522.91.95.219.424.328.964.328 1.621V197h-1.173v-4.773c0-.606-.158-1.075-.473-1.407-.311-.334-.744-.502-1.297-.502-.385 0-.729.081-1.034.244-.302.162-.541.399-.716.711-.173.311-.259.689-.259 1.133Zm9.982 4.753c-.636 0-1.198-.161-1.685-.482-.488-.325-.869-.782-1.144-1.372-.275-.594-.412-1.295-.412-2.103 0-.802.137-1.498.412-2.088.275-.59.658-1.046 1.149-1.368.49-.321 1.057-.482 1.7-.482.497 0 .89.083 1.178.249.292.162.514.348.666.557.156.205.277.374.363.507h.1v-1.213h1.173V197h-1.134v-1.173h-.139c-.086.139-.209.315-.368.527-.159.208-.386.396-.681.561-.295.163-.687.244-1.178.244Zm.159-1.054c.471 0 .868-.123 1.193-.368.325-.248.572-.591.741-1.029.169-.441.254-.949.254-1.526 0-.57-.083-1.069-.249-1.497-.166-.431-.411-.765-.736-1.004-.325-.242-.726-.363-1.203-.363-.497 0-.911.128-1.243.383-.328.252-.575.595-.741 1.029-.162.431-.243.915-.243 1.452 0 .543.083 1.037.248 1.481.169.441.418.792.746 1.054.332.259.743.388 1.233.388Zm5.653.895v-7.636h1.133v1.193h.1c.159-.408.416-.724.77-.95.355-.228.781-.343 1.278-.343.504 0 .923.115 1.258.343.338.226.601.542.79.95h.08c.195-.395.489-.708.88-.94.391-.235.86-.353 1.407-.353.683 0 1.241.214 1.675.642.434.424.652 1.085.652 1.983V197h-1.174v-5.111c0-.563-.154-.966-.462-1.208-.308-.242-.671-.363-1.089-.363-.537 0-.953.163-1.248.487-.295.322-.442.73-.442 1.223V197h-1.193v-5.23c0-.434-.141-.784-.423-1.049-.282-.269-.645-.403-1.089-.403-.305 0-.59.081-.855.244-.262.162-.474.388-.636.676-.159.285-.239.615-.239.989V197h-1.173Zm15.369.159c-.735 0-1.37-.162-1.904-.487-.53-.328-.939-.786-1.228-1.372-.285-.59-.427-1.276-.427-2.059 0-.782.142-1.471.427-2.068.289-.6.69-1.067 1.203-1.402.518-.338 1.121-.507 1.81-.507.398 0 .791.066 1.178.199.388.133.741.348 1.059.646.319.295.572.686.761 1.174.189.487.283 1.087.283 1.799v.498h-5.886v-1.015h4.693c0-.431-.086-.815-.258-1.153-.169-.338-.411-.605-.726-.8-.312-.196-.68-.294-1.104-.294-.467 0-.872.116-1.213.348-.338.229-.598.527-.78.895-.183.368-.274.762-.274 1.183v.676c0 .577.1 1.066.298 1.467.203.398.483.701.841.91.358.205.774.308 1.247.308.309 0 .587-.043.836-.129.252-.09.469-.222.651-.398.182-.179.323-.401.423-.666l1.133.318c-.119.385-.32.723-.601 1.014-.282.289-.63.514-1.045.676-.414.16-.879.239-1.397.239Zm6.12-4.753V197h-1.173v-7.636h1.134v1.193h.099c.179-.388.451-.7.815-.935.365-.238.836-.358 1.412-.358.517 0 .97.106 1.358.318.387.209.689.527.904.955.216.424.324.961.324 1.611V197h-1.174v-4.773c0-.6-.155-1.067-.467-1.402-.312-.338-.739-.507-1.283-.507-.374 0-.709.081-1.004.244-.292.162-.522.399-.691.711-.169.311-.254.689-.254 1.133Zm10.338-3.042v.994h-3.958v-.994h3.958Zm-2.804-1.83h1.173v7.278c0 .332.048.581.144.746.1.163.226.272.378.328.156.053.32.08.492.08.129 0 .236-.007.318-.02.083-.017.15-.03.199-.04l.239 1.054c-.08.03-.191.06-.333.09-.143.033-.323.049-.542.049-.332 0-.656-.071-.975-.213-.314-.143-.576-.36-.785-.652-.206-.291-.308-.659-.308-1.103v-7.597Zm7.589 9.625c-.69 0-1.294-.164-1.815-.492-.517-.328-.921-.787-1.213-1.377-.288-.59-.432-1.28-.432-2.068 0-.796.144-1.49.432-2.084.292-.593.696-1.053 1.213-1.382.521-.328 1.125-.492 1.815-.492.689 0 1.292.164 1.809.492.521.329.925.789 1.214 1.382.291.594.437 1.288.437 2.084 0 .788-.146 1.478-.437 2.068-.289.59-.693 1.049-1.214 1.377-.517.328-1.12.492-1.809.492Zm0-1.054c.523 0 .954-.134 1.292-.403.339-.268.589-.621.751-1.059.163-.437.244-.911.244-1.421 0-.511-.081-.986-.244-1.427-.162-.441-.412-.797-.751-1.069-.338-.272-.769-.408-1.292-.408-.524 0-.955.136-1.293.408-.338.272-.588.628-.751 1.069-.162.441-.243.916-.243 1.427 0 .51.081.984.243 1.421.163.438.413.791.751 1.059.338.269.769.403 1.293.403Zm12.291 1.054c-.716 0-1.333-.169-1.85-.507-.517-.338-.914-.804-1.193-1.397-.278-.593-.417-1.271-.417-2.033 0-.776.142-1.46.427-2.054.289-.596.69-1.062 1.203-1.397.517-.338 1.121-.507 1.81-.507.537 0 1.021.1 1.452.298.431.199.784.478 1.059.836.275.358.445.775.512 1.253h-1.174c-.089-.348-.288-.657-.596-.925-.305-.272-.716-.408-1.233-.408-.458 0-.859.119-1.203.358-.342.235-.608.569-.801.999-.189.428-.283.93-.283 1.507 0 .59.093 1.104.278 1.541.189.438.454.777.796 1.019.344.242.749.363 1.213.363.305 0 .582-.053.83-.159.249-.106.459-.258.631-.457.173-.199.295-.438.368-.716h1.174c-.067.45-.231.856-.493 1.218-.258.358-.601.643-1.029.855-.424.209-.918.313-1.481.313Zm7.82 0c-.689 0-1.294-.164-1.814-.492-.518-.328-.922-.787-1.214-1.377-.288-.59-.432-1.28-.432-2.068 0-.796.144-1.49.432-2.084.292-.593.696-1.053 1.214-1.382.52-.328 1.125-.492 1.814-.492.69 0 1.293.164 1.81.492.52.329.925.789 1.213 1.382.292.594.437 1.288.437 2.084 0 .788-.145 1.478-.437 2.068-.288.59-.693 1.049-1.213 1.377-.517.328-1.12.492-1.81.492Zm0-1.054c.524 0 .955-.134 1.293-.403.338-.268.588-.621.75-1.059.163-.437.244-.911.244-1.421 0-.511-.081-.986-.244-1.427-.162-.441-.412-.797-.75-1.069-.338-.272-.769-.408-1.293-.408-.524 0-.954.136-1.292.408-.339.272-.589.628-.751 1.069-.163.441-.244.916-.244 1.427 0 .51.081.984.244 1.421.162.438.412.791.751 1.059.338.269.768.403 1.292.403Zm6.425-3.699V197h-1.174v-7.636h1.134v1.193h.099c.179-.388.451-.7.816-.935.364-.238.835-.358 1.412-.358.517 0 .969.106 1.357.318.388.209.689.527.905.955.215.424.323.961.323 1.611V197h-1.173v-4.773c0-.6-.156-1.067-.468-1.402-.311-.338-.739-.507-1.282-.507-.375 0-.71.081-1.005.244-.291.162-.522.399-.691.711-.169.311-.253.689-.253 1.133Zm10.337-3.042v.994h-3.958v-.994h3.958Zm-2.804-1.83h1.173v7.278c0 .332.048.581.144.746.1.163.226.272.378.328.156.053.32.08.492.08.13 0 .236-.007.319-.02.082-.017.149-.03.198-.04l.239 1.054c-.079.03-.191.06-.333.09-.143.033-.323.049-.542.049-.331 0-.656-.071-.974-.213-.315-.143-.577-.36-.786-.652-.205-.291-.308-.659-.308-1.103v-7.597Zm4.569 9.466v-7.636h1.173V197h-1.173Zm.059-8.67 1.214-2.307h1.372l-1.551 2.307h-1.035Zm4.436 4.076V197h-1.173v-7.636h1.134v1.193h.099c.179-.388.451-.7.815-.935.365-.238.836-.358 1.412-.358.517 0 .97.106 1.358.318.387.209.689.527.904.955.216.424.324.961.324 1.611V197h-1.174v-4.773c0-.6-.156-1.067-.467-1.402-.312-.338-.739-.507-1.283-.507-.374 0-.709.081-1.004.244-.292.162-.522.399-.691.711-.169.311-.254.689-.254 1.133Zm11.829 1.472v-4.514h1.173V197h-1.173v-1.293h-.08c-.179.388-.457.718-.835.99-.378.268-.855.402-1.432.402-.477 0-.901-.104-1.272-.313-.372-.212-.663-.53-.875-.954-.212-.428-.318-.966-.318-1.616v-4.852h1.173v4.772c0 .557.156 1.001.467 1.333.315.331.716.497 1.203.497.292 0 .589-.075.89-.224.305-.149.56-.378.766-.686.209-.308.313-.701.313-1.178Zm6.425 3.281c-.69 0-1.295-.164-1.815-.492-.517-.328-.921-.787-1.213-1.377-.289-.59-.433-1.28-.433-2.068 0-.796.144-1.49.433-2.084.292-.593.696-1.053 1.213-1.382.52-.328 1.125-.492 1.815-.492.689 0 1.292.164 1.809.492.521.329.925.789 1.213 1.382.292.594.438 1.288.438 2.084 0 .788-.146 1.478-.438 2.068-.288.59-.692 1.049-1.213 1.377-.517.328-1.12.492-1.809.492Zm0-1.054c.523 0 .954-.134 1.292-.403.338-.268.588-.621.751-1.059.162-.437.243-.911.243-1.421 0-.511-.081-.986-.243-1.427-.163-.441-.413-.797-.751-1.069-.338-.272-.769-.408-1.292-.408-.524 0-.955.136-1.293.408-.338.272-.588.628-.751 1.069-.162.441-.243.916-.243 1.427 0 .51.081.984.243 1.421.163.438.413.791.751 1.059.338.269.769.403 1.293.403Zm6.106.975c-.245 0-.456-.088-.631-.264-.176-.176-.264-.386-.264-.631 0-.246.088-.456.264-.632.175-.175.386-.263.631-.263s.456.088.631.263c.176.176.264.386.264.632 0 .162-.042.311-.125.447-.079.136-.187.245-.323.328-.132.08-.281.12-.447.12Z"/><path fill="#16192C" d="M40.2557 140.364V152h-2.108v-11.636h2.108ZM42.4474 152v-8.727h1.966v1.483h.1022c.1818-.5.483-.89.9034-1.171.4205-.284.9224-.426 1.5057-.426.5909 0 1.089.144 1.4943.432.4091.284.697.672.8637 1.165h.0909c.1932-.485.5189-.872.9773-1.159.4621-.292 1.0094-.438 1.642-.438.803 0 1.4583.254 1.9659.761.5076.508.7614 1.249.7614 2.222V152h-2.0625v-5.54c0-.541-.144-.937-.4318-1.187-.2879-.254-.6402-.381-1.0569-.381-.4962 0-.8844.155-1.1647.466-.2766.307-.4148.706-.4148 1.199V152h-2.0171v-5.625c0-.451-.1363-.811-.409-1.08-.269-.268-.6213-.403-1.0569-.403-.2954 0-.5644.076-.8068.227-.2424.148-.4356.358-.5795.631-.144.269-.2159.583-.2159.943V152h-2.0569Zm14.3594 3.273v-12h2.0227v1.443h.1194c.106-.212.2556-.438.4488-.676.1932-.243.4546-.449.7841-.62.3296-.174.75-.261 1.2614-.261.6742 0 1.2822.172 1.8238.517.5455.341.9773.847 1.2955 1.517.322.667.483 1.485.483 2.455 0 .958-.1572 1.772-.4716 2.443-.3144.67-.7425 1.182-1.2841 1.534-.5417.352-1.1553.528-1.8409.528-.5 0-.9148-.083-1.2444-.25-.3295-.166-.5947-.367-.7954-.602-.197-.239-.3504-.464-.4602-.676h-.0853v4.648h-2.0568Zm2.0171-7.637c0 .565.0795 1.059.2386 1.483.1629.425.3958.756.6989.995.3068.234.678.352 1.1136.352.4545 0 .8352-.121 1.142-.364.3069-.246.5379-.581.6932-1.005.1591-.428.2387-.915.2387-1.461 0-.541-.0777-1.022-.233-1.443-.1553-.42-.3864-.75-.6932-.988-.3068-.239-.6894-.358-1.1477-.358-.4394 0-.8125.115-1.1193.346-.3068.231-.5398.555-.6989.972-.1553.416-.2329.907-.2329 1.471Zm10.0397-7.272V152h-2.0568v-11.636h2.0568Zm5.9787 11.806c-.875 0-1.6307-.181-2.267-.545-.6326-.367-1.1193-.886-1.4602-1.557-.341-.674-.5114-1.468-.5114-2.38 0-.898.1704-1.686.5114-2.364.3447-.682.8257-1.212 1.4431-1.591.6175-.383 1.3428-.574 2.1762-.574.5379 0 1.0454.087 1.5227.261.4811.171.9053.436 1.2727.796.3712.36.6629.818.875 1.375.2122.553.3182 1.212.3182 1.977v.631h-7.1534v-1.387h5.1818c-.0038-.393-.089-.744-.2557-1.051-.1666-.31-.3996-.555-.6988-.733-.2955-.178-.6402-.267-1.0341-.267-.4205 0-.7898.103-1.108.307-.3182.201-.5663.466-.7443.796-.1742.325-.2632.683-.267 1.074v1.21c0 .507.0928.943.2784 1.307.1856.359.4451.636.7784.829.3333.189.7235.284 1.1704.284.2993 0 .5701-.041.8125-.125.2425-.087.4527-.214.6307-.381.1781-.166.3125-.373.4034-.619l1.9205.216c-.1212.508-.3523.951-.6932 1.33-.3371.375-.7689.666-1.2955.875-.5265.204-1.1287.306-1.8068.306Zm5.6208-.17v-8.727h1.9659v1.483h.1022c.1819-.5.483-.89.9035-1.171.4204-.284.9223-.426 1.5056-.426.5909 0 1.0891.144 1.4944.432.4091.284.6969.672.8636 1.165h.0909c.1932-.485.5189-.872.9773-1.159.4621-.292 1.0094-.438 1.642-.438.8031 0 1.4584.254 1.9659.761.5076.508.7614 1.249.7614 2.222V152h-2.0625v-5.54c0-.541-.1439-.937-.4318-1.187-.2879-.254-.6402-.381-1.0568-.381-.4963 0-.8845.155-1.1648.466-.2765.307-.4148.706-.4148 1.199V152h-2.017v-5.625c0-.451-.1364-.811-.4091-1.08-.269-.268-.6212-.403-1.0568-.403-.2955 0-.5644.076-.8069.227-.2424.148-.4356.358-.5795.631-.1439.269-.2159.583-.2159.943V152h-2.0568Zm18.223.17c-.875 0-1.6307-.181-2.2671-.545-.6325-.367-1.1193-.886-1.4602-1.557-.3409-.674-.5114-1.468-.5114-2.38 0-.898.1705-1.686.5114-2.364.3447-.682.8258-1.212 1.4432-1.591.6174-.383 1.3428-.574 2.1761-.574.5379 0 1.0455.087 1.5229.261.481.171.905.436 1.273.796.371.36.662.818.875 1.375.212.553.318 1.212.318 1.977v.631h-7.1536v-1.387h5.1816c-.004-.393-.089-.744-.256-1.051-.166-.31-.3991-.555-.6984-.733-.2954-.178-.6401-.267-1.0341-.267-.4204 0-.7897.103-1.1079.307-.3182.201-.5663.466-.7443.796-.1743.325-.2633.683-.2671 1.074v1.21c0 .507.0928.943.2784 1.307.1856.359.4451.636.7784.829.3334.189.7235.284 1.1705.284.2992 0 .5701-.041.8125-.125.2424-.087.4526-.214.631-.381.178-.166.312-.373.403-.619l1.921.216c-.122.508-.353.951-.694 1.33-.337.375-.769.666-1.295.875-.5266.204-1.1289.306-1.8069.306Zm7.6779-5.284V152h-2.057v-8.727h1.966v1.483h.102c.201-.489.521-.877.96-1.165.443-.288.991-.432 1.642-.432.603 0 1.127.129 1.574.386.451.258.799.631 1.046 1.12.25.488.373 1.081.369 1.778V152h-2.057v-5.239c0-.583-.151-1.039-.454-1.369-.3-.33-.714-.494-1.245-.494-.36 0-.68.079-.96.238-.277.156-.494.381-.653.676-.156.296-.233.654-.233 1.074Zm12.051-3.613v1.591h-5.017v-1.591h5.017Zm-3.779-2.091h2.057v8.193c0 .277.042.489.125.636.087.144.201.243.341.296.14.053.296.079.466.079.129 0 .246-.009.352-.028.11-.019.193-.036.25-.051l.347 1.608c-.11.038-.267.079-.472.125-.2.045-.447.072-.738.079-.516.015-.98-.062-1.392-.233-.413-.174-.741-.443-.983-.806-.239-.364-.356-.819-.353-1.364v-8.534Zm8.01 10.994c-.553 0-1.051-.098-1.494-.295-.439-.201-.788-.497-1.045-.887-.254-.39-.381-.871-.381-1.443 0-.492.091-.899.273-1.221.181-.322.43-.58.744-.773.314-.193.668-.339 1.062-.438.398-.102.809-.176 1.233-.221.512-.053.926-.101 1.245-.142.318-.046.549-.114.693-.205.148-.095.221-.24.221-.437v-.034c0-.428-.126-.76-.38-.995s-.62-.352-1.097-.352c-.504 0-.903.11-1.199.329-.291.22-.488.48-.591.779l-1.92-.273c.151-.53.401-.973.75-1.329.348-.36.775-.629 1.278-.807.504-.182 1.061-.273 1.671-.273.42 0 .839.049 1.255.148.417.098.798.261 1.143.488.344.224.621.529.829.915.212.387.318.87.318 1.449V152h-1.977v-1.199h-.068c-.125.243-.301.47-.529.682-.223.208-.505.377-.846.506-.337.125-.733.187-1.188.187Zm.534-1.511c.413 0 .771-.082 1.074-.245.303-.166.536-.386.699-.659.167-.272.25-.57.25-.892v-1.028c-.064.053-.174.102-.329.148-.152.045-.322.085-.512.119-.189.034-.377.064-.562.091-.186.026-.347.049-.483.068-.307.042-.582.11-.824.205-.243.094-.434.227-.574.397-.14.167-.21.383-.21.648 0 .379.138.665.415.858.276.193.628.29 1.056.29Zm9.949 1.505c-.871 0-1.619-.191-2.244-.573-.621-.383-1.1-.911-1.438-1.586-.333-.678-.5-1.458-.5-2.341 0-.886.171-1.668.512-2.346.341-.682.822-1.212 1.443-1.591.625-.383 1.364-.574 2.216-.574.708 0 1.335.131 1.881.392.549.258.986.623 1.312 1.097.326.469.511 1.019.557 1.647h-1.966c-.08-.42-.269-.77-.568-1.051-.296-.284-.691-.426-1.188-.426-.42 0-.789.114-1.108.341-.318.224-.566.546-.744.966-.174.42-.261.924-.261 1.511 0 .595.087 1.106.261 1.534.174.425.419.752.733.983.318.228.691.341 1.119.341.303 0 .574-.057.813-.17.242-.118.445-.286.608-.506.163-.22.274-.487.335-.801h1.966c-.049.617-.231 1.165-.546 1.642-.314.474-.742.845-1.284 1.114-.541.265-1.178.397-1.909.397Zm-.591-.215h1.114l-.091.483c.356.053.657.189.903.409.25.223.375.543.375.96.004.538-.236.97-.721 1.295-.485.326-1.176.489-2.074.489l-.023-1.011c.436 0 .783-.059 1.04-.177.258-.113.388-.295.392-.545.008-.242-.083-.42-.273-.534-.185-.11-.481-.186-.886-.227l.244-1.142Zm8.53.221c-.553 0-1.051-.098-1.494-.295-.44-.201-.788-.497-1.046-.887-.253-.39-.38-.871-.38-1.443 0-.492.091-.899.272-1.221.182-.322.43-.58.745-.773.314-.193.668-.339 1.062-.438.398-.102.809-.176 1.233-.221.512-.053.926-.101 1.245-.142.318-.046.549-.114.693-.205.147-.095.221-.24.221-.437v-.034c0-.428-.127-.76-.38-.995-.254-.235-.62-.352-1.097-.352-.504 0-.903.11-1.199.329-.291.22-.488.48-.591.779l-1.92-.273c.151-.53.401-.973.75-1.329.348-.36.774-.629 1.278-.807.504-.182 1.061-.273 1.671-.273.42 0 .839.049 1.255.148.417.098.798.261 1.142.488.345.224.622.529.83.915.212.387.318.87.318 1.449V152h-1.977v-1.199h-.068c-.125.243-.301.47-.529.682-.223.208-.505.377-.846.506-.337.125-.733.187-1.188.187Zm.534-1.511c.413 0 .771-.082 1.074-.245.303-.166.536-.386.699-.659.167-.272.25-.57.25-.892v-1.028c-.064.053-.174.102-.33.148-.151.045-.322.085-.511.119-.189.034-.377.064-.562.091-.186.026-.347.049-.483.068-.307.042-.582.11-.824.205-.243.094-.434.227-.574.397-.14.167-.21.383-.21.648 0 .379.138.665.414.858.277.193.629.29 1.057.29Zm-1.051-8.455-1.244-.028c0-.674.174-1.203.523-1.585.348-.383.778-.574 1.289-.574.247 0 .461.041.642.125.182.079.349.172.5.278.156.106.307.201.455.284.148.08.311.12.489.12.215 0 .386-.082.511-.245.129-.163.195-.371.199-.625l1.221.051c-.003.678-.18 1.205-.528 1.58-.349.371-.777.559-1.284.562-.273.004-.502-.036-.688-.119-.185-.083-.348-.178-.488-.284-.137-.106-.275-.199-.415-.278-.14-.084-.305-.125-.494-.125-.201 0-.366.079-.495.238-.128.159-.193.368-.193.625Zm11 9.96c-.852 0-1.591-.187-2.216-.562-.625-.375-1.11-.9-1.454-1.574-.341-.674-.512-1.462-.512-2.364 0-.901.171-1.691.512-2.369.344-.678.829-1.204 1.454-1.579s1.364-.563 2.216-.563c.852 0 1.591.188 2.216.563.625.375 1.108.901 1.449 1.579.345.678.517 1.468.517 2.369 0 .902-.172 1.69-.517 2.364-.341.674-.824 1.199-1.449 1.574-.625.375-1.364.562-2.216.562Zm.011-1.647c.463 0 .849-.127 1.16-.381.31-.258.541-.602.693-1.034.155-.432.233-.913.233-1.443 0-.534-.078-1.017-.233-1.449-.152-.436-.383-.782-.693-1.04-.311-.257-.697-.386-1.16-.386-.473 0-.867.129-1.181.386-.311.258-.544.604-.699 1.04-.152.432-.227.915-.227 1.449 0 .53.075 1.011.227 1.443.155.432.388.776.699 1.034.314.254.708.381 1.181.381Zm13.124 1.63c-.686 0-1.299-.176-1.841-.528-.541-.352-.97-.864-1.284-1.534-.314-.671-.472-1.485-.472-2.443 0-.97.16-1.788.478-2.455.322-.67.755-1.176 1.301-1.517.545-.345 1.153-.517 1.824-.517.511 0 .932.087 1.261.261.33.171.591.377.784.62.193.238.343.464.449.676h.085v-4.352h2.063V152h-2.023v-1.375h-.125c-.106.212-.259.437-.46.676-.201.235-.466.436-.796.602-.329.167-.744.25-1.244.25Zm.574-1.687c.436 0 .807-.118 1.114-.352.306-.239.539-.57.698-.995.16-.424.239-.918.239-1.483 0-.564-.079-1.055-.239-1.471-.155-.417-.386-.741-.693-.972-.303-.231-.676-.346-1.119-.346-.458 0-.841.119-1.148.358-.307.238-.538.568-.693.988-.155.421-.233.902-.233 1.443 0 .546.078 1.033.233 1.461.159.424.392.759.699 1.005.311.243.691.364 1.142.364Zm8.777 1.71c-.553 0-1.051-.098-1.494-.295-.44-.201-.788-.497-1.046-.887-.254-.39-.381-.871-.381-1.443 0-.492.091-.899.273-1.221.182-.322.43-.58.745-.773.314-.193.668-.339 1.062-.438.398-.102.809-.176 1.233-.221.511-.053.926-.101 1.244-.142.318-.046.55-.114.693-.205.148-.095.222-.24.222-.437v-.034c0-.428-.127-.76-.381-.995-.253-.235-.619-.352-1.096-.352-.504 0-.904.11-1.199.329-.292.22-.489.48-.591.779l-1.92-.273c.151-.53.401-.973.75-1.329.348-.36.774-.629 1.278-.807.504-.182 1.061-.273 1.67-.273.421 0 .839.049 1.256.148.417.098.797.261 1.142.488.345.224.621.529.83.915.212.387.318.87.318 1.449V152h-1.977v-1.199h-.069c-.125.243-.301.47-.528.682-.223.208-.506.377-.847.506-.337.125-.733.187-1.187.187Zm.534-1.511c.413 0 .771-.082 1.074-.245.303-.166.536-.386.699-.659.166-.272.25-.57.25-.892v-1.028c-.065.053-.174.102-.33.148-.151.045-.322.085-.511.119-.19.034-.377.064-.563.091-.185.026-.346.049-.483.068-.306.042-.581.11-.823.205-.243.094-.434.227-.574.397-.14.167-.211.383-.211.648 0 .379.139.665.415.858.277.193.629.29 1.057.29Zm13.974 1.505c-.875 0-1.63-.181-2.267-.545-.632-.367-1.119-.886-1.46-1.557-.341-.674-.511-1.468-.511-2.38 0-.898.17-1.686.511-2.364.345-.682.826-1.212 1.443-1.591.618-.383 1.343-.574 2.177-.574.537 0 1.045.087 1.522.261.481.171.906.436 1.273.796.371.36.663.818.875 1.375.212.553.318 1.212.318 1.977v.631h-7.153v-1.387h5.182c-.004-.393-.089-.744-.256-1.051-.167-.31-.4-.555-.699-.733-.295-.178-.64-.267-1.034-.267-.421 0-.79.103-1.108.307-.318.201-.566.466-.744.796-.175.325-.264.683-.267 1.074v1.21c0 .507.092.943.278 1.307.186.359.445.636.778.829.334.189.724.284 1.171.284.299 0 .57-.041.812-.125.243-.087.453-.214.631-.381.178-.166.313-.373.403-.619l1.921.216c-.121.508-.352.951-.693 1.33-.337.375-.769.666-1.296.875-.526.204-1.129.306-1.807.306Zm12.519-6.59-1.875.204c-.053-.189-.146-.367-.278-.534-.129-.167-.304-.301-.523-.403-.22-.103-.489-.154-.807-.154-.428 0-.788.093-1.08.279-.287.185-.43.426-.426.721-.004.254.089.46.279.619.193.16.511.29.954.393l1.489.318c.826.178 1.439.46 1.841.846.405.387.61.892.613 1.517-.003.55-.164 1.034-.483 1.455-.314.417-.751.742-1.312.977s-1.205.352-1.932.352c-1.068 0-1.928-.223-2.579-.67-.652-.451-1.04-1.078-1.165-1.881l2.006-.193c.09.394.284.691.579.892.296.201.68.301 1.153.301.489 0 .881-.1 1.177-.301.299-.201.448-.449.448-.744 0-.25-.096-.457-.289-.619-.19-.163-.485-.288-.887-.375l-1.488-.313c-.837-.174-1.457-.468-1.858-.881-.402-.416-.601-.943-.597-1.579-.004-.538.142-1.004.438-1.398.299-.398.714-.704 1.244-.92.534-.22 1.15-.33 1.847-.33 1.022 0 1.827.218 2.414.653.591.436.957 1.025 1.097 1.768Zm6.241-2.307v1.591h-5.017v-1.591h5.017Zm-3.778-2.091h2.057v8.193c0 .277.041.489.125.636.087.144.201.243.341.296.14.053.295.079.466.079.128 0 .246-.009.352-.028.11-.019.193-.036.25-.051l.346 1.608c-.109.038-.267.079-.471.125-.201.045-.447.072-.739.079-.515.015-.979-.062-1.392-.233-.413-.174-.74-.443-.983-.806-.238-.364-.356-.819-.352-1.364v-8.534ZM209.026 152v-8.727h1.994v1.454h.091c.159-.504.432-.892.818-1.165.39-.276.835-.414 1.335-.414.114 0 .241.005.381.017.144.007.263.021.358.04v1.892c-.087-.031-.226-.057-.415-.08-.186-.026-.365-.04-.54-.04-.375 0-.712.082-1.011.245-.296.159-.528.38-.699.664-.17.284-.256.612-.256.983V152h-2.056Zm8.698.176c-.553 0-1.051-.098-1.494-.295-.439-.201-.788-.497-1.045-.887-.254-.39-.381-.871-.381-1.443 0-.492.091-.899.273-1.221.182-.322.43-.58.744-.773.314-.193.669-.339 1.063-.438.397-.102.808-.176 1.232-.221.512-.053.927-.101 1.245-.142.318-.046.549-.114.693-.205.148-.095.222-.24.222-.437v-.034c0-.428-.127-.76-.381-.995s-.619-.352-1.097-.352c-.503 0-.903.11-1.199.329-.291.22-.488.48-.59.779l-1.921-.273c.152-.53.402-.973.75-1.329.349-.36.775-.629 1.278-.807.504-.182 1.061-.273 1.671-.273.42 0 .839.049 1.256.148.416.098.797.261 1.142.488.344.224.621.529.829.915.212.387.318.87.318 1.449V152h-1.977v-1.199h-.068c-.125.243-.301.47-.528.682-.224.208-.506.377-.847.506-.337.125-.733.187-1.188.187Zm.535-1.511c.412 0 .77-.082 1.073-.245.303-.166.536-.386.699-.659.167-.272.25-.57.25-.892v-1.028c-.064.053-.174.102-.329.148-.152.045-.322.085-.512.119-.189.034-.377.064-.562.091-.186.026-.347.049-.483.068-.307.042-.582.11-.824.205-.242.094-.434.227-.574.397-.14.167-.21.383-.21.648 0 .379.138.665.415.858.276.193.628.29 1.057.29Zm10.5-7.392v1.591h-5.018v-1.591h5.018Zm-3.779-2.091h2.057v8.193c0 .277.042.489.125.636.087.144.201.243.341.296.14.053.295.079.466.079.129 0 .246-.009.352-.028.11-.019.193-.036.25-.051l.347 1.608c-.11.038-.267.079-.472.125-.201.045-.447.072-.739.079-.515.015-.979-.062-1.392-.233-.413-.174-.74-.443-.983-.806-.238-.364-.356-.819-.352-1.364v-8.534Zm9.269 10.988c-.875 0-1.631-.181-2.267-.545-.633-.367-1.12-.886-1.461-1.557-.341-.674-.511-1.468-.511-2.38 0-.898.17-1.686.511-2.364.345-.682.826-1.212 1.443-1.591.618-.383 1.343-.574 2.177-.574.538 0 1.045.087 1.522.261.481.171.906.436 1.273.796.371.36.663.818.875 1.375.212.553.318 1.212.318 1.977v.631h-7.153v-1.387h5.182c-.004-.393-.089-.744-.256-1.051-.167-.31-.4-.555-.699-.733-.295-.178-.64-.267-1.034-.267-.42 0-.79.103-1.108.307-.318.201-.566.466-.744.796-.174.325-.263.683-.267 1.074v1.21c0 .507.093.943.278 1.307.186.359.445.636.779.829.333.189.723.284 1.17.284.299 0 .57-.041.812-.125.243-.087.453-.214.631-.381.178-.166.313-.373.404-.619l1.92.216c-.121.508-.352.951-.693 1.33-.337.375-.769.666-1.296.875-.526.204-1.128.306-1.806.306Zm-.955-10.045 1.273-2.597h2.011l-1.744 2.597h-1.54Zm10.371 13.33c-.739 0-1.373-.101-1.904-.302-.53-.197-.956-.462-1.278-.795-.322-.333-.545-.703-.671-1.108l1.853-.449c.083.171.204.339.363.506.16.17.374.31.642.42.273.114.616.171 1.029.171.583 0 1.066-.142 1.449-.426.382-.281.574-.743.574-1.387v-1.653h-.103c-.106.212-.261.43-.466.653-.2.224-.467.411-.801.563-.329.151-.744.227-1.244.227-.67 0-1.278-.157-1.824-.472-.542-.318-.973-.791-1.295-1.42-.319-.633-.478-1.424-.478-2.375 0-.958.159-1.767.478-2.426.322-.663.755-1.165 1.301-1.506.545-.345 1.153-.517 1.824-.517.511 0 .931.087 1.261.261.333.171.598.377.795.62.197.238.347.464.449.676h.114v-1.443h2.028v8.869c0 .746-.178 1.364-.534 1.852-.356.489-.843.854-1.46 1.097-.617.242-1.318.364-2.102.364Zm.017-5.194c.435 0 .807-.106 1.113-.318.307-.212.54-.517.699-.915.159-.397.239-.875.239-1.431 0-.55-.08-1.031-.239-1.444-.155-.412-.386-.733-.693-.96-.303-.231-.676-.346-1.119-.346-.459 0-.841.119-1.148.358-.307.238-.538.566-.693.983-.155.412-.233.882-.233 1.409 0 .534.078 1.001.233 1.403.159.398.392.708.699.932.31.22.691.329 1.142.329Zm6.187 1.739v-8.727h2.057V152h-2.057Zm1.034-9.966c-.325 0-.606-.108-.841-.324-.234-.219-.352-.483-.352-.79 0-.31.118-.573.352-.789.235-.22.516-.33.841-.33.33 0 .61.11.841.33.235.216.353.479.353.789 0 .307-.118.571-.353.79-.231.216-.511.324-.841.324Zm5.65 10.142c-.553 0-1.052-.098-1.495-.295-.439-.201-.788-.497-1.045-.887-.254-.39-.381-.871-.381-1.443 0-.492.091-.899.273-1.221.182-.322.43-.58.744-.773.315-.193.669-.339 1.063-.438.397-.102.808-.176 1.233-.221.511-.053.926-.101 1.244-.142.318-.046.549-.114.693-.205.148-.095.222-.24.222-.437v-.034c0-.428-.127-.76-.381-.995s-.619-.352-1.097-.352c-.503 0-.903.11-1.198.329-.292.22-.489.48-.591.779l-1.921-.273c.152-.53.402-.973.75-1.329.349-.36.775-.629 1.279-.807.503-.182 1.06-.273 1.67-.273.421 0 .839.049 1.256.148.416.098.797.261 1.142.488.344.224.621.529.829.915.212.387.319.87.319 1.449V152h-1.978v-1.199h-.068c-.125.243-.301.47-.528.682-.224.208-.506.377-.847.506-.337.125-.733.187-1.187.187Zm.534-1.511c.413 0 .77-.082 1.074-.245.303-.166.535-.386.698-.659.167-.272.25-.57.25-.892v-1.028c-.064.053-.174.102-.329.148-.152.045-.322.085-.512.119-.189.034-.376.064-.562.091-.186.026-.347.049-.483.068-.307.042-.581.11-.824.205-.242.094-.434.227-.574.397-.14.167-.21.383-.21.648 0 .379.138.665.415.858.276.193.629.29 1.057.29Z"/></g></g><defs><clipPath id="b"><rect width="355" height="509" x="8" y="6" fill="#fff" rx="16"/></clipPath><filter id="a" width="371" height="525" x="0" y="0" color-interpolation-filters="sRGB" filterUnits="userSpaceOnUse"><feFlood flood-opacity="0" result="BackgroundImageFix"/><feColorMatrix in="SourceAlpha" result="hardAlpha" values="0 0 0 0 0 0 0 0 0 0 0 0 0 0 0 0 0 0 127 0"/><feMorphology in="SourceAlpha" operator="dilate" radius="2" result="effect1_dropShadow_802_3930"/><feOffset dy="2"/><feGaussianBlur stdDeviation="3"/><feColorMatrix values="0 0 0 0 0 0 0 0 0 0 0 0 0 0 0 0 0 0 0.15 0"/><feBlend in2="BackgroundImageFix" result="effect1_dropShadow_802_3930"/><feColorMatrix in="SourceAlpha" result="hardAlpha" values="0 0 0 0 0 0 0 0 0 0 0 0 0 0 0 0 0 0 127 0"/><feOffset dy="1"/><feGaussianBlur stdDeviation="1"/><feColorMatrix values="0 0 0 0 0 0 0 0 0 0 0 0 0 0 0 0 0 0 0.3 0"/><feBlend in2="effect1_dropShadow_802_3930" result="effect2_dropShadow_802_3930"/><feBlend in="SourceGraphic" in2="effect2_dropShadow_802_3930" result="shape"/></filter></defs></svg>