<svg xmlns="http://www.w3.org/2000/svg" width="371" height="525" fill="none"><g filter="url(#a)"><g clip-path="url(#b)"><rect width="355" height="509" x="8" y="6" fill="#fff" rx="16"/><path fill="#D4AF37" d="m51.7869 37.3864-4.1477 4.1477-4.2045-4.1477 4.2045-4.2046 4.1477 4.2046Zm5.3409 5.3409-4.1477 4.2045-4.1477-4.2045 4.1477-4.1478 4.1477 4.1478Zm-10.6818 0-4.2045 4.2045-4.2046-4.2045 4.2046-4.1478 4.2045 4.1478Zm5.3409 5.3977-4.1477 4.1477-4.2045-4.1477 4.2045-4.2045 4.1477 4.2045ZM69.5089 50V35.4545h5.4545c1.1174 0 2.0549.2084 2.8125.625.7623.4167 1.3376.9896 1.7259 1.7188.393.7244.5895 1.5483.5895 2.4716 0 .9328-.1965 1.7613-.5895 2.4858-.393.7244-.973 1.295-1.7401 1.7116-.767.412-1.7116.6179-2.8338.6179h-3.615V42.919h3.2599c.6534 0 1.1884-.1136 1.6051-.3409.4167-.2272.7244-.5397.9233-.9375.2036-.3977.3054-.8546.3054-1.3707s-.1018-.9707-.3054-1.3637c-.1989-.3929-.509-.6983-.9304-.9161-.4167-.2226-.9541-.3339-1.6122-.3339h-2.4148V50h-2.6349Zm15.7013.2202c-.6913 0-1.3139-.1231-1.8679-.3693-.5492-.251-.9848-.6203-1.3068-1.108-.3172-.4877-.4758-1.089-.4758-1.804 0-.6155.1136-1.1245.3409-1.527.2272-.4024.5374-.7244.9304-.9659.393-.2415.8357-.4237 1.3281-.5469.4972-.1278 1.0109-.2201 1.5412-.2769.6392-.0663 1.1577-.1255 1.5554-.1776.3977-.0568.6865-.142.8665-.2557.1846-.1184.2769-.3006.2769-.5469v-.0426c0-.535-.1586-.9493-.4758-1.2429-.3172-.2935-.7742-.4403-1.3707-.4403-.6298 0-1.1293.1373-1.4986.4119-.3646.2746-.6108.599-.7387.973l-2.4005-.3409c.1894-.6629.5019-1.2168.9375-1.6619.4356-.4498.9682-.786 1.598-1.0085.6297-.2273 1.3257-.3409 2.0881-.3409.5255 0 1.0487.0615 1.5696.1846.5208.1231.9966.3267 1.4275.6108.4309.2794.7765.6605 1.0369 1.1435.2652.4829.3978 1.0866.3978 1.8111V50h-2.4716v-1.4986h-.0852c-.1563.3031-.3765.5871-.6606.8523-.2793.2604-.6321.4711-1.0582.6321-.4214.1562-.9162.2344-1.4844.2344Zm.6676-1.8892c.5161 0 .9636-.1018 1.3424-.3054.3788-.2084.67-.483.8736-.8239.2083-.3409.3124-.7126.3124-1.1151v-1.2855c-.0804.0663-.2178.1279-.4119.1847-.1894.0568-.4024.1065-.6392.1491a19.5992 19.5992 0 0 1-.7031.1137c-.232.0331-.4332.0615-.6037.0852-.3835.0521-.7268.1373-1.0298.2557-.3031.1184-.5422.2841-.7174.4971-.1752.2084-.2627.4783-.2627.8097 0 .4735.1728.831.5184 1.0725.3457.2414.786.3622 1.321.3622Zm16.3002-6.3566-2.3442.2557c-.0663-.2367-.1823-.4593-.348-.6676-.161-.2083-.3788-.3764-.6534-.5043-.2746-.1278-.6108-.1917-1.0085-.1917-.5351 0-.9849.116-1.3495.348-.3598.232-.5374.5327-.5326.902-.0048.3172.1112.5753.348.7741.2415.1989.6392.3622 1.1932.4901l1.8608.3977c1.0322.2225 1.7992.5753 2.3012 1.0582.507.483.762 1.1151.767 1.8964-.005.6865-.206 1.2926-.604 1.8181-.393.5209-.94.9281-1.64 1.2216-.7011.2936-1.5061.4404-2.4152.4404-1.3352 0-2.41-.2794-3.2244-.8381-.8144-.5634-1.2997-1.3471-1.456-2.3509l2.5071-.2414c.1137.4924.3552.8641.7245 1.115.3693.251.8499.3764 1.4417.3764.6108 0 1.1009-.1254 1.4702-.3764.3741-.2509.5611-.5611.5611-.9304 0-.3125-.1207-.5705-.3622-.7741-.2368-.2036-.6061-.3599-1.108-.4688l-1.8608-.3906c-1.0464-.2178-1.8205-.5847-2.3224-1.1008-.5019-.5209-.7505-1.179-.7458-1.9745-.0047-.6723.1776-1.2547.5469-1.7471.3741-.4972.8925-.8807 1.5554-1.1506.6676-.2746 1.437-.4119 2.3083-.4119 1.2784 0 2.2846.2722 3.0186.8167.738.5445 1.195 1.2808 1.371 2.2088Zm10.976 0-2.344.2557c-.066-.2367-.182-.4593-.348-.6676-.161-.2083-.378-.3764-.653-.5043-.275-.1278-.611-.1917-1.009-.1917-.535 0-.984.116-1.349.348-.36.232-.537.5327-.533.902-.004.3172.112.5753.348.7741.242.1989.64.3622 1.194.4901l1.86.3977c1.033.2225 1.8.5753 2.301 1.0582.507.483.763 1.1151.767 1.8964-.004.6865-.205 1.2926-.603 1.8181-.393.5209-.94.9281-1.641 1.2216-.701.2936-1.506.4404-2.415.4404-1.335 0-2.41-.2794-3.224-.8381-.814-.5634-1.3-1.3471-1.456-2.3509l2.507-.2414c.114.4924.355.8641.725 1.115.369.251.849.3764 1.441.3764.611 0 1.101-.1254 1.47-.3764.375-.2509.562-.5611.562-.9304 0-.3125-.121-.5705-.363-.7741-.236-.2036-.606-.3599-1.108-.4688l-1.86-.3906c-1.047-.2178-1.821-.5847-2.323-1.1008-.502-.5209-.75-1.179-.746-1.9745-.004-.6723.178-1.2547.547-1.7471.374-.4972.893-.8807 1.556-1.1506.667-.2746 1.437-.4119 2.308-.4119 1.278 0 2.284.2722 3.018.8167.739.5445 1.196 1.2808 1.371 2.2088Zm7.113 8.2387c-1.065 0-1.989-.2344-2.77-.7032-.781-.4687-1.387-1.1245-1.818-1.9673-.426-.8428-.639-1.8276-.639-2.9545s.213-2.1141.639-2.9617c.431-.8475 1.037-1.5057 1.818-1.9744.781-.4688 1.705-.7031 2.77-.7031s1.989.2343 2.77.7031c.781.4687 1.385 1.1269 1.811 1.9744.431.8476.646 1.8348.646 2.9617s-.215 2.1117-.646 2.9545c-.426.8428-1.03 1.4986-1.811 1.9673-.781.4688-1.705.7032-2.77.7032Zm.014-2.0597c.578 0 1.061-.1586 1.449-.4758.388-.322.677-.7529.867-1.2927.194-.5397.291-1.1411.291-1.8039 0-.6676-.097-1.2713-.291-1.8111-.19-.5445-.479-.9778-.867-1.2997-.388-.322-.871-.483-1.449-.483-.592 0-1.084.161-1.477.483-.388.3219-.679.7552-.874 1.2997-.189.5398-.284 1.1435-.284 1.8111 0 .6628.095 1.2642.284 1.8039.195.5398.486.9707.874 1.2927.393.3172.885.4758 1.477.4758ZM132.609 50v-1.9034l5.05-4.9503c.483-.4877.885-.9209 1.207-1.2997.322-.3788.564-.7457.725-1.1009.161-.3551.241-.7339.241-1.1363 0-.4593-.104-.8523-.312-1.179-.209-.3314-.495-.5871-.86-.767-.364-.18-.779-.2699-1.243-.2699-.478 0-.897.0994-1.257.2983-.36.1941-.639.4711-.838.8309-.194.3599-.291.7884-.291 1.2855h-2.507c0-.9233.21-1.7258.632-2.4076.421-.6819 1.001-1.2098 1.74-1.5838.743-.3741 1.596-.5611 2.557-.5611.975 0 1.832.1823 2.571.5469.738.3645 1.311.8641 1.719 1.4985.411.6345.617 1.3589.617 2.1733 0 .5445-.104 1.0796-.312 1.6051-.208.5256-.575 1.108-1.101 1.7472-.521.6392-1.252 1.4134-2.195 2.3224l-2.507 2.5498v.0994h6.336V50h-9.972Z"/><rect width="50.4313" height="24" x="37" y="83" fill="#E4ECF7" rx="6"/><path fill="#505780" d="M48.8478 99v-7.2727h2.8693c.5516 0 1.0215.1053 1.4098.316.3882.2084.6842.4984.8878.8701.2059.3693.3089.7954.3089 1.2784 0 .4829-.1041.9091-.3125 1.2784-.2083.3693-.5102.6569-.9055.8629-.393.206-.8689.3089-1.4276.3089h-1.8288v-1.2322h1.5802c.296 0 .5398-.0509.7316-.1527.1941-.1042.3385-.2474.4332-.4297.0971-.1846.1456-.3965.1456-.6356 0-.2415-.0485-.4522-.1456-.6321-.0947-.1823-.2391-.3232-.4332-.4226-.1941-.1018-.4404-.1527-.7387-.1527h-1.0369V99h-1.5376Zm7.959-7.2727V99H55.294v-7.2727h1.5128Zm2.7672 7.3757c-.348 0-.6582-.0604-.9304-.1811-.2723-.1231-.4877-.3042-.6463-.5433-.1563-.2415-.2344-.5422-.2344-.902 0-.3031.0556-.5576.1669-.7635.1113-.206.2628-.3717.4545-.4972.1918-.1255.4096-.2202.6535-.2841.2462-.0639.5042-.1089.7741-.1349.3172-.0332.5729-.0639.767-.0924.1942-.0307.335-.0757.4226-.1349.0876-.0592.1314-.1468.1314-.2628v-.0213c0-.2249-.071-.3989-.213-.522-.1397-.1231-.3386-.1847-.5966-.1847-.2723 0-.4889.0604-.6499.1811-.161.1184-.2675.2676-.3196.4475l-1.3991-.1136c.071-.3315.2107-.6179.419-.8594.2083-.2439.477-.4309.8061-.5611.3314-.1326.715-.1989 1.1506-.1989.303 0 .593.0355.87.1066.2794.071.5267.1811.7422.3302.2178.1492.3894.3409.5149.5753.1255.232.1882.5102.1882.8345V99h-1.4346v-.7564h-.0427c-.0876.1705-.2047.3208-.3515.451-.1468.1278-.3232.2285-.5291.3018-.206.0711-.4439.1066-.7138.1066Zm.4332-1.0441c.2226 0 .4191-.0437.5895-.1313.1705-.09.3042-.2107.4013-.3623.097-.1515.1456-.3231.1456-.5149v-.5788c-.0474.0308-.1125.0592-.1953.0852-.0805.0237-.1717.0462-.2735.0675-.1018.0189-.2036.0367-.3054.0533-.1018.0142-.1941.0272-.277.039-.1775.0261-.3326.0675-.4652.1243-.1325.0568-.2355.1338-.3089.2308-.0734.0947-.1101.2131-.1101.3551 0 .206.0746.3634.2237.4723.1515.1066.3433.1598.5753.1598Zm5.3249-2.2123V99h-1.5127v-5.4545h1.4417v.9623h.0639c.1208-.3172.3232-.5682.6073-.7528.2841-.1871.6285-.2806 1.0334-.2806.3788 0 .709.0829.9907.2486.2818.1657.5007.4025.657.7102.1562.3054.2344.67.2344 1.0938V99H67.335v-3.2031c.0024-.3338-.0829-.5942-.2557-.7813-.1728-.1894-.4107-.2841-.7138-.2841-.2036 0-.3835.0438-.5397.1314-.1539.0876-.2747.2155-.3623.3835-.0852.1658-.129.3658-.1314.6002Zm7.1725 3.2599c-.5517 0-1.0287-.1172-1.4312-.3515-.4-.2368-.709-.5658-.9268-.9872-.2178-.4238-.3267-.9151-.3267-1.4738 0-.5634.1089-1.0558.3267-1.4772.2178-.4238.5268-.7529.9268-.9873.4025-.2367.8795-.3551 1.4312-.3551.5516 0 1.0274.1184 1.4275.3551.4025.2344.7126.5635.9304.9873.2178.4214.3267.9138.3267 1.4772 0 .5587-.1089 1.05-.3267 1.4738-.2178.4214-.5279.7504-.9304.9872-.4001.2343-.8759.3515-1.4275.3515Zm.0071-1.1718c.2509 0 .4604-.0711.6285-.2131.1681-.1444.2948-.3409.38-.5895.0876-.2486.1314-.5315.1314-.8487 0-.3173-.0438-.6002-.1314-.8487-.0852-.2486-.2119-.4451-.38-.5895-.1681-.1444-.3776-.2166-.6285-.2166-.2534 0-.4664.0722-.6392.2166-.1705.1444-.2995.3409-.3871.5895-.0853.2485-.1279.5314-.1279.8487 0 .3172.0426.6001.1279.8487.0876.2486.2166.4451.3871.5895.1728.142.3858.2131.6392.2131Z"/><rect width="56" height="24" x="97.4313" y="83" fill="#D4AF37" rx="6"/><path fill="#fff" d="M108.063 99v-7.2727h2.87c.549 0 1.018.0982 1.406.2947.391.1941.688.47.891.8274.206.3551.309.773.309 1.2536 0 .4829-.104.8984-.312 1.2464-.209.3457-.51.6108-.906.7955-.393.1846-.869.277-1.427.277h-1.921v-1.2358h1.672c.294 0 .538-.0403.732-.1208.194-.0805.338-.2012.433-.3622.097-.161.145-.361.145-.6001 0-.2415-.048-.4451-.145-.6108-.095-.1657-.24-.2912-.437-.3764-.194-.0876-.439-.1314-.735-.1314h-1.037V99h-1.538Zm3.928-3.3097L113.799 99h-1.698l-1.768-3.3097h1.658Zm4.983 3.4162c-.551 0-1.029-.1172-1.431-.3515-.4-.2368-.709-.5658-.927-.9872-.218-.4238-.327-.9151-.327-1.4738 0-.5634.109-1.0558.327-1.4772.218-.4238.527-.7529.927-.9873.402-.2367.88-.3551 1.431-.3551.552 0 1.028.1184 1.428.3551.402.2344.712.5635.93.9873.218.4214.327.9138.327 1.4772 0 .5587-.109 1.05-.327 1.4738-.218.4214-.528.7504-.93.9872-.4.2343-.876.3515-1.428.3515Zm.007-1.1718c.251 0 .461-.0711.629-.2131.168-.1444.295-.3409.38-.5895.087-.2486.131-.5315.131-.8487 0-.3173-.044-.6002-.131-.8487-.085-.2486-.212-.4451-.38-.5895-.168-.1444-.378-.2166-.629-.2166-.253 0-.466.0722-.639.2166-.17.1444-.299.3409-.387.5895-.085.2485-.128.5314-.128.8487 0 .3172.043.6001.128.8487.088.2486.217.4451.387.5895.173.142.386.2131.639.2131Zm6.563-4.3892v1.1363h-3.285v-1.1363h3.285Zm-2.539-1.3069h1.512v5.0853c0 .1396.022.2485.064.3267.043.0757.102.129.178.1598.078.0307.168.0461.27.0461.071 0 .142-.0059.213-.0177.071-.0142.125-.0249.163-.032l.238 1.1257c-.076.0237-.182.0509-.319.0817-.138.0331-.305.0533-.501.0604-.365.0142-.684-.0344-.959-.1456-.272-.1113-.484-.2841-.636-.5185-.151-.2344-.226-.5303-.223-.8878v-5.2841Zm5.951 6.8679c-.561 0-1.044-.1136-1.448-.3409-.403-.2296-.713-.554-.931-.973-.218-.4214-.327-.9197-.327-1.495 0-.5611.109-1.0535.327-1.4773.218-.4238.524-.754.92-.9908.398-.2367.864-.3551 1.399-.3551.36 0 .695.058 1.005.174.312.1137.585.2853.817.515.234.2296.416.5184.547.8664.13.3457.195.7505.195 1.2145v.4155h-4.606v-.9375h3.182c0-.2178-.047-.4107-.142-.5788-.095-.1681-.226-.2995-.394-.3942-.166-.0971-.359-.1456-.579-.1456-.23 0-.433.0533-.611.1598-.175.1042-.312.245-.412.4226-.099.1752-.15.3705-.153.5859v.8914c0 .2698.05.503.15.6995.101.1965.245.348.429.4546.185.1065.404.1598.657.1598.168 0 .322-.0237.462-.0711.14-.0473.259-.1183.359-.213.099-.0947.175-.2107.227-.348l1.399.0923c-.071.3362-.217.6297-.437.8807-.218.2486-.499.4427-.845.5824-.343.1373-.74.2059-1.19.2059ZM130.447 99v-5.4545h1.513V99h-1.513Zm.76-6.1577c-.225 0-.418-.0745-.579-.2237-.158-.1515-.238-.3326-.238-.5433 0-.2083.08-.3871.238-.5362.161-.1516.354-.2273.579-.2273.225 0 .417.0757.575.2273.161.1491.242.3279.242.5362 0 .2107-.081.3918-.242.5433-.158.1492-.35.2237-.575.2237ZM133.172 99v-5.4545h1.466v.9517h.057c.1-.3386.267-.5943.501-.7671.234-.1752.504-.2628.81-.2628.075 0 .157.0048.245.0142.087.0095.164.0225.23.0391v1.3423c-.071-.0213-.169-.0402-.294-.0568-.126-.0166-.241-.0249-.345-.0249-.222 0-.421.0486-.596.1456-.173.0947-.311.2273-.412.3978-.1.1704-.149.3669-.149.5895V99h-1.513Zm6.302.1065c-.551 0-1.029-.1172-1.431-.3515-.4-.2368-.709-.5658-.927-.9872-.218-.4238-.327-.9151-.327-1.4738 0-.5634.109-1.0558.327-1.4772.218-.4238.527-.7529.927-.9873.402-.2367.88-.3551 1.431-.3551.552 0 1.028.1184 1.428.3551.402.2344.712.5635.93.9873.218.4214.327.9138.327 1.4772 0 .5587-.109 1.05-.327 1.4738-.218.4214-.528.7504-.93.9872-.4.2343-.876.3515-1.428.3515Zm.007-1.1718c.251 0 .461-.0711.629-.2131.168-.1444.295-.3409.38-.5895.087-.2486.131-.5315.131-.8487 0-.3173-.044-.6002-.131-.8487-.085-.2486-.212-.4451-.38-.5895-.168-.1444-.378-.2166-.629-.2166-.253 0-.466.0722-.639.2166-.17.1444-.299.3409-.387.5895-.085.2485-.128.5314-.128.8487 0 .3172.043.6001.128.8487.088.2486.217.4451.387.5895.173.142.386.2131.639.2131Z"/><path fill="#425466" d="M46.3068 163.818V174h-1.1932l-5.5483-7.994h-.0994V174H38.233v-10.182h1.1931l5.5682 8.014h.0995v-8.014h1.213Zm5.4104 10.341c-.6894 0-1.2943-.164-1.8147-.492-.517-.328-.9214-.787-1.213-1.377-.2884-.59-.4326-1.28-.4326-2.068 0-.796.1442-1.49.4326-2.084.2916-.593.696-1.053 1.213-1.382.5204-.328 1.1253-.492 1.8147-.492.6893 0 1.2926.164 1.8096.492.5204.329.9247.789 1.2131 1.382.2916.594.4375 1.288.4375 2.084 0 .788-.1459 1.478-.4375 2.068-.2884.59-.6927 1.049-1.2131 1.377-.517.328-1.1203.492-1.8096.492Zm0-1.054c.5236 0 .9545-.134 1.2926-.403.338-.268.5883-.621.7507-1.059.1624-.437.2436-.911.2436-1.421 0-.511-.0812-.986-.2436-1.427-.1624-.441-.4127-.797-.7507-1.069-.3381-.272-.769-.408-1.2926-.408-.5237 0-.9546.136-1.2927.408-.338.272-.5883.628-.7507 1.069-.1624.441-.2436.916-.2436 1.427 0 .51.0812.984.2436 1.421.1624.438.4127.791.7507 1.059.3381.269.769.403 1.2927.403Zm10.6603-5.031-1.054.298c-.0663-.176-.1641-.346-.2933-.512-.126-.169-.2983-.308-.5171-.418-.2187-.109-.4988-.164-.8402-.164-.4673 0-.8567.108-1.1683.324-.3082.212-.4623.482-.4623.81 0 .292.106.522.3181.691.2122.169.5436.31.9944.423l1.1335.278c.6827.166 1.1915.419 1.5263.761.3347.338.5021.774.5021 1.307 0 .438-.126.829-.3779 1.173-.2485.345-.5965.617-1.044.816-.4474.199-.9678.298-1.5611.298-.7788 0-1.4235-.169-1.9339-.507-.5104-.338-.8336-.832-.9695-1.482l1.1137-.278c.106.411.3065.719.6015.925.2983.205.6878.308 1.1683.308.5469 0 .9811-.116 1.3026-.348.3248-.235.4872-.517.4872-.845 0-.265-.0928-.487-.2784-.666-.1856-.183-.4706-.319-.8551-.408l-1.2727-.298c-.6994-.166-1.2131-.423-1.5412-.771-.3248-.351-.4872-.79-.4872-1.317 0-.431.1209-.812.3629-1.144.2453-.331.5784-.591.9993-.78.4242-.189.9048-.284 1.4417-.284.7557 0 1.349.166 1.7799.497.4342.332.7424.769.9247 1.313Zm7.3144 0-1.0539.298c-.0663-.176-.1641-.346-.2934-.512-.1259-.169-.2983-.308-.517-.418-.2188-.109-.4988-.164-.8402-.164-.4673 0-.8568.108-1.1683.324-.3083.212-.4624.482-.4624.81 0 .292.1061.522.3182.691.2121.169.5436.31.9943.423l1.1335.278c.6828.166 1.1916.419 1.5263.761.3348.338.5021.774.5021 1.307 0 .438-.1259.829-.3778 1.173-.2486.345-.5966.617-1.044.816-.4475.199-.9678.298-1.5611.298-.7789 0-1.4235-.169-1.934-.507-.5104-.338-.8335-.832-.9694-1.482l1.1136-.278c.1061.411.3066.719.6016.925.2983.205.6877.308 1.1683.308.5469 0 .9811-.116 1.3026-.348.3248-.235.4872-.517.4872-.845 0-.265-.0928-.487-.2784-.666-.1856-.183-.4707-.319-.8551-.408l-1.2728-.298c-.6993-.166-1.213-.423-1.5412-.771-.3248-.351-.4872-.79-.4872-1.317 0-.431.121-.812.3629-1.144.2453-.331.5784-.591.9993-.78.4243-.189.9049-.284 1.4418-.284.7557 0 1.349.166 1.7798.497.4342.332.7424.769.9247 1.313Zm5.0077 6.085c-.6894 0-1.2943-.164-1.8147-.492-.517-.328-.9214-.787-1.213-1.377-.2884-.59-.4326-1.28-.4326-2.068 0-.796.1442-1.49.4326-2.084.2916-.593.696-1.053 1.213-1.382.5204-.328 1.1253-.492 1.8147-.492s1.2926.164 1.8096.492c.5204.329.9247.789 1.2131 1.382.2917.594.4375 1.288.4375 2.084 0 .788-.1458 1.478-.4375 2.068-.2884.59-.6927 1.049-1.2131 1.377-.517.328-1.1202.492-1.8096.492Zm0-1.054c.5236 0 .9545-.134 1.2926-.403.3381-.268.5883-.621.7507-1.059.1624-.437.2436-.911.2436-1.421 0-.511-.0812-.986-.2436-1.427-.1624-.441-.4126-.797-.7507-1.069-.3381-.272-.769-.408-1.2926-.408-.5237 0-.9546.136-1.2926.408-.3381.272-.5883.628-.7508 1.069-.1624.441-.2436.916-.2436 1.427 0 .51.0812.984.2436 1.421.1625.438.4127.791.7508 1.059.338.269.7689.403 1.2926.403Zm10.6603-5.031-1.054.298c-.0663-.176-.164-.346-.2933-.512-.1259-.169-.2983-.308-.517-.418-.2188-.109-.4989-.164-.8402-.164-.4674 0-.8568.108-1.1684.324-.3082.212-.4623.482-.4623.81 0 .292.106.522.3182.691.2121.169.5435.31.9943.423l1.1335.278c.6828.166 1.1915.419 1.5263.761.3347.338.5021.774.5021 1.307 0 .438-.1259.829-.3778 1.173-.2486.345-.5966.617-1.0441.816-.4474.199-.9678.298-1.561.298-.7789 0-1.4236-.169-1.934-.507-.5104-.338-.8336-.832-.9695-1.482l1.1137-.278c.106.411.3066.719.6015.925.2983.205.6878.308 1.1684.308.5468 0 .981-.116 1.3025-.348.3248-.235.4872-.517.4872-.845 0-.265-.0928-.487-.2784-.666-.1856-.183-.4706-.319-.8551-.408l-1.2727-.298c-.6993-.166-1.2131-.423-1.5412-.771-.3248-.351-.4872-.79-.4872-1.317 0-.431.121-.812.3629-1.144.2453-.331.5784-.591.9993-.78.4242-.189.9048-.284 1.4418-.284.7556 0 1.3489.166 1.7798.497.4342.332.7424.769.9247 1.313Zm9.0446 6.085c-.7358 0-1.3705-.162-1.9041-.487-.5303-.328-.9397-.786-1.228-1.372-.2851-.59-.4276-1.276-.4276-2.059 0-.782.1425-1.471.4276-2.068.2883-.6.6894-1.067 1.2031-1.402.517-.338 1.1203-.507 1.8097-.507.3977 0 .7904.066 1.1782.199.3878.133.7408.348 1.059.646.3182.295.5717.686.7606 1.174.1889.487.2834 1.087.2834 1.799v.498H91.68v-1.015h4.6932c0-.431-.0861-.815-.2585-1.153-.169-.338-.411-.605-.7259-.8-.3115-.196-.6794-.294-1.1036-.294-.4674 0-.8717.116-1.2131.348-.3381.229-.5983.527-.7806.895-.1822.368-.2734.762-.2734 1.183v.676c0 .577.0994 1.066.2983 1.467.2022.398.4823.701.8402.91.358.205.7739.308 1.2479.308.3082 0 .5866-.043.8352-.129.2519-.09.469-.222.6513-.398.1823-.179.3231-.401.4226-.666l1.1335.318c-.1193.385-.3199.723-.6016 1.014-.2817.289-.6297.514-1.044.676-.4143.16-.88.239-1.397.239Zm10.3555-6.085-1.054.298c-.066-.176-.164-.346-.293-.512-.126-.169-.298-.308-.517-.418-.219-.109-.499-.164-.84-.164-.468 0-.857.108-1.169.324-.308.212-.462.482-.462.81 0 .292.106.522.318.691.212.169.544.31.995.423l1.133.278c.683.166 1.192.419 1.526.761.335.338.503.774.503 1.307 0 .438-.126.829-.378 1.173-.249.345-.597.617-1.044.816-.448.199-.968.298-1.561.298-.779 0-1.424-.169-1.9344-.507-.5104-.338-.8336-.832-.9695-1.482l1.1139-.278c.106.411.306.719.601.925.299.205.688.308 1.169.308.547 0 .981-.116 1.302-.348.325-.235.487-.517.487-.845 0-.265-.092-.487-.278-.666-.186-.183-.471-.319-.855-.408l-1.273-.298c-.699-.166-1.213-.423-1.541-.771-.3248-.351-.4872-.79-.4872-1.317 0-.431.121-.812.3629-1.144.2453-.331.5783-.591.9993-.78.424-.189.905-.284 1.442-.284.755 0 1.349.166 1.78.497.434.332.742.769.924 1.313Zm1.906 8.79v-10.5h1.133v1.213h.139c.087-.133.206-.302.358-.507.156-.209.378-.395.667-.557.291-.166.686-.249 1.183-.249.643 0 1.21.161 1.7.482.491.322.873.778 1.148 1.368.276.59.413 1.286.413 2.088 0 .808-.137 1.509-.413 2.103-.275.59-.656 1.047-1.143 1.372-.487.321-1.049.482-1.685.482-.491 0-.884-.081-1.179-.244-.295-.165-.522-.353-.681-.561-.159-.212-.281-.388-.368-.527h-.099v4.037h-1.173Zm1.153-6.682c0 .577.085 1.085.254 1.526.169.438.416.781.74 1.029.325.245.723.368 1.194.368.49 0 .899-.129 1.228-.388.331-.262.58-.613.745-1.054.169-.444.254-.938.254-1.481 0-.537-.083-1.021-.249-1.452-.162-.434-.409-.777-.741-1.029-.328-.255-.74-.383-1.237-.383-.478 0-.879.121-1.204.363-.324.239-.57.573-.735 1.004-.166.428-.249.927-.249 1.497Zm10.58 3.977c-.736 0-1.371-.162-1.905-.487-.53-.328-.939-.786-1.227-1.372-.286-.59-.428-1.276-.428-2.059 0-.782.142-1.471.428-2.068.288-.6.689-1.067 1.203-1.402.517-.338 1.12-.507 1.809-.507.398 0 .791.066 1.179.199.387.133.74.348 1.059.646.318.295.571.686.76 1.174.189.487.284 1.087.284 1.799v.498h-5.887v-1.015h4.693c0-.431-.086-.815-.258-1.153-.169-.338-.411-.605-.726-.8-.312-.196-.679-.294-1.104-.294-.467 0-.871.116-1.213.348-.338.229-.598.527-.78.895-.183.368-.274.762-.274 1.183v.676c0 .577.1 1.066.299 1.467.202.398.482.701.84.91.358.205.774.308 1.248.308.308 0 .586-.043.835-.129.252-.09.469-.222.651-.398.182-.179.323-.401.423-.666l1.133.318c-.119.385-.32.723-.601 1.014-.282.289-.63.514-1.044.676-.415.16-.88.239-1.397.239Zm8.049 0c-.716 0-1.333-.169-1.85-.507-.517-.338-.915-.804-1.193-1.397s-.418-1.271-.418-2.033c0-.776.143-1.46.428-2.054.288-.596.689-1.062 1.203-1.397.517-.338 1.12-.507 1.81-.507.537 0 1.021.1 1.451.298.431.199.784.478 1.059.836.275.358.446.775.512 1.253h-1.173c-.089-.348-.288-.657-.596-.925-.305-.272-.716-.408-1.233-.408-.458 0-.859.119-1.204.358-.341.235-.608.569-.8.999-.189.428-.283.93-.283 1.507 0 .59.092 1.104.278 1.541.189.438.454.777.796 1.019.344.242.749.363 1.213.363.305 0 .581-.053.83-.159.248-.106.459-.258.631-.457.173-.199.295-.438.368-.716h1.173c-.066.45-.23.856-.492 1.218-.258.358-.601.643-1.029.855-.424.209-.918.313-1.481.313Zm4.718-.159v-7.636h1.173V174h-1.173Zm.596-8.909c-.228 0-.426-.078-.591-.234-.163-.156-.244-.343-.244-.562 0-.218.081-.406.244-.561.165-.156.363-.234.591-.234.229 0 .424.078.587.234.166.155.248.343.248.561 0 .219-.082.406-.248.562-.163.156-.358.234-.587.234Zm5.609 9.068c-.636 0-1.198-.161-1.685-.482-.487-.325-.868-.782-1.143-1.372-.275-.594-.413-1.295-.413-2.103 0-.802.138-1.498.413-2.088.275-.59.658-1.046 1.148-1.368.491-.321 1.057-.482 1.7-.482.497 0 .89.083 1.179.249.291.162.513.348.666.557.156.205.277.374.363.507h.099v-1.213h1.173V174h-1.133v-1.173h-.139c-.086.139-.209.315-.368.527-.159.208-.386.396-.681.561-.295.163-.688.244-1.179.244Zm.16-1.054c.47 0 .868-.123 1.193-.368.325-.248.571-.591.74-1.029.17-.441.254-.949.254-1.526 0-.57-.083-1.069-.249-1.497-.165-.431-.411-.765-.735-1.004-.325-.242-.726-.363-1.203-.363-.498 0-.912.128-1.243.383-.328.252-.575.595-.741 1.029-.163.431-.244.915-.244 1.452 0 .543.083 1.037.249 1.481.169.441.417.792.746 1.054.331.259.742.388 1.233.388Zm5.652-9.287h1.174v8.193c0 .372.041.632.124.781.083.149.253.22.512.214.139-.007.242-.017.308-.03.07-.017.133-.033.189-.05l.239 1.014c-.103.03-.232.057-.388.08-.156.026-.318.04-.487.04-.557 0-.975-.153-1.253-.458-.279-.305-.418-.729-.418-1.272v-8.512ZM146.806 174v-7.636h1.174V174h-1.174Zm.597-8.909c-.229 0-.426-.078-.592-.234-.162-.156-.243-.343-.243-.562 0-.218.081-.406.243-.561.166-.156.363-.234.592-.234.229 0 .424.078.587.234.165.155.248.343.248.561 0 .219-.083.406-.248.562-.163.156-.358.234-.587.234Zm8.135 2.983-1.054.298c-.067-.176-.164-.346-.294-.512-.126-.169-.298-.308-.517-.418-.218-.109-.499-.164-.84-.164-.467 0-.857.108-1.168.324-.308.212-.463.482-.463.81 0 .292.106.522.319.691.212.169.543.31.994.423l1.133.278c.683.166 1.192.419 1.527.761.334.338.502.774.502 1.307 0 .438-.126.829-.378 1.173-.249.345-.597.617-1.044.816-.447.199-.968.298-1.561.298-.779 0-1.424-.169-1.934-.507-.51-.338-.834-.832-.97-1.482l1.114-.278c.106.411.307.719.602.925.298.205.687.308 1.168.308.547 0 .981-.116 1.303-.348.324-.235.487-.517.487-.845 0-.265-.093-.487-.279-.666-.185-.183-.47-.319-.855-.408l-1.272-.298c-.7-.166-1.214-.423-1.542-.771-.324-.351-.487-.79-.487-1.317 0-.431.121-.812.363-1.144.245-.331.578-.591.999-.78.425-.189.905-.284 1.442-.284.756 0 1.349.166 1.78.497.434.332.742.769.925 1.313Zm5.226-1.71v.994h-3.957v-.994h3.957Zm-2.804-1.83h1.173v7.278c0 .332.048.581.145.746.099.163.225.272.377.328.156.053.32.08.493.08.129 0 .235-.007.318-.02.083-.017.149-.03.199-.04l.238 1.054c-.079.03-.19.06-.333.09-.142.033-.323.049-.542.049-.331 0-.656-.071-.974-.213-.315-.143-.577-.36-.786-.652-.205-.291-.308-.659-.308-1.103v-7.597Zm7.37 9.625c-.636 0-1.198-.161-1.685-.482-.487-.325-.868-.782-1.143-1.372-.275-.594-.413-1.295-.413-2.103 0-.802.138-1.498.413-2.088.275-.59.658-1.046 1.148-1.368.491-.321 1.057-.482 1.7-.482.497 0 .89.083 1.179.249.291.162.513.348.666.557.156.205.277.374.363.507h.099v-1.213h1.173V174h-1.133v-1.173h-.139c-.086.139-.209.315-.368.527-.159.208-.386.396-.681.561-.295.163-.688.244-1.179.244Zm.16-1.054c.47 0 .868-.123 1.193-.368.325-.248.571-.591.74-1.029.17-.441.254-.949.254-1.526 0-.57-.083-1.069-.249-1.497-.165-.431-.411-.765-.735-1.004-.325-.242-.726-.363-1.203-.363-.498 0-.912.128-1.243.383-.328.252-.575.595-.741 1.029-.163.431-.244.915-.244 1.452 0 .543.083 1.037.249 1.481.169.441.417.792.746 1.054.331.259.742.388 1.233.388Zm11.061-5.031-1.054.298c-.066-.176-.164-.346-.293-.512-.126-.169-.298-.308-.517-.418-.219-.109-.499-.164-.84-.164-.468 0-.857.108-1.169.324-.308.212-.462.482-.462.81 0 .292.106.522.318.691.212.169.544.31.995.423l1.133.278c.683.166 1.192.419 1.526.761.335.338.503.774.503 1.307 0 .438-.126.829-.378 1.173-.249.345-.597.617-1.044.816-.448.199-.968.298-1.561.298-.779 0-1.424-.169-1.934-.507-.511-.338-.834-.832-.97-1.482l1.114-.278c.106.411.306.719.601.925.299.205.688.308 1.169.308.547 0 .981-.116 1.302-.348.325-.235.487-.517.487-.845 0-.265-.092-.487-.278-.666-.186-.183-.471-.319-.855-.408l-1.273-.298c-.699-.166-1.213-.423-1.541-.771-.325-.351-.487-.79-.487-1.317 0-.431.121-.812.363-1.144.245-.331.578-.591.999-.78.424-.189.905-.284 1.442-.284.755 0 1.349.166 1.78.497.434.332.742.769.924 1.313Zm8.727 6.085c-.637 0-1.198-.161-1.686-.482-.487-.325-.868-.782-1.143-1.372-.275-.594-.413-1.295-.413-2.103 0-.802.138-1.498.413-2.088.275-.59.658-1.046 1.148-1.368.491-.321 1.058-.482 1.701-.482.497 0 .89.083 1.178.249.292.162.514.348.666.557.156.205.277.374.363.507h.099v-1.213h1.174V174h-1.134v-1.173h-.139c-.086.139-.209.315-.368.527-.159.208-.386.396-.681.561-.295.163-.688.244-1.178.244Zm.159-1.054c.47 0 .868-.123 1.193-.368.325-.248.572-.591.741-1.029.169-.441.253-.949.253-1.526 0-.57-.083-1.069-.248-1.497-.166-.431-.411-.765-.736-1.004-.325-.242-.726-.363-1.203-.363-.497 0-.912.128-1.243.383-.328.252-.575.595-.741 1.029-.162.431-.243.915-.243 1.452 0 .543.082 1.037.248 1.481.169.441.418.792.746 1.054.331.259.742.388 1.233.388Zm6.826-3.699V174h-1.174v-7.636h1.134v1.193h.099c.179-.388.451-.7.816-.935.364-.238.835-.358 1.412-.358.517 0 .969.106 1.357.318.388.209.689.527.905.955.215.424.323.961.323 1.611V174h-1.173v-4.773c0-.6-.156-1.067-.468-1.402-.311-.338-.739-.507-1.282-.507-.375 0-.71.081-1.005.244-.291.162-.522.399-.691.711-.169.311-.253.689-.253 1.133Zm9.899 4.753c-.636 0-1.198-.161-1.685-.482-.487-.325-.868-.782-1.143-1.372-.275-.594-.413-1.295-.413-2.103 0-.802.138-1.498.413-2.088.275-.59.658-1.046 1.148-1.368.491-.321 1.057-.482 1.7-.482.498 0 .89.083 1.179.249.291.162.513.348.666.557.156.205.277.374.363.507h.099v-1.213h1.173V174h-1.133v-1.173h-.139c-.086.139-.209.315-.368.527-.159.208-.386.396-.681.561-.295.163-.688.244-1.179.244Zm.16-1.054c.47 0 .868-.123 1.193-.368.325-.248.571-.591.741-1.029.169-.441.253-.949.253-1.526 0-.57-.083-1.069-.249-1.497-.165-.431-.411-.765-.735-1.004-.325-.242-.726-.363-1.203-.363-.498 0-.912.128-1.243.383-.328.252-.575.595-.741 1.029-.163.431-.244.915-.244 1.452 0 .543.083 1.037.249 1.481.169.441.417.792.746 1.054.331.259.742.388 1.233.388Zm5.652-9.287h1.174v8.193c0 .372.041.632.124.781.083.149.253.22.512.214.139-.007.242-.017.308-.03.07-.017.133-.033.189-.05l.239 1.014c-.103.03-.232.057-.388.08-.156.026-.318.04-.487.04-.557 0-.975-.153-1.253-.458-.279-.305-.418-.729-.418-1.272v-8.512ZM211.597 174v-7.636h1.174V174h-1.174Zm.597-8.909c-.229 0-.426-.078-.592-.234-.162-.156-.243-.343-.243-.562 0-.218.081-.406.243-.561.166-.156.363-.234.592-.234.229 0 .424.078.587.234.165.155.248.343.248.561 0 .219-.083.406-.248.562-.163.156-.358.234-.587.234Zm8.135 2.983-1.054.298c-.067-.176-.164-.346-.294-.512-.126-.169-.298-.308-.517-.418-.218-.109-.499-.164-.84-.164-.467 0-.857.108-1.168.324-.308.212-.463.482-.463.81 0 .292.106.522.319.691.212.169.543.31.994.423l1.133.278c.683.166 1.192.419 1.527.761.334.338.502.774.502 1.307 0 .438-.126.829-.378 1.173-.249.345-.597.617-1.044.816-.447.199-.968.298-1.561.298-.779 0-1.424-.169-1.934-.507-.51-.338-.834-.832-.97-1.482l1.114-.278c.106.411.307.719.602.925.298.205.687.308 1.168.308.547 0 .981-.116 1.303-.348.324-.235.487-.517.487-.845 0-.265-.093-.487-.279-.666-.185-.183-.47-.319-.855-.408l-1.272-.298c-.7-.166-1.214-.423-1.542-.771-.324-.351-.487-.79-.487-1.317 0-.431.121-.812.363-1.144.245-.331.578-.591.999-.78.425-.189.905-.284 1.442-.284.756 0 1.349.166 1.78.497.434.332.742.769.925 1.313Zm4.789 6.085c-.637 0-1.199-.161-1.686-.482-.487-.325-.868-.782-1.143-1.372-.275-.594-.413-1.295-.413-2.103 0-.802.138-1.498.413-2.088.275-.59.658-1.046 1.148-1.368.491-.321 1.057-.482 1.7-.482.498 0 .89.083 1.179.249.291.162.513.348.666.557.156.205.277.374.363.507h.099v-1.213h1.174V174h-1.134v-1.173h-.139c-.086.139-.209.315-.368.527-.159.208-.386.396-.681.561-.295.163-.688.244-1.178.244Zm.159-1.054c.47 0 .868-.123 1.193-.368.325-.248.572-.591.741-1.029.169-.441.253-.949.253-1.526 0-.57-.083-1.069-.248-1.497-.166-.431-.411-.765-.736-1.004-.325-.242-.726-.363-1.203-.363-.498 0-.912.128-1.243.383-.328.252-.575.595-.741 1.029-.162.431-.244.915-.244 1.452 0 .543.083 1.037.249 1.481.169.441.418.792.746 1.054.331.259.742.388 1.233.388Zm5.652.895v-7.636h1.134v1.193h.099c.159-.408.416-.724.771-.95.355-.228.78-.343 1.278-.343.503 0 .923.115 1.257.343.338.226.602.542.791.95h.079c.196-.395.489-.708.88-.94.391-.235.86-.353 1.407-.353.683 0 1.242.214 1.676.642.434.424.651 1.085.651 1.983V174h-1.173v-5.111c0-.563-.154-.966-.463-1.208-.308-.242-.671-.363-1.088-.363-.537 0-.953.163-1.248.487-.295.322-.443.73-.443 1.223V174h-1.193v-5.23c0-.434-.141-.784-.422-1.049-.282-.269-.645-.403-1.089-.403-.305 0-.59.081-.855.244-.262.162-.474.388-.637.676-.159.285-.238.615-.238.989V174h-1.174Zm21.515-5.926-1.054.298c-.066-.176-.164-.346-.293-.512-.126-.169-.299-.308-.517-.418-.219-.109-.499-.164-.841-.164-.467 0-.856.108-1.168.324-.308.212-.462.482-.462.81 0 .292.106.522.318.691.212.169.543.31.994.423l1.134.278c.682.166 1.191.419 1.526.761.335.338.502.774.502 1.307 0 .438-.126.829-.378 1.173-.248.345-.596.617-1.044.816-.447.199-.968.298-1.561.298-.779 0-1.423-.169-1.934-.507-.51-.338-.833-.832-.969-1.482l1.113-.278c.106.411.307.719.602.925.298.205.688.308 1.168.308.547 0 .981-.116 1.303-.348.325-.235.487-.517.487-.845 0-.265-.093-.487-.278-.666-.186-.183-.471-.319-.855-.408l-1.273-.298c-.7-.166-1.213-.423-1.541-.771-.325-.351-.488-.79-.488-1.317 0-.431.121-.812.363-1.144.246-.331.579-.591 1-.78.424-.189.904-.284 1.441-.284.756 0 1.349.166 1.78.497.434.332.743.769.925 1.313Zm5.107 6.085c-.736 0-1.371-.162-1.904-.487-.53-.328-.94-.786-1.228-1.372-.285-.59-.428-1.276-.428-2.059 0-.782.143-1.471.428-2.068.288-.6.689-1.067 1.203-1.402.517-.338 1.12-.507 1.81-.507.397 0 .79.066 1.178.199.388.133.741.348 1.059.646.318.295.572.686.761 1.174.188.487.283 1.087.283 1.799v.498h-5.886v-1.015h4.693c0-.431-.086-.815-.259-1.153-.169-.338-.411-.605-.726-.8-.311-.196-.679-.294-1.103-.294-.468 0-.872.116-1.213.348-.338.229-.599.527-.781.895-.182.368-.273.762-.273 1.183v.676c0 .577.099 1.066.298 1.467.202.398.482.701.84.91.358.205.774.308 1.248.308.308 0 .587-.043.835-.129.252-.09.469-.222.651-.398.183-.179.324-.401.423-.666l1.134.318c-.12.385-.32.723-.602 1.014-.282.289-.63.514-1.044.676-.414.16-.88.239-1.397.239Zm9.759-3.281v-4.514h1.173V174h-1.173v-1.293h-.079c-.179.388-.458.718-.836.99-.377.268-.855.402-1.431.402-.478 0-.902-.104-1.273-.313-.371-.212-.663-.53-.875-.954-.212-.428-.318-.966-.318-1.616v-4.852h1.173v4.772c0 .557.156 1.001.467 1.333.315.331.716.497 1.203.497.292 0 .589-.075.89-.224.305-.149.56-.378.766-.686.209-.308.313-.701.313-1.178Zm7.26 5.986v-10.5h1.133v1.213h.14c.086-.133.205-.302.358-.507.155-.209.377-.395.666-.557.291-.166.686-.249 1.183-.249.643 0 1.21.161 1.7.482.491.322.874.778 1.149 1.368.275.59.412 1.286.412 2.088 0 .808-.137 1.509-.412 2.103-.275.59-.656 1.047-1.144 1.372-.487.321-1.049.482-1.685.482-.491 0-.883-.081-1.178-.244-.295-.165-.522-.353-.681-.561-.16-.212-.282-.388-.368-.527h-.1v4.037h-1.173Zm1.153-6.682c0 .577.085 1.085.254 1.526.169.438.416.781.741 1.029.324.245.722.368 1.193.368.49 0 .9-.129 1.228-.388.331-.262.58-.613.746-1.054.169-.444.253-.938.253-1.481 0-.537-.083-1.021-.248-1.452-.163-.434-.41-.777-.741-1.029-.328-.255-.741-.383-1.238-.383-.477 0-.878.121-1.203.363-.325.239-.57.573-.736 1.004-.166.428-.249.927-.249 1.497Zm10.58 3.977c-.736 0-1.371-.162-1.904-.487-.531-.328-.94-.786-1.228-1.372-.285-.59-.428-1.276-.428-2.059 0-.782.143-1.471.428-2.068.288-.6.689-1.067 1.203-1.402.517-.338 1.12-.507 1.81-.507.397 0 .79.066 1.178.199.388.133.741.348 1.059.646.318.295.572.686.76 1.174.189.487.284 1.087.284 1.799v.498h-5.887v-1.015h4.694c0-.431-.087-.815-.259-1.153-.169-.338-.411-.605-.726-.8-.311-.196-.679-.294-1.103-.294-.468 0-.872.116-1.213.348-.339.229-.599.527-.781.895-.182.368-.273.762-.273 1.183v.676c0 .577.099 1.066.298 1.467.202.398.482.701.84.91.358.205.774.308 1.248.308.308 0 .587-.043.835-.129.252-.09.469-.222.651-.398.183-.179.324-.401.423-.666l1.134.318c-.12.385-.32.723-.602 1.014-.282.289-.63.514-1.044.676-.414.16-.88.239-1.397.239Zm4.947-.159v-7.636h1.133v1.153h.08c.136-.378.386-.684.75-.92.365-.235.778-.353 1.238-.353.212 0 .398.025.557.075.159.05.298.118.418.204l-.398.994c-.083-.043-.181-.076-.293-.099-.11-.027-.237-.04-.383-.04-.371 0-.703.078-.994.234-.289.155-.517.367-.686.636-.166.268-.249.575-.249.92V174h-1.173Zm9.252-7.636v.994h-4.117v-.994h4.117ZM297.618 174v-8.69c0-.438.103-.802.308-1.094.206-.292.473-.511.801-.656.328-.146.674-.219 1.039-.219.288 0 .524.023.706.07.182.046.318.089.408.129l-.338 1.014c-.06-.02-.143-.045-.249-.075-.103-.029-.239-.044-.408-.044-.387 0-.668.097-.84.293-.169.196-.253.482-.253.86V174h-1.174Zm4.528 0v-7.636h1.173V174h-1.173Zm.597-8.909c-.229 0-.426-.078-.592-.234-.162-.156-.244-.343-.244-.562 0-.218.082-.406.244-.561.166-.156.363-.234.592-.234.228 0 .424.078.586.234.166.155.249.343.249.561 0 .219-.083.406-.249.562-.162.156-.358.234-.586.234Zm2.725-1.273h1.174v8.193c0 .372.041.632.124.781.083.149.254.22.512.214.139-.007.242-.017.308-.03.07-.017.133-.033.189-.05l.239 1.014c-.103.03-.232.057-.388.08-.156.026-.318.04-.487.04-.557 0-.975-.153-1.253-.458-.278-.305-.418-.729-.418-1.272v-8.512Zm10.763 10.341c-.736 0-1.371-.162-1.904-.487-.531-.328-.94-.786-1.228-1.372-.285-.59-.428-1.276-.428-2.059 0-.782.143-1.471.428-2.068.288-.6.689-1.067 1.203-1.402.517-.338 1.12-.507 1.809-.507.398 0 .791.066 1.179.199.387.133.74.348 1.059.646.318.295.571.686.76 1.174.189.487.284 1.087.284 1.799v.498h-5.887v-1.015h4.693c0-.431-.086-.815-.258-1.153-.169-.338-.411-.605-.726-.8-.312-.196-.679-.294-1.104-.294-.467 0-.871.116-1.213.348-.338.229-.598.527-.78.895-.183.368-.274.762-.274 1.183v.676c0 .577.1 1.066.299 1.467.202.398.482.701.84.91.358.205.774.308 1.248.308.308 0 .586-.043.835-.129.252-.09.469-.222.651-.398.182-.179.323-.401.423-.666l1.133.318c-.119.385-.32.723-.601 1.014-.282.289-.63.514-1.044.676-.415.16-.88.239-1.397.239Zm-275.0549 23c-.7159 0-1.3323-.169-1.8494-.507-.517-.338-.9148-.804-1.1932-1.397-.2784-.593-.4176-1.271-.4176-2.033 0-.776.1425-1.46.4276-2.054.2883-.596.6894-1.062 1.2031-1.397.517-.338 1.1203-.507 1.8096-.507.537 0 1.0209.1 1.4518.298.4308.199.7838.478 1.0589.836.2751.358.4458.775.5121 1.253h-1.1733c-.0895-.348-.2884-.657-.5966-.925-.3049-.272-.7159-.408-1.233-.408-.4573 0-.8584.119-1.2031.358-.3414.235-.6082.569-.8004.999-.1889.428-.2834.93-.2834 1.507 0 .59.0928 1.104.2784 1.541.1889.438.4541.777.7955 1.019.3447.242.749.363 1.213.363.305 0 .5817-.053.8303-.159.2486-.106.459-.258.6314-.457.1723-.199.295-.438.3679-.716h1.1733c-.0663.45-.2304.856-.4922 1.218-.2585.358-.6016.643-1.0291.855-.4243.209-.9181.313-1.4816.313Zm4.7181-.159v-7.636h1.1335v1.153h.0795c.1359-.378.3862-.684.7508-.92.3645-.235.7772-.353 1.2379-.353.2121 0 .3977.025.5568.075.1591.05.2983.118.4176.204l-.3977.994c-.0829-.043-.1806-.076-.2933-.099-.1094-.027-.237-.04-.3829-.04-.3712 0-.7026.078-.9943.234-.2883.155-.517.367-.686.636-.1658.268-.2486.575-.2486.92V197h-1.1733Zm5.373 0v-7.636h1.1733V197h-1.1733Zm.5966-8.909c-.2287 0-.4259-.078-.5916-.234-.1624-.156-.2436-.343-.2436-.562 0-.218.0812-.406.2436-.561.1657-.156.3629-.234.5916-.234.2287 0 .4243.078.5867.234.1657.155.2485.343.2485.561 0 .219-.0828.406-.2485.562-.1624.156-.358.234-.5867.234Zm5.6092 9.068c-.6364 0-1.1981-.161-1.6854-.482-.4872-.325-.8683-.782-1.1434-1.372-.2751-.594-.4127-1.295-.4127-2.103 0-.802.1376-1.498.4127-2.088.2751-.59.6579-1.046 1.1484-1.368.4905-.321 1.0573-.482 1.7003-.482.4972 0 .8899.083 1.1783.249.2916.162.5137.348.6662.557.1557.205.2767.374.3629.507h.0994v-1.213h1.1733V197h-1.1335v-1.173h-.1392c-.0862.139-.2088.315-.3679.527-.1591.208-.3861.396-.6811.561-.295.163-.6878.244-1.1783.244Zm.1591-1.054c.4706 0 .8684-.123 1.1932-.368.3248-.248.5717-.591.7408-1.029.169-.441.2535-.949.2535-1.526 0-.57-.0829-1.069-.2486-1.497-.1657-.431-.411-.765-.7358-1.004-.3248-.242-.7258-.363-1.2031-.363-.4972 0-.9115.128-1.2429.383-.3281.252-.575.595-.7408 1.029-.1624.431-.2436.915-.2436 1.452 0 .543.0829 1.037.2486 1.481.169.441.4176.792.7457 1.054.3315.259.7425.388 1.233.388Zm5.6527.895v-7.636h1.1335v1.193h.0995c.159-.408.4159-.724.7706-.95.3546-.228.7805-.343 1.2777-.343.5037 0 .923.115 1.2578.343.338.226.6015.542.7904.95h.0796c.1955-.395.4889-.708.88-.94.3911-.235.86-.353 1.4069-.353.6828 0 1.2413.214 1.6754.642.4342.424.6513 1.085.6513 1.983V197h-1.1733v-5.111c0-.563-.1541-.966-.4623-1.208-.3083-.242-.6712-.363-1.0888-.363-.5369 0-.9529.163-1.2479.487-.295.322-.4424.73-.4424 1.223V197h-1.1932v-5.23c0-.434-.1409-.784-.4226-1.049-.2817-.269-.6447-.403-1.0888-.403-.3049 0-.59.081-.8551.244-.2618.162-.474.388-.6364.676-.1591.285-.2386.615-.2386.989V197h-1.1733Zm20.918-3.122v-4.514h1.1733V197h-1.1733v-1.293h-.0796c-.179.388-.4574.718-.8352.99-.3778.268-.8551.402-1.4318.402-.4773 0-.9015-.104-1.2727-.313-.3713-.212-.6629-.53-.875-.954-.2122-.428-.3182-.966-.3182-1.616v-4.852h1.1733v4.772c0 .557.1557 1.001.4673 1.333.3149.331.7159.497 1.2031.497.2917 0 .5883-.075.8899-.224.305-.149.5602-.378.7657-.686.2088-.308.3132-.701.3132-1.178ZM87.525 197v-7.636h1.1336v1.193h.0994c.1591-.408.4159-.724.7706-.95.3546-.228.7805-.343 1.2777-.343.5038 0 .923.115 1.2578.343.3381.226.6016.542.7905.95h.0795c.1956-.395.4889-.708.88-.94.3911-.235.8601-.353 1.407-.353.6827 0 1.2412.214 1.6754.642.4342.424.6513 1.085.6513 1.983V197h-1.1733v-5.111c0-.563-.1542-.966-.4624-1.208s-.6712-.363-1.0888-.363c-.5369 0-.9529.163-1.2478.487-.295.322-.4425.73-.4425 1.223V197h-1.1932v-5.23c0-.434-.1409-.784-.4226-1.049-.2817-.269-.6446-.403-1.0888-.403-.3049 0-.5899.081-.8551.244-.2618.162-.4739.388-.6363.676-.1591.285-.2387.615-.2387.989V197H87.525Zm15.052.159c-.637 0-1.199-.161-1.686-.482-.487-.325-.868-.782-1.1433-1.372-.2751-.594-.4127-1.295-.4127-2.103 0-.802.1376-1.498.4127-2.088.2753-.59.6583-1.046 1.1483-1.368.491-.321 1.057-.482 1.7-.482.498 0 .89.083 1.179.249.291.162.513.348.666.557.156.205.277.374.363.507h.099v-1.213h1.174V197h-1.134v-1.173h-.139c-.086.139-.209.315-.368.527-.159.208-.386.396-.681.561-.295.163-.688.244-1.178.244Zm.159-1.054c.47 0 .868-.123 1.193-.368.325-.248.572-.591.741-1.029.169-.441.253-.949.253-1.526 0-.57-.083-1.069-.248-1.497-.166-.431-.411-.765-.736-1.004-.325-.242-.726-.363-1.203-.363-.498 0-.912.128-1.243.383-.328.252-.575.595-.741 1.029-.162.431-.244.915-.244 1.452 0 .543.083 1.037.249 1.481.169.441.418.792.746 1.054.331.259.742.388 1.233.388Zm12.792 1.054c-.736 0-1.371-.162-1.905-.487-.53-.328-.939-.786-1.228-1.372-.285-.59-.427-1.276-.427-2.059 0-.782.142-1.471.427-2.068.289-.6.69-1.067 1.204-1.402.517-.338 1.12-.507 1.809-.507.398 0 .791.066 1.178.199.388.133.741.348 1.059.646.319.295.572.686.761 1.174.189.487.283 1.087.283 1.799v.498h-5.886v-1.015h4.693c0-.431-.086-.815-.258-1.153-.169-.338-.411-.605-.726-.8-.312-.196-.68-.294-1.104-.294-.467 0-.871.116-1.213.348-.338.229-.598.527-.78.895-.183.368-.274.762-.274 1.183v.676c0 .577.1 1.066.298 1.467.203.398.483.701.841.91.358.205.774.308 1.248.308.308 0 .586-.043.835-.129.252-.09.469-.222.651-.398.182-.179.323-.401.423-.666l1.133.318c-.119.385-.32.723-.601 1.014-.282.289-.63.514-1.044.676-.415.16-.88.239-1.397.239Zm10.355-6.085-1.054.298c-.066-.176-.164-.346-.293-.512-.126-.169-.298-.308-.517-.418-.219-.109-.499-.164-.84-.164-.468 0-.857.108-1.169.324-.308.212-.462.482-.462.81 0 .292.106.522.318.691.212.169.544.31.995.423l1.133.278c.683.166 1.192.419 1.526.761.335.338.503.774.503 1.307 0 .438-.126.829-.378 1.173-.249.345-.597.617-1.044.816-.448.199-.968.298-1.561.298-.779 0-1.424-.169-1.934-.507-.511-.338-.834-.832-.97-1.482l1.114-.278c.106.411.306.719.601.925.299.205.688.308 1.169.308.547 0 .981-.116 1.302-.348.325-.235.487-.517.487-.845 0-.265-.092-.487-.278-.666-.186-.183-.471-.319-.855-.408l-1.273-.298c-.699-.166-1.213-.423-1.541-.771-.325-.351-.487-.79-.487-1.317 0-.431.121-.812.363-1.144.245-.331.578-.591.999-.78.424-.189.905-.284 1.442-.284.755 0 1.349.166 1.78.497.434.332.742.769.924 1.313Zm5.227-1.71v.994h-3.958v-.994h3.958Zm-2.804-1.83h1.173v7.278c0 .332.048.581.144.746.1.163.226.272.378.328.156.053.32.08.492.08.13 0 .236-.007.318-.02.083-.017.15-.03.199-.04l.239 1.054c-.08.03-.191.06-.333.09-.143.033-.323.049-.542.049-.332 0-.656-.071-.974-.213-.315-.143-.577-.36-.786-.652-.206-.291-.308-.659-.308-1.103v-7.597Zm4.569 9.466v-7.636h1.133v1.153h.08c.136-.378.386-.684.75-.92.365-.235.778-.353 1.238-.353.212 0 .398.025.557.075.159.05.298.118.418.204l-.398.994c-.083-.043-.181-.076-.293-.099-.11-.027-.237-.04-.383-.04-.371 0-.703.078-.994.234-.289.155-.517.367-.686.636-.166.268-.249.575-.249.92V197h-1.173Zm8.024.159c-.637 0-1.198-.161-1.686-.482-.487-.325-.868-.782-1.143-1.372-.275-.594-.413-1.295-.413-2.103 0-.802.138-1.498.413-2.088.275-.59.658-1.046 1.148-1.368.491-.321 1.058-.482 1.701-.482.497 0 .89.083 1.178.249.292.162.514.348.666.557.156.205.277.374.363.507h.099v-1.213h1.174V197h-1.134v-1.173h-.139c-.086.139-.209.315-.368.527-.159.208-.386.396-.681.561-.295.163-.688.244-1.178.244Zm.159-1.054c.471 0 .868-.123 1.193-.368.325-.248.572-.591.741-1.029.169-.441.253-.949.253-1.526 0-.57-.082-1.069-.248-1.497-.166-.431-.411-.765-.736-1.004-.325-.242-.726-.363-1.203-.363-.497 0-.912.128-1.243.383-.328.252-.575.595-.741 1.029-.162.431-.243.915-.243 1.452 0 .543.082 1.037.248 1.481.169.441.418.792.746 1.054.331.259.742.388 1.233.388Zm8.974-6.741v.994h-3.958v-.994h3.958Zm-2.804-1.83h1.173v7.278c0 .332.048.581.144.746.1.163.225.272.378.328.156.053.32.08.492.08.129 0 .235-.007.318-.02.083-.017.149-.03.199-.04l.239 1.054c-.08.03-.191.06-.333.09-.143.033-.323.049-.542.049-.332 0-.656-.071-.975-.213-.314-.143-.576-.36-.785-.652-.206-.291-.308-.659-.308-1.103v-7.597Zm7.688 9.625c-.736 0-1.37-.162-1.904-.487-.53-.328-.94-.786-1.228-1.372-.285-.59-.427-1.276-.427-2.059 0-.782.142-1.471.427-2.068.288-.6.689-1.067 1.203-1.402.517-.338 1.12-.507 1.81-.507.398 0 .79.066 1.178.199.388.133.741.348 1.059.646.318.295.572.686.761 1.174.189.487.283 1.087.283 1.799v.498h-5.886v-1.015h4.693c0-.431-.086-.815-.259-1.153-.169-.338-.411-.605-.725-.8-.312-.196-.68-.294-1.104-.294-.467 0-.872.116-1.213.348-.338.229-.598.527-.781.895-.182.368-.273.762-.273 1.183v.676c0 .577.099 1.066.298 1.467.202.398.482.701.84.91.358.205.774.308 1.248.308.308 0 .587-.043.835-.129.252-.09.469-.222.652-.398.182-.179.323-.401.422-.666l1.134.318c-.12.385-.32.723-.602 1.014-.281.289-.629.514-1.044.676-.414.16-.88.239-1.397.239Zm-.716-8.829 1.213-2.307h1.373l-1.552 2.307H154.2Zm8.745 11.693c-.566 0-1.054-.073-1.461-.219-.408-.143-.748-.331-1.02-.567-.268-.232-.482-.48-.641-.746l.935-.656c.106.139.24.299.403.477.162.183.384.34.666.473.285.136.658.204 1.118.204.617 0 1.126-.15 1.527-.448.401-.298.601-.765.601-1.402v-1.551h-.099c-.086.139-.209.312-.368.517-.156.202-.381.383-.676.542-.292.156-.686.234-1.184.234-.616 0-1.17-.146-1.66-.438-.487-.291-.873-.716-1.158-1.273-.282-.556-.423-1.233-.423-2.028 0-.782.138-1.463.413-2.043.275-.584.658-1.034 1.148-1.353.491-.321 1.057-.482 1.7-.482.497 0 .892.083 1.184.249.295.162.52.348.676.557.159.205.281.374.368.507h.119v-1.213h1.133v7.855c0 .656-.149 1.19-.447 1.601-.295.414-.693.717-1.193.909-.497.196-1.051.294-1.661.294Zm-.039-4.196c.47 0 .868-.108 1.193-.323.325-.216.571-.526.74-.93.17-.404.254-.888.254-1.452 0-.55-.083-1.036-.249-1.457-.165-.42-.411-.75-.735-.989-.325-.239-.726-.358-1.203-.358-.498 0-.912.126-1.243.378-.328.252-.575.59-.741 1.014-.163.424-.244.895-.244 1.412 0 .53.083.999.249 1.407.169.404.417.723.746.955.331.228.742.343 1.233.343Zm5.488 1.173v-7.636h1.173V197h-1.173Zm.597-8.909c-.229 0-.426-.078-.592-.234-.162-.156-.243-.343-.243-.562 0-.218.081-.406.243-.561.166-.156.363-.234.592-.234.228 0 .424.078.586.234.166.155.249.343.249.561 0 .219-.083.406-.249.562-.162.156-.358.234-.586.234Zm5.609 9.068c-.636 0-1.198-.161-1.685-.482-.488-.325-.869-.782-1.144-1.372-.275-.594-.413-1.295-.413-2.103 0-.802.138-1.498.413-2.088.275-.59.658-1.046 1.149-1.368.49-.321 1.057-.482 1.7-.482.497 0 .89.083 1.178.249.292.162.514.348.666.557.156.205.277.374.363.507h.1v-1.213h1.173V197h-1.134v-1.173h-.139c-.086.139-.209.315-.368.527-.159.208-.386.396-.681.561-.295.163-.688.244-1.178.244Zm.159-1.054c.471 0 .868-.123 1.193-.368.325-.248.572-.591.741-1.029.169-.441.254-.949.254-1.526 0-.57-.083-1.069-.249-1.497-.166-.431-.411-.765-.736-1.004-.325-.242-.726-.363-1.203-.363-.497 0-.911.128-1.243.383-.328.252-.575.595-.741 1.029-.162.431-.243.915-.243 1.452 0 .543.083 1.037.248 1.481.169.441.418.792.746 1.054.332.259.743.388 1.233.388Zm9.59 3.759v-10.5h1.134v1.213h.139c.086-.133.205-.302.358-.507.156-.209.378-.395.666-.557.292-.166.686-.249 1.183-.249.643 0 1.21.161 1.701.482.49.322.873.778 1.148 1.368.275.59.413 1.286.413 2.088 0 .808-.138 1.509-.413 2.103-.275.59-.656 1.047-1.143 1.372-.488.321-1.049.482-1.686.482-.49 0-.883-.081-1.178-.244-.295-.165-.522-.353-.681-.561-.159-.212-.282-.388-.368-.527h-.099v4.037h-1.174Zm1.154-6.682c0 .577.084 1.085.253 1.526.169.438.416.781.741 1.029.325.245.723.368 1.193.368.491 0 .9-.129 1.228-.388.332-.262.58-.613.746-1.054.169-.444.253-.938.253-1.481 0-.537-.082-1.021-.248-1.452-.163-.434-.409-.777-.741-1.029-.328-.255-.741-.383-1.238-.383-.477 0-.878.121-1.203.363-.325.239-.57.573-.736 1.004-.165.428-.248.927-.248 1.497Zm10.579 3.977c-.736 0-1.37-.162-1.904-.487-.53-.328-.94-.786-1.228-1.372-.285-.59-.427-1.276-.427-2.059 0-.782.142-1.471.427-2.068.288-.6.69-1.067 1.203-1.402.517-.338 1.12-.507 1.81-.507.398 0 .79.066 1.178.199.388.133.741.348 1.059.646.318.295.572.686.761 1.174.189.487.283 1.087.283 1.799v.498h-5.886v-1.015h4.693c0-.431-.086-.815-.259-1.153-.169-.338-.411-.605-.725-.8-.312-.196-.68-.294-1.104-.294-.467 0-.872.116-1.213.348-.338.229-.598.527-.781.895-.182.368-.273.762-.273 1.183v.676c0 .577.099 1.066.298 1.467.202.398.482.701.84.91.358.205.774.308 1.248.308.308 0 .587-.043.835-.129.252-.09.469-.222.652-.398.182-.179.323-.401.422-.666l1.134.318c-.119.385-.32.723-.602 1.014-.281.289-.629.514-1.044.676-.414.16-.88.239-1.397.239Zm4.947-.159v-7.636h1.133v1.153h.08c.136-.378.386-.684.751-.92.364-.235.777-.353 1.238-.353.212 0 .397.025.556.075.16.05.299.118.418.204l-.398.994c-.083-.043-.18-.076-.293-.099-.109-.027-.237-.04-.383-.04-.371 0-.702.078-.994.234-.288.155-.517.367-.686.636-.166.268-.249.575-.249.92V197h-1.173Zm10.782-5.926-1.054.298c-.066-.176-.164-.346-.293-.512-.126-.169-.299-.308-.517-.418-.219-.109-.499-.164-.84-.164-.468 0-.857.108-1.169.324-.308.212-.462.482-.462.81 0 .292.106.522.318.691.212.169.544.31.994.423l1.134.278c.683.166 1.191.419 1.526.761.335.338.502.774.502 1.307 0 .438-.126.829-.378 1.173-.248.345-.596.617-1.044.816-.447.199-.967.298-1.561.298-.779 0-1.423-.169-1.934-.507-.51-.338-.833-.832-.969-1.482l1.114-.278c.106.411.306.719.601.925.298.205.688.308 1.168.308.547 0 .982-.116 1.303-.348.325-.235.487-.517.487-.845 0-.265-.093-.487-.278-.666-.186-.183-.471-.319-.855-.408l-1.273-.298c-.699-.166-1.213-.423-1.541-.771-.325-.351-.487-.79-.487-1.317 0-.431.121-.812.362-1.144.246-.331.579-.591 1-.78.424-.189.905-.284 1.442-.284.755 0 1.348.166 1.779.497.435.332.743.769.925 1.313Zm5.008 6.085c-.69 0-1.295-.164-1.815-.492-.517-.328-.921-.787-1.213-1.377-.288-.59-.433-1.28-.433-2.068 0-.796.145-1.49.433-2.084.292-.593.696-1.053 1.213-1.382.52-.328 1.125-.492 1.815-.492.689 0 1.292.164 1.809.492.521.329.925.789 1.213 1.382.292.594.438 1.288.438 2.084 0 .788-.146 1.478-.438 2.068-.288.59-.692 1.049-1.213 1.377-.517.328-1.12.492-1.809.492Zm0-1.054c.523 0 .954-.134 1.292-.403.338-.268.589-.621.751-1.059.162-.437.244-.911.244-1.421 0-.511-.082-.986-.244-1.427-.162-.441-.413-.797-.751-1.069-.338-.272-.769-.408-1.292-.408-.524 0-.955.136-1.293.408-.338.272-.588.628-.751 1.069-.162.441-.243.916-.243 1.427 0 .51.081.984.243 1.421.163.438.413.791.751 1.059.338.269.769.403 1.293.403Zm6.424-3.699V197h-1.173v-7.636h1.133v1.193h.1c.179-.388.451-.7.815-.935.365-.238.835-.358 1.412-.358.517 0 .97.106 1.357.318.388.209.69.527.905.955.216.424.323.961.323 1.611V197h-1.173v-4.773c0-.6-.156-1.067-.467-1.402-.312-.338-.739-.507-1.283-.507-.374 0-.709.081-1.004.244-.292.162-.522.399-.691.711-.169.311-.254.689-.254 1.133Zm9.9 4.753c-.636 0-1.198-.161-1.685-.482-.488-.325-.869-.782-1.144-1.372-.275-.594-.413-1.295-.413-2.103 0-.802.138-1.498.413-2.088.275-.59.658-1.046 1.149-1.368.49-.321 1.057-.482 1.7-.482.497 0 .89.083 1.178.249.292.162.514.348.666.557.156.205.277.374.363.507h.1v-1.213h1.173V197h-1.134v-1.173h-.139c-.086.139-.209.315-.368.527-.159.208-.386.396-.681.561-.295.163-.688.244-1.178.244Zm.159-1.054c.471 0 .868-.123 1.193-.368.325-.248.572-.591.741-1.029.169-.441.254-.949.254-1.526 0-.57-.083-1.069-.249-1.497-.166-.431-.411-.765-.736-1.004-.325-.242-.726-.363-1.203-.363-.497 0-.911.128-1.243.383-.328.252-.575.595-.741 1.029-.162.431-.243.915-.243 1.452 0 .543.083 1.037.248 1.481.169.441.418.792.746 1.054.332.259.742.388 1.233.388Zm5.653-9.287h1.173v8.193c0 .372.041.632.124.781.083.149.254.22.512.214.14-.007.242-.017.309-.03.069-.017.132-.033.189-.05l.238 1.014c-.103.03-.232.057-.388.08-.155.026-.318.04-.487.04-.557 0-.974-.153-1.253-.458-.278-.305-.417-.729-.417-1.272v-8.512ZM242.578 197v-7.636h1.173V197h-1.173Zm.596-8.909c-.228 0-.426-.078-.591-.234-.163-.156-.244-.343-.244-.562 0-.218.081-.406.244-.561.165-.156.363-.234.591-.234.229 0 .425.078.587.234.166.155.249.343.249.561 0 .219-.083.406-.249.562-.162.156-.358.234-.587.234Zm2.507 8.909v-.895l4.336-5.568v-.08h-4.197v-1.093h5.708v.934l-4.216 5.529v.079h4.355V197h-5.986Zm10.458.159c-.636 0-1.198-.161-1.685-.482-.488-.325-.869-.782-1.144-1.372-.275-.594-.412-1.295-.412-2.103 0-.802.137-1.498.412-2.088.275-.59.658-1.046 1.149-1.368.49-.321 1.057-.482 1.7-.482.497 0 .89.083 1.178.249.292.162.514.348.666.557.156.205.277.374.363.507h.1v-1.213h1.173V197h-1.133v-1.173h-.14c-.086.139-.209.315-.368.527-.159.208-.386.396-.681.561-.295.163-.687.244-1.178.244Zm.159-1.054c.471 0 .868-.123 1.193-.368.325-.248.572-.591.741-1.029.169-.441.254-.949.254-1.526 0-.57-.083-1.069-.249-1.497-.166-.431-.411-.765-.736-1.004-.325-.242-.726-.363-1.203-.363-.497 0-.911.128-1.243.383-.328.252-.575.595-.741 1.029-.162.431-.243.915-.243 1.452 0 .543.083 1.037.248 1.481.169.441.418.792.746 1.054.332.259.743.388 1.233.388Zm8.536 1.054c-.636 0-1.198-.161-1.685-.482-.487-.325-.868-.782-1.143-1.372-.276-.594-.413-1.295-.413-2.103 0-.802.137-1.498.413-2.088.275-.59.657-1.046 1.148-1.368.49-.321 1.057-.482 1.7-.482.497 0 .89.083 1.178.249.292.162.514.348.667.557.155.205.276.374.363.507h.099v-3.759h1.173V197h-1.133v-1.173h-.139c-.087.139-.209.315-.368.527-.159.208-.386.396-.681.561-.295.163-.688.244-1.179.244Zm.159-1.054c.471 0 .869-.123 1.194-.368.324-.248.571-.591.74-1.029.169-.441.254-.949.254-1.526 0-.57-.083-1.069-.249-1.497-.165-.431-.411-.765-.735-1.004-.325-.242-.726-.363-1.204-.363-.497 0-.911.128-1.242.383-.329.252-.576.595-.741 1.029-.163.431-.244.915-.244 1.452 0 .543.083 1.037.249 1.481.169.441.417.792.745 1.054.332.259.743.388 1.233.388Zm8.537 1.054c-.637 0-1.199-.161-1.686-.482-.487-.325-.868-.782-1.143-1.372-.275-.594-.413-1.295-.413-2.103 0-.802.138-1.498.413-2.088.275-.59.658-1.046 1.148-1.368.491-.321 1.058-.482 1.701-.482.497 0 .889.083 1.178.249.291.162.514.348.666.557.156.205.277.374.363.507h.099v-1.213h1.174V197h-1.134v-1.173h-.139c-.086.139-.209.315-.368.527-.159.208-.386.396-.681.561-.295.163-.688.244-1.178.244Zm.159-1.054c.47 0 .868-.123 1.193-.368.325-.248.572-.591.741-1.029.169-.441.253-.949.253-1.526 0-.57-.083-1.069-.248-1.497-.166-.431-.411-.765-.736-1.004-.325-.242-.726-.363-1.203-.363-.497 0-.912.128-1.243.383-.328.252-.575.595-.741 1.029-.162.431-.244.915-.244 1.452 0 .543.083 1.037.249 1.481.169.441.418.792.746 1.054.331.259.742.388 1.233.388Zm6.508.975c-.246 0-.456-.088-.632-.264-.175-.176-.263-.386-.263-.631 0-.246.088-.456.263-.632.176-.175.386-.263.632-.263.245 0 .455.088.631.263.176.176.263.386.263.632 0 .162-.041.311-.124.447-.079.136-.187.245-.323.328-.133.08-.282.12-.447.12Z"/><path fill="#16192C" d="M39.642 152h-2.25l4.0966-11.636h2.6023L48.1932 152h-2.25l-3.108-9.25h-.0909L39.642 152Zm.0739-4.562h6.1364v1.693h-6.1364v-1.693Zm11.9759-.552V152h-2.0569v-8.727h1.966v1.483h.1022c.2008-.489.5209-.877.9603-1.165.4431-.288.9905-.432 1.642-.432.6023 0 1.1269.129 1.5739.386.4507.258.7992.631 1.0454 1.12.25.488.3731 1.081.3693 1.778V152h-2.0568v-5.239c0-.583-.1515-1.039-.4545-1.369-.2993-.33-.714-.494-1.2443-.494-.3599 0-.68.079-.9603.238-.2765.156-.4943.381-.6534.676-.1553.296-.2329.654-.2329 1.074Zm10.2045 5.29c-.553 0-1.0511-.098-1.4943-.295-.4394-.201-.7879-.497-1.0455-.887-.2538-.39-.3806-.871-.3806-1.443 0-.492.0909-.899.2727-1.221.1818-.322.4299-.58.7443-.773.3144-.193.6686-.339 1.0625-.438.3977-.102.8087-.176 1.233-.221.5113-.053.9261-.101 1.2443-.142.3182-.046.5492-.114.6932-.205.1477-.095.2215-.24.2215-.437v-.034c0-.428-.1269-.76-.3806-.995-.2538-.235-.6194-.352-1.0966-.352-.5038 0-.9034.11-1.1989.329-.2917.22-.4886.48-.5909.779l-1.9205-.273c.1516-.53.4016-.973.75-1.329.3485-.36.7747-.629 1.2785-.807.5037-.182 1.0606-.273 1.6704-.273.4205 0 .839.049 1.2557.148.4167.098.7973.261 1.142.488.3447.224.6212.529.8296.915.2121.387.3182.87.3182 1.449V152H64.527v-1.199h-.0682c-.125.243-.3011.47-.5284.682-.2235.208-.5057.377-.8466.506-.3371.125-.7329.187-1.1875.187Zm.5341-1.511c.4129 0 .7708-.082 1.0739-.245.303-.166.5359-.386.6988-.659.1667-.272.25-.57.25-.892v-1.028c-.0644.053-.1742.102-.3295.148-.1515.045-.322.085-.5114.119-.1894.034-.3769.064-.5625.091-.1856.026-.3466.049-.4829.068-.3069.042-.5815.11-.8239.205-.2424.094-.4337.227-.5739.397-.1401.167-.2102.383-.2102.648 0 .379.1383.665.4148.858.2765.193.6288.29 1.0568.29Zm-.1705-8.54 1.2728-2.597h2.0113l-1.7443 2.597h-1.5398Zm8.3694-1.761V152h-2.0569v-11.636h2.0569ZM72.7443 152v-8.727h2.0568V152h-2.0568Zm1.0341-9.966c-.3257 0-.6061-.108-.8409-.324-.2348-.219-.3523-.483-.3523-.79 0-.31.1175-.573.3523-.789.2348-.22.5152-.33.8409-.33.3296 0 .6099.11.8409.33.2349.216.3523.479.3523.789 0 .307-.1174.571-.3523.79-.231.216-.5113.324-.8409.324Zm10.0355 3.546-1.875.204c-.053-.189-.1458-.367-.2784-.534-.1288-.167-.303-.301-.5227-.403-.2197-.103-.4887-.154-.8068-.154-.4281 0-.7879.093-1.0796.279-.2879.185-.4299.426-.4261.721-.0038.254.089.46.2784.619.1932.16.5114.29.9545.393l1.4887.318c.8257.178 1.4394.46 1.8409.846.4053.387.6098.892.6136 1.517-.0038.55-.1648 1.034-.4829 1.455-.3144.417-.7519.742-1.3125.977s-1.2046.352-1.9319.352c-1.0681 0-1.928-.223-2.5795-.67-.6515-.451-1.0398-1.078-1.1648-1.881l2.0057-.193c.0909.394.2841.691.5796.892.2954.201.6799.301 1.1534.301.4886 0 .8806-.1 1.1761-.301.2992-.201.4489-.449.4489-.744 0-.25-.0966-.457-.2898-.619-.1894-.163-.4849-.288-.8864-.375l-1.4886-.313c-.8371-.174-1.4564-.468-1.858-.881-.4015-.416-.6003-.943-.5966-1.579-.0037-.538.1421-1.004.4375-1.398.2993-.398.7141-.704 1.2444-.92.5341-.22 1.1496-.33 1.8466-.33 1.0227 0 1.8276.218 2.4147.653.5909.436.9565 1.025 1.0966 1.768Zm5.7472 6.59c-.875 0-1.6307-.181-2.2671-.545-.6325-.367-1.1193-.886-1.4602-1.557-.3409-.674-.5114-1.468-.5114-2.38 0-.898.1705-1.686.5114-2.364.3447-.682.8258-1.212 1.4432-1.591.6174-.383 1.3428-.574 2.1761-.574.5379 0 1.0455.087 1.5228.261.481.171.9053.436 1.2727.796.3712.36.6629.818.875 1.375.2121.553.3182 1.212.3182 1.977v.631h-7.1534v-1.387h5.1818c-.0038-.393-.089-.744-.2557-1.051-.1667-.31-.3996-.555-.6989-.733-.2954-.178-.6401-.267-1.0341-.267-.4204 0-.7897.103-1.1079.307-.3182.201-.5663.466-.7443.796-.1743.325-.2633.683-.2671 1.074v1.21c0 .507.0928.943.2784 1.307.1856.359.4451.636.7784.829.3334.189.7235.284 1.1705.284.2992 0 .5701-.041.8125-.125.2424-.087.4526-.214.6307-.381.178-.166.3125-.373.4034-.619l1.9204.216c-.1212.508-.3522.951-.6931 1.33-.3372.375-.769.666-1.2955.875-.5265.204-1.1288.306-1.8068.306Zm13.4529 0c-.875 0-1.63-.181-2.267-.545-.632-.367-1.1192-.886-1.4601-1.557-.3409-.674-.5113-1.468-.5113-2.38 0-.898.1704-1.686.5113-2.364.3447-.682.8261-1.212 1.4431-1.591.618-.383 1.343-.574 2.176-.574.538 0 1.046.087 1.523.261.481.171.905.436 1.273.796.371.36.663.818.875 1.375.212.553.318 1.212.318 1.977v.631h-7.1535v-1.387h5.1815c-.003-.393-.089-.744-.255-1.051-.167-.31-.4-.555-.699-.733-.296-.178-.64-.267-1.034-.267-.421 0-.79.103-1.108.307-.318.201-.567.466-.745.796-.174.325-.263.683-.267 1.074v1.21c0 .507.093.943.279 1.307.185.359.445.636.778.829.333.189.724.284 1.171.284.299 0 .57-.041.812-.125.243-.087.453-.214.631-.381.178-.166.312-.373.403-.619l1.921.216c-.122.508-.353.951-.694 1.33-.337.375-.768.666-1.295.875-.526.204-1.129.306-1.807.306Zm9.59 3.103v-12h2.022v1.443h.12c.106-.212.255-.438.449-.676.193-.243.454-.449.784-.62.329-.174.75-.261 1.261-.261.674 0 1.282.172 1.824.517.545.341.977.847 1.295 1.517.322.667.483 1.485.483 2.455 0 .958-.157 1.772-.471 2.443-.315.67-.743 1.182-1.284 1.534-.542.352-1.156.528-1.841.528-.5 0-.915-.083-1.245-.25-.329-.166-.594-.367-.795-.602-.197-.239-.35-.464-.46-.676h-.085v4.648h-2.057Zm2.017-7.637c0 .565.079 1.059.238 1.483.163.425.396.756.699.995.307.234.678.352 1.114.352.454 0 .835-.121 1.142-.364.307-.246.538-.581.693-1.005.159-.428.239-.915.239-1.461 0-.541-.078-1.022-.233-1.443-.156-.42-.387-.75-.693-.988-.307-.239-.69-.358-1.148-.358-.44 0-.813.115-1.119.346-.307.231-.54.555-.699.972-.156.416-.233.907-.233 1.471Zm10.04-7.272V152h-2.057v-11.636h2.057Zm4.626 11.812c-.553 0-1.051-.098-1.494-.295-.44-.201-.788-.497-1.046-.887-.254-.39-.381-.871-.381-1.443 0-.492.091-.899.273-1.221.182-.322.43-.58.745-.773.314-.193.668-.339 1.062-.438.398-.102.809-.176 1.233-.221.511-.053.926-.101 1.244-.142.318-.046.55-.114.693-.205.148-.095.222-.24.222-.437v-.034c0-.428-.127-.76-.381-.995-.253-.235-.619-.352-1.096-.352-.504 0-.904.11-1.199.329-.292.22-.489.48-.591.779l-1.92-.273c.151-.53.401-.973.75-1.329.348-.36.774-.629 1.278-.807.504-.182 1.061-.273 1.67-.273.421 0 .839.049 1.256.148.417.098.797.261 1.142.488.345.224.621.529.83.915.212.387.318.87.318 1.449V152h-1.977v-1.199h-.069c-.125.243-.301.47-.528.682-.223.208-.506.377-.847.506-.337.125-.733.187-1.187.187Zm.534-1.511c.413 0 .771-.082 1.074-.245.303-.166.536-.386.699-.659.166-.272.25-.57.25-.892v-1.028c-.065.053-.174.102-.33.148-.151.045-.322.085-.511.119-.19.034-.377.064-.563.091-.185.026-.346.049-.483.068-.306.042-.581.11-.823.205-.243.094-.434.227-.574.397-.14.167-.211.383-.211.648 0 .379.139.665.415.858.277.193.629.29 1.057.29Zm8.199-3.779V152h-2.057v-8.727h1.966v1.483h.102c.201-.489.521-.877.96-1.165.444-.288.991-.432 1.643-.432.602 0 1.126.129 1.573.386.451.258.8.631 1.046 1.12.25.488.373 1.081.369 1.778V152h-2.057v-5.239c0-.583-.151-1.039-.454-1.369-.299-.33-.714-.494-1.245-.494-.359 0-.679.079-.96.238-.276.156-.494.381-.653.676-.155.296-.233.654-.233 1.074Zm11.557 5.284c-.875 0-1.631-.181-2.267-.545-.633-.367-1.12-.886-1.461-1.557-.34-.674-.511-1.468-.511-2.38 0-.898.171-1.686.511-2.364.345-.682.826-1.212 1.444-1.591.617-.383 1.342-.574 2.176-.574.538 0 1.045.087 1.522.261.482.171.906.436 1.273.796.371.36.663.818.875 1.375.212.553.318 1.212.318 1.977v.631h-7.153v-1.387h5.182c-.004-.393-.089-.744-.256-1.051-.167-.31-.4-.555-.699-.733-.295-.178-.64-.267-1.034-.267-.42 0-.79.103-1.108.307-.318.201-.566.466-.744.796-.174.325-.263.683-.267 1.074v1.21c0 .507.093.943.278 1.307.186.359.445.636.779.829.333.189.723.284 1.17.284.299 0 .57-.041.813-.125.242-.087.452-.214.63-.381.178-.166.313-.373.404-.619l1.92.216c-.121.508-.352.951-.693 1.33-.337.375-.769.666-1.295.875-.527.204-1.129.306-1.807.306Zm5.62-8.897h2.057v9.227c0 .629-.119 1.148-.358 1.557-.238.409-.583.714-1.034.915-.451.2-.998.301-1.642.301-.076 0-.146-.002-.21-.006-.064 0-.135-.002-.21-.006v-1.676c.057.004.108.006.153.006.046.004.093.006.142.006.394 0 .676-.097.847-.29.17-.19.255-.468.255-.835v-9.199Zm1.023-1.239c-.329 0-.612-.108-.846-.324-.231-.219-.347-.483-.347-.79 0-.31.116-.573.347-.789.234-.22.517-.33.846-.33.326 0 .604.11.835.33.235.216.353.479.353.789 0 .307-.118.571-.353.79-.231.216-.509.324-.835.324Zm5.661 10.142c-.553 0-1.051-.098-1.495-.295-.439-.201-.788-.497-1.045-.887-.254-.39-.381-.871-.381-1.443 0-.492.091-.899.273-1.221.182-.322.43-.58.744-.773.315-.193.669-.339 1.063-.438.398-.102.808-.176 1.233-.221.511-.053.926-.101 1.244-.142.318-.046.549-.114.693-.205.148-.095.222-.24.222-.437v-.034c0-.428-.127-.76-.381-.995s-.619-.352-1.096-.352c-.504 0-.904.11-1.199.329-.292.22-.489.48-.591.779l-1.921-.273c.152-.53.402-.973.75-1.329.349-.36.775-.629 1.279-.807.504-.182 1.06-.273 1.67-.273.421 0 .839.049 1.256.148.417.098.797.261 1.142.488.345.224.621.529.829.915.213.387.319.87.319 1.449V152h-1.978v-1.199h-.068c-.125.243-.301.47-.528.682-.224.208-.506.377-.847.506-.337.125-.733.187-1.187.187Zm.534-1.511c.413 0 .771-.082 1.074-.245.303-.166.536-.386.699-.659.166-.272.25-.57.25-.892v-1.028c-.065.053-.175.102-.33.148-.152.045-.322.085-.511.119-.19.034-.377.064-.563.091-.186.026-.346.049-.483.068-.307.042-.581.11-.824.205-.242.094-.433.227-.574.397-.14.167-.21.383-.21.648 0 .379.138.665.415.858.276.193.629.29 1.057.29Zm6.142 1.335v-8.727h1.966v1.483h.102c.182-.5.483-.89.903-1.171.421-.284.923-.426 1.506-.426.591 0 1.089.144 1.494.432.41.284.697.672.864 1.165h.091c.193-.485.519-.872.977-1.159.462-.292 1.01-.438 1.642-.438.803 0 1.459.254 1.966.761.508.508.762 1.249.762 2.222V152h-2.063v-5.54c0-.541-.144-.937-.432-1.187-.288-.254-.64-.381-1.057-.381-.496 0-.884.155-1.164.466-.277.307-.415.706-.415 1.199V152h-2.017v-5.625c0-.451-.137-.811-.409-1.08-.269-.268-.621-.403-1.057-.403-.296 0-.564.076-.807.227-.242.148-.436.358-.579.631-.144.269-.216.583-.216.943V152h-2.057Zm18.223.17c-.875 0-1.631-.181-2.267-.545-.633-.367-1.12-.886-1.46-1.557-.341-.674-.512-1.468-.512-2.38 0-.898.171-1.686.512-2.364.344-.682.825-1.212 1.443-1.591.617-.383 1.343-.574 2.176-.574.538 0 1.045.087 1.523.261.481.171.905.436 1.272.796.372.36.663.818.875 1.375.212.553.319 1.212.319 1.977v.631h-7.154v-1.387h5.182c-.004-.393-.089-.744-.256-1.051-.166-.31-.399-.555-.699-.733-.295-.178-.64-.267-1.034-.267-.42 0-.789.103-1.108.307-.318.201-.566.466-.744.796-.174.325-.263.683-.267 1.074v1.21c0 .507.093.943.278 1.307.186.359.445.636.779.829.333.189.723.284 1.17.284.299 0 .57-.041.813-.125.242-.087.452-.214.63-.381.178-.166.313-.373.404-.619l1.92.216c-.121.508-.352.951-.693 1.33-.337.375-.769.666-1.295.875-.527.204-1.129.306-1.807.306Zm7.677-5.284V152h-2.056v-8.727h1.965v1.483h.103c.201-.489.521-.877.96-1.165.443-.288.991-.432 1.642-.432.602 0 1.127.129 1.574.386.451.258.799.631 1.045 1.12.25.488.373 1.081.37 1.778V152h-2.057v-5.239c0-.583-.152-1.039-.455-1.369-.299-.33-.714-.494-1.244-.494-.36 0-.68.079-.96.238-.277.156-.495.381-.654.676-.155.296-.233.654-.233 1.074Zm12.052-3.613v1.591h-5.018v-1.591h5.018Zm-3.779-2.091h2.057v8.193c0 .277.042.489.125.636.087.144.201.243.341.296.14.053.295.079.466.079.129 0 .246-.009.352-.028.11-.019.193-.036.25-.051l.347 1.608c-.11.038-.267.079-.472.125-.201.045-.447.072-.739.079-.515.015-.979-.062-1.392-.233-.413-.174-.74-.443-.983-.806-.238-.364-.356-.819-.352-1.364v-8.534Zm9.212 10.988c-.853 0-1.591-.187-2.216-.562-.625-.375-1.11-.9-1.455-1.574-.341-.674-.511-1.462-.511-2.364 0-.901.17-1.691.511-2.369.345-.678.83-1.204 1.455-1.579.625-.375 1.363-.563 2.216-.563.852 0 1.591.188 2.216.563.625.375 1.108.901 1.449 1.579.344.678.517 1.468.517 2.369 0 .902-.173 1.69-.517 2.364-.341.674-.824 1.199-1.449 1.574-.625.375-1.364.562-2.216.562Zm.011-1.647c.462 0 .849-.127 1.159-.381.311-.258.542-.602.693-1.034.156-.432.233-.913.233-1.443 0-.534-.077-1.017-.233-1.449-.151-.436-.382-.782-.693-1.04-.31-.257-.697-.386-1.159-.386-.473 0-.867.129-1.182.386-.31.258-.543.604-.699 1.04-.151.432-.227.915-.227 1.449 0 .53.076 1.011.227 1.443.156.432.389.776.699 1.034.315.254.709.381 1.182.381Z"/><path fill="#fff" stroke="#262525" stroke-linecap="round" stroke-linejoin="round" stroke-width=".63" d="m147.251 489.088-11.592-13.212 37.726-29.545 12.72 14.493-38.854 28.264Z"/><path fill="#262525" d="m166.611 475.009 19.494-14.185-12.72-14.493-24.602 19.263 17.828 9.415ZM88.4658 500.08l-.006 3.807c-.0015.947.7653 1.716 1.7126 1.718l78.5556.123c.947.002 1.717-.765 1.718-1.712l.006-3.807c.001-.947-.765-1.716-1.713-1.718l-78.5552-.123c-.9474-.002-1.7165.765-1.718 1.712Z"/><path fill="#fff" stroke="#262525" stroke-linecap="round" stroke-linejoin="round" stroke-width=".63" d="m168.789 498.473-78.6236-.125c.0096-6.408 4.24-11.814 10.0506-13.616l36.377-15.418c0-1.735 1.417-3.142 3.151-3.142h1.908c1.735 0 3.142 1.417 3.142 3.151v8.374c0 1.099.877 1.985 1.975 1.985h8.133c1.089.01 1.986-.867 1.986-1.965v-.077c0-.964.78-1.735 1.744-1.745l4.991-.019c.858 0 1.59.617 1.735 1.465l3.45 21.113-.019.019Z"/><path stroke="#262525" stroke-linecap="round" stroke-linejoin="round" stroke-width=".63" d="m109.93 488.827 32.416-13.731M101.054 484.375c6.63.511 11.844 6.052 11.834 12.817 0 .404-.019.8-.058 1.185M153.361 496.874c.443-5.753 5.252-10.282 11.12-10.273.347 0 .694.02 1.031.049"/><path fill="#D9B43B" d="M316.919 505.614c9.858-6.543 12.547-19.841 6.003-29.699-.115-.174-.231-.347-.347-.511l-59.909-85.552c-5.743-8.653-17.403-11.005-26.057-5.271-8.653 5.743-11.004 17.403-5.271 26.057l55.525 88.452c.116.174.231.347.347.521 6.543 9.858 19.841 12.546 29.699 6.003h.01Z"/><path stroke="#262525" stroke-linecap="round" stroke-linejoin="round" stroke-width=".63" d="m241.707 427.154 45.156 71.926c.116.174.231.347.347.521 6.543 9.858 19.841 12.546 29.699 6.003 9.858-6.543 12.547-19.841 6.004-29.699-.116-.174-.231-.347-.347-.511l-59.909-85.552c-5.744-8.653-17.404-11.004-26.057-5.271"/><path fill="#D9B43B" d="M261.914 388.966c-6.225-8.307-18.01-9.984-26.316-3.759-.434.328-.839.665-1.234 1.022l-84.058 70.085 19.783 22.54 88.067-63.571c8.307-6.226 9.984-18.011 3.758-26.317Z"/><path stroke="#262525" stroke-linecap="round" stroke-linejoin="round" stroke-width=".63" d="m250.621 420.717-8.914 6.438-71.618 51.699-19.783-22.54 84.058-70.085c.395-.357.8-.694 1.234-1.022 8.306-6.225 20.082-4.548 26.316 3.759l2.679 3.652M158.189 453.568l15.456 17.605M173.645 466.673l63.61-46.621"/><path fill="#D9B43B" stroke="#262525" stroke-linecap="round" stroke-linejoin="round" stroke-width=".63" d="M323.925 512.292c16.854 0 30.518-13.664 30.518-30.518 0-16.855-13.664-30.519-30.518-30.519-16.855 0-30.519 13.664-30.519 30.519 0 16.854 13.664 30.518 30.519 30.518Z"/><path fill="#fff" stroke="#262525" stroke-linecap="round" stroke-linejoin="round" stroke-width=".63" d="m82.4563 505.18-1.4166-17.519 47.9023-1.175 1.552 19.224-48.0377-.53Z"/><path fill="#262525" d="m106.383 505.441 24.111.269-1.552-19.224-31.2313.761 8.6723 18.194Z"/><path fill="#fff" stroke="#262525" stroke-linecap="round" stroke-linejoin="round" stroke-width=".63" d="m63.3125 513.074 3.8649-78.461c.0466-.946-.6827-1.751-1.6289-1.797l-3.8017-.188c-.9462-.046-1.751.683-1.7976 1.629l-3.8648 78.461c-.0466.946.6826 1.751 1.6288 1.797l3.8017.188c.9462.046 1.751-.683 1.7976-1.629Z"/><path fill="#fff" stroke="#262525" stroke-linecap="round" stroke-linejoin="round" stroke-width=".63" d="m63.2606 513.111 3.8738-78.527c6.3986.318 11.6022 4.799 13.1151 10.687l13.6644 37.071c1.7346.087 3.074 1.561 2.9873 3.296l-.0675.983c-.0771 1.031-.954 1.811-1.9851 1.763l-9.3087-.453c-1.2816-.058-2.3705.925-2.4284 2.207l-.4433 9.993c-.0578 1.089.7902 2.023 1.8791 2.081h.0772c.9636.058 1.6959.868 1.6574 1.831l-.2216 4.982c-.0386.858-.6938 1.561-1.5515 1.658l-21.2578 2.438.0096-.01Z"/><path stroke="#262525" stroke-linecap="round" stroke-linejoin="round" stroke-width=".63" d="m75.7012 454.772 10.0796 27.348M80.5772 446.129c-.8287 6.601-6.6106 11.544-13.3657 11.207-.4047-.02-.7998-.058-1.1852-.116M65.5926 497.78c5.724.713 10.0218 5.733 9.7327 11.592-.0192.347-.0481.694-.0963 1.031"/><path fill="#D9B43B" d="M215.352 474.594c-.54 0-1.07.029-1.6.077l-109.277 6.033v29.901l111.011 1.581"/><path stroke="#262525" stroke-linecap="round" stroke-linejoin="round" stroke-width=".63" d="M215.352 474.594c-.54 0-1.07.029-1.6.077l-109.277 6.033v29.901l111.011 1.581M111.818 483.132v24.727M115.721 502.029h99.631"/><path fill="#D9B43B" d="M344.778 490.369c-.27-11.833-10.08-21.2-21.913-20.93-.212 0-.415.01-.617.019l-104.324 5.011c-10.378.241-18.598 8.846-18.357 19.225.241 10.378 8.846 18.598 19.225 18.357l104.429.241c.212 0 .424 0 .626-.01 11.834-.269 21.2-10.079 20.931-21.913Z"/><path stroke="#262525" stroke-linecap="round" stroke-linejoin="round" stroke-width=".63" d="M322.865 469.439c-.212 0-.415.01-.617.019l-111.917 5.406M215.496 512.186l107.725.106c.212 0 3.074 0 3.286-.01 0 0 3.72-.289 6.562-1.378M225.46 502.029h99.197s19.861-.925 19.861-14.551M200.078 502.029h15.418"/><path fill="#fff" stroke="#262525" stroke-linecap="round" stroke-linejoin="round" stroke-width=".63" d="M298.61 447.439c-6.987-.655-12.113-6.842-11.467-13.818l5.656-60.652c.655-6.986 6.842-12.113 13.819-11.467 6.986.655 12.113 6.842 11.467 13.818l-5.657 60.652c-.655 6.986-6.841 12.113-13.818 11.467Z"/><path fill="#fff" d="m225.373 461.691-4.635-24.968 76.879-14.271c6.9-1.282 13.52 3.276 14.802 10.166 1.282 6.9-3.276 13.52-10.166 14.802l-76.88 14.271Z"/><path stroke="#262525" stroke-linecap="round" stroke-linejoin="round" stroke-width=".63" d="M313.026 429.593s-.453 4.047-.424 4.558c.395 6.321-3.98 12.084-10.359 13.269l-76.879 14.271-4.635-24.968 67.29-12.488"/><path fill="#fff" d="m205.744 446.774-4.693 5.927-11.024-8.721c-1.638-1.292-1.917-3.672-.617-5.31 1.292-1.638 3.672-1.918 5.31-.617l11.024 8.721ZM210.437 440.848l-4.693 5.926-16.102-12.749c-1.639-1.291-1.918-3.671-.617-5.309 1.291-1.639 3.671-1.918 5.31-.617l16.102 12.749Z"/><path fill="#fff" d="m215.13 434.921-4.693 5.927-18.367-14.542c-1.638-1.291-1.918-3.671-.617-5.309 1.292-1.638 3.672-1.918 5.31-.617l18.367 14.541Z"/><path fill="#fff" d="m219.823 428.995-4.693 5.926-16.102-12.748c-1.639-1.292-1.918-3.672-.617-5.31 1.291-1.638 3.671-1.918 5.309-.617l16.103 12.749ZM232.851 429.66l-4.693 5.926-13.712-10.86c-1.638-1.291-1.918-3.671-.617-5.31 1.291-1.638 3.671-1.917 5.31-.616l13.712 10.86Z"/><path fill="#fff" d="m201.025 452.652 23.466-29.65 10.315 8.163c6.082 4.814 7.113 13.667 2.299 19.75l-6.01 7.593c-4.815 6.083-13.668 7.114-19.75 2.3l-10.314-8.164-.006.008Z"/><path stroke="#262525" stroke-linecap="round" stroke-linejoin="round" stroke-width=".63" d="m203.431 454.599-13.404-10.61c-1.638-1.291-1.917-3.671-.617-5.309 1.292-1.639 3.672-1.918 5.31-.617l11.024 8.721M205.744 446.774l-16.102-12.749c-1.639-1.291-1.918-3.671-.617-5.309 1.291-1.639 3.671-1.918 5.31-.617l16.102 12.749"/><path stroke="#262525" stroke-linecap="round" stroke-linejoin="round" stroke-width=".63" d="m210.437 440.848-18.367-14.542c-1.638-1.291-1.918-3.671-.617-5.309 1.292-1.638 3.672-1.918 5.31-.617l18.367 14.541"/><path stroke="#262525" stroke-linecap="round" stroke-linejoin="round" stroke-width=".63" d="m215.13 434.921-16.102-12.748c-1.639-1.292-1.918-3.672-.617-5.31 1.291-1.638 3.671-1.918 5.309-.617l18.483 14.628"/><path stroke="#262525" stroke-linecap="round" stroke-linejoin="round" stroke-width=".63" d="m225.653 433.611-11.207-8.875c-1.638-1.292-1.918-3.672-.617-5.31 1.291-1.638 3.671-1.918 5.31-.617l13.712 10.861"/><path stroke="#262525" stroke-linecap="round" stroke-linejoin="round" stroke-width=".63" d="m226.896 424.948 7.931 6.273c6.09 4.818 7.121 13.665 2.303 19.755l-6.013 7.593c-4.819 6.09-13.665 7.122-19.755 2.303l-7.931-6.273"/><path fill="#262525" d="m321.043 418.193-35.78-2.303 6.727-45.484c1.06-7.169 7.439-12.325 14.666-11.862 7.17.462 12.817 6.302 13.029 13.491l1.358 46.148v.01Z"/><path fill="#fff" stroke="#262525" stroke-linecap="round" stroke-linejoin="round" stroke-width=".63" d="M326.353 326.05h-6.533c-2.959 0-5.358 2.399-5.358 5.358v23.667c0 2.959 2.399 5.358 5.358 5.358h6.533c2.959 0 5.358-2.399 5.358-5.358v-23.667c0-2.959-2.399-5.358-5.358-5.358Z"/><path fill="#262525" d="M328.136 334.665v-8.317c-.559-.192-1.157-.308-1.783-.308h-6.543c-2.959 0-5.358 2.399-5.358 5.358v19.196c7.892 0 13.684-7.266 13.684-15.929Z"/><path fill="#fff" stroke="#262525" stroke-linecap="round" stroke-linejoin="round" stroke-width=".63" d="M313.286 346.18c-6.514.53-12.228-4.327-12.758-10.841l-1.841-22.713c-.694-8.518 5.647-15.977 14.165-16.671 8.519-.694 15.978 5.647 16.671 14.166l1.253 15.476c.858 10.513-6.977 19.725-17.49 20.583Z"/><path stroke="#262525" stroke-linecap="round" stroke-linejoin="round" stroke-width=".63" d="M313.209 322.465s1.84-3.845 7.738-1.706"/><path fill="#262525" d="M318.008 321.338c.077.954-.472 1.088-1.157 1.146-.684.058-1.252.01-1.329-.944-.106-1.272.453-1.32 1.146-1.368.685-.058 1.243-.087 1.349 1.166h-.009Z"/><path stroke="#262525" stroke-linecap="round" stroke-linejoin="round" stroke-width=".63" d="M306.868 322.976s-2.428-3.508-7.911-.434"/><path fill="#262525" d="M301.944 322.638c.077.954.646.993 1.33.945.684-.058 1.233-.193 1.156-1.147-.106-1.272-.665-1.224-1.349-1.166-.684.058-1.243.116-1.147 1.368h.01Z"/><path fill="#fff" d="M309.104 320.451s-1.234 6.244-1.513 10.022c-.039.482.337.886.809.906.877.029 3.556-.309 3.556-.309"/><path stroke="#262525" stroke-linecap="round" stroke-linejoin="round" stroke-width=".63" d="M309.104 320.451s-1.234 6.244-1.513 10.022c-.039.482.337.886.809.906.877.029 3.556-.309 3.556-.309"/><path fill="#262525" d="m317.911 315.691-3.353-.694c-.453-.097-.752-.54-.655-1.002.096-.453.539-.752 1.002-.656l3.353.694c.453.097.752.54.656 1.002-.097.453-.54.752-1.003.656ZM305.086 315.681l-3.132 1.378c-.424.193-.925 0-1.118-.434-.193-.424 0-.925.433-1.117l3.132-1.379c.424-.192.925 0 1.118.434.193.424 0 .925-.433 1.118Z"/><path fill="#fff" stroke="#262525" stroke-linecap="round" stroke-linejoin="round" stroke-width=".63" d="M316.1 335.158c.231.664.092 1.404-.356 1.953-.666.793-1.913 1.79-4.051 2.004-2.138.214-3.557-.506-4.368-1.161-.557-.438-.83-1.137-.737-1.843.117-.864.888-1.484 1.758-1.406.83.071 1.891.12 2.917.017 1.026-.102 2.055-.361 2.855-.596.837-.248 1.715.206 2.001 1.03l-.019.002Z"/><path fill="#262525" d="M299.005 316.654s-1.821-4.866-1.359-10.06c0 0-3.912-2.062-4.5-6.119 0 0 2.159 1.012 4.548.029 0 0-5.039-6.341.636-10.504 0 0 .8 6.273 5.551 5.165 0 0-1.571-2.052-.28-3.479 0 0 1.725 2.246 3.171 2.12 1.445-.115 12.421-4.972 20.159 4.048 0 0 7.806 2.023 8.721 13.308.916 11.284-1.368 22.847-3.951 25.883l-1.561-10.86-3.585-4.52s-1.686-12.151-2.64-13.924c0 0-4.606-1.841-9.579-.791-4.962 1.051-13.731 1.369-14.531 1.176 0 0-1.06 5.204-.8 8.499v.029Z"/><path fill="#fff" d="m334.554 326.3-3.171 1.831c-2.582 1.494-5.83-.212-6.071-3.18-.125-1.561.656-3.055 2.014-3.845l3.171-1.831c2.582-1.493 5.83.212 6.071 3.18.125 1.561-.656 3.055-2.014 3.845Z"/><path stroke="#262525" stroke-linecap="round" stroke-linejoin="round" stroke-width=".63" d="M329.138 326.079c-.434-.453-.723-1.06-.771-1.735-.125-1.571 1.041-2.949 2.611-3.074 1.041-.087 1.986.395 2.554 1.185"/><path stroke="#262525" stroke-linecap="round" stroke-linejoin="round" stroke-width=".63" d="M328.415 323.872c.357-.203.665-.328 1.099-.357.983-.077 1.888.347 2.457 1.06"/><path stroke="#262525" stroke-linecap="round" stroke-linejoin="round" stroke-width=".63" d="M326.497 321.742c.241-.241.521-.453.82-.626l3.17-1.831c2.583-1.494 5.83.212 6.071 3.18.125 1.561-.655 3.055-2.014 3.845l-3.171 1.831c-.327.193-.664.327-1.002.414"/><path fill="#262525" d="m345.635 357.541-13.943-2.65-16.19 3.363-1.031-3.478-9.125 2.052c-6.023 1.349-10.446 6.476-10.918 12.624l-7.758 101.712s5.782 8.008 33.882 12.595c28.099 4.587 34.797-1.533 34.797-1.533l-4.028-117.862c-.087-3.315-2.438-6.138-5.686-6.823Z"/><path stroke="#fff" stroke-linecap="round" stroke-linejoin="round" stroke-width=".63" d="m294.042 374.53-3.17 41.61"/><path fill="#fff" stroke="#262525" stroke-linecap="round" stroke-linejoin="round" stroke-width=".63" d="m256.749 484.106-63.831-20.025v-3.305l62.762-1.176 63.841 16.719v3.306l-62.772 4.481Z"/><path fill="#fff" stroke="#262525" stroke-linecap="round" stroke-linejoin="round" stroke-width=".63" d="m256.749 480.8-63.831-20.024 62.762-4.481 63.841 20.024-62.772 4.481ZM344.517 445.415c-7.015 0-12.7-5.685-12.7-12.7v-60.912c0-7.015 5.685-12.701 12.7-12.701 7.016 0 12.701 5.686 12.701 12.701v60.912c0 7.015-5.685 12.7-12.701 12.7Z"/><path fill="#262525" d="M362.711 416.14h-35.857l3.797-45.821c.597-7.217 6.63-12.778 13.876-12.778 7.247 0 13.192 5.474 13.867 12.624l4.307 45.975h.01Z"/><path stroke="#fff" stroke-linecap="round" stroke-linejoin="round" stroke-width=".63" d="M331.508 416.14h-4.654l3.45-41.61"/><path fill="#fff" d="m296.278 469.69-20.574-18.117 62.868-30.114c6.196-3.276 13.886-.915 17.162 5.281 3.277 6.196.916 13.886-5.28 17.163l-54.176 25.777v.01Z"/><path stroke="#262525" stroke-linecap="round" stroke-linejoin="round" stroke-width=".63" d="m334.659 423.531-58.964 28.042 22.356 17.452 52.393-25.113c4.519-2.389 7.006-7.121 6.745-11.92v-3.691"/><path fill="#fff" d="M292.433 448.711c-.771-1.84-3.334-2.496-3.334-2.496l-6.322-3.488c-2.178-1.205-4.635-1.841-7.121-1.841h-16.064c-6.418 0-11.621 5.204-11.621 11.622v12.681h29.371l4.491 2.544c2.929 1.658 6.244 2.535 9.607 2.535 0 0 4.096.192 7.459-1.725l-6.476-19.832h.01Z"/><path stroke="#262525" stroke-linecap="round" stroke-linejoin="round" stroke-width=".63" d="M292.433 448.711c-.771-1.84-3.334-2.496-3.334-2.496l-6.322-3.488c-2.178-1.205-4.635-1.841-7.121-1.841h-16.064c-6.418 0-11.621 5.204-11.621 11.622v12.681h29.371l4.491 2.544c2.929 1.658 6.244 2.535 9.607 2.535h.559c1.793 0 3.575-.318 5.262-.954l.8-.299 1.445-.694"/><path fill="#fff" d="M255.323 454.348v15.322c0 2.024-1.648 3.672-3.671 3.672-2.024 0-3.672-1.648-3.672-3.672v-7.969M262.666 454.348v15.322c0 2.024-1.648 3.672-3.671 3.672-2.024 0-3.672-1.648-3.672-3.672v-15.322M270.009 454.348v15.322c0 2.024-1.648 3.672-3.671 3.672-2.024 0-3.672-1.648-3.672-3.672v-15.322M270.009 454.348v15.322c0 2.024 1.648 3.672 3.671 3.672 2.024 0 3.672-1.648 3.672-3.672v-15.322l3.315 1.658"/><path stroke="#262525" stroke-linecap="round" stroke-linejoin="round" stroke-width=".63" d="M255.323 454.348v15.322c0 2.024-1.648 3.672-3.671 3.672-2.024 0-3.672-1.648-3.672-3.672v-7.969M262.666 454.348v15.322c0 2.024-1.648 3.672-3.671 3.672-2.024 0-3.672-1.648-3.672-3.672v-15.322M270.009 454.348v15.322c0 2.024-1.648 3.672-3.671 3.672-2.024 0-3.672-1.648-3.672-3.672v-15.322"/><path stroke="#262525" stroke-linecap="round" stroke-linejoin="round" stroke-width=".63" d="m280.657 456.006-3.315-1.658v15.322c0 2.024-1.648 3.672-3.671 3.672-2.024 0-3.672-1.648-3.672-3.672v-15.322"/><path fill="#fff" stroke="#262525" stroke-linecap="round" stroke-linejoin="round" stroke-width=".63" d="m258.898 480.646-2.765.251-60.758-18.618-14.792-62.029 2.458-1.812 63.841 20.024 12.016 62.184Z"/><path fill="#262525" d="m256.749 484.106-63.831-20.025-12.335-63.831 63.832 20.024 12.334 63.832Z"/><path fill="#fff" stroke="#262525" stroke-linecap="round" stroke-linejoin="round" stroke-width=".63" d="m210.919 435.75-3.71 8.519 12.44 3.902-8.73-12.421Z"/><path fill="#fff" d="m189.487 428.754-4.933-.337c-2.082-.145-3.971 1.359-4.154 3.43-.183 2.111 1.398 3.961 3.508 4.106l5.059.346c2.313.155 4.221-1.773 4.028-4.085-.154-1.86-1.648-3.335-3.508-3.46Z"/><path stroke="#262525" stroke-linecap="round" stroke-linejoin="round" stroke-width=".63" d="m189.487 428.754-4.933-.337c-2.082-.145-3.971 1.359-4.154 3.43-.183 2.111 1.398 3.961 3.508 4.106l5.059.346c2.313.155 4.221-1.773 4.028-4.085-.154-1.86-1.648-3.335-3.508-3.46Z"/><path fill="#fff" d="M193.622 439.836c-.155-1.86-1.648-3.334-3.508-3.46l-7.709-.472c-2.082-.144-3.884 1.426-4.028 3.517-.145 2.082 1.426 3.884 3.517 4.028l7.709.473c2.313.154 4.221-1.773 4.028-4.086h-.009Z"/><path stroke="#262525" stroke-linecap="round" stroke-linejoin="round" stroke-width=".63" d="M193.622 439.836c-.155-1.86-1.648-3.334-3.508-3.46l-7.709-.472c-2.082-.144-3.884 1.426-4.028 3.517-.145 2.082 1.426 3.884 3.517 4.028l7.709.473c2.313.154 4.221-1.773 4.028-4.086h-.009Z"/><path fill="#fff" d="m190.74 443.999-7.227-.492c-2.082-.144-3.97 1.359-4.153 3.431-.183 2.11 1.397 3.961 3.507 4.105l7.353.501c2.313.154 4.221-1.773 4.028-4.086-.154-1.859-1.648-3.334-3.508-3.459Z"/><path stroke="#262525" stroke-linecap="round" stroke-linejoin="round" stroke-width=".63" d="m190.74 443.999-7.227-.492c-2.082-.144-3.97 1.359-4.153 3.431-.183 2.11 1.397 3.961 3.507 4.105l7.353.501c2.313.154 4.221-1.773 4.028-4.086-.154-1.859-1.648-3.334-3.508-3.459Z"/><path fill="#fff" d="M194.874 455.081c-.154-1.86-1.648-3.334-3.507-3.46l-3.797-.298c-2.082-.145-3.884 1.426-4.028 3.517-.145 2.081 1.426 3.883 3.517 4.028l3.797.298c2.313.155 4.221-1.773 4.028-4.085h-.01Z"/><path stroke="#262525" stroke-linecap="round" stroke-linejoin="round" stroke-width=".63" d="M194.874 455.081c-.154-1.86-1.648-3.334-3.507-3.46l-3.797-.298c-2.082-.145-3.884 1.426-4.028 3.517-.145 2.081 1.426 3.883 3.517 4.028l3.797.298c2.313.155 4.221-1.773 4.028-4.085h-.01Z"/></g></g><defs><clipPath id="b"><rect width="355" height="509" x="8" y="6" fill="#fff" rx="16"/></clipPath><filter id="a" width="371" height="525" x="0" y="0" color-interpolation-filters="sRGB" filterUnits="userSpaceOnUse"><feFlood flood-opacity="0" result="BackgroundImageFix"/><feColorMatrix in="SourceAlpha" result="hardAlpha" values="0 0 0 0 0 0 0 0 0 0 0 0 0 0 0 0 0 0 127 0"/><feMorphology in="SourceAlpha" operator="dilate" radius="2" result="effect1_dropShadow_802_4232"/><feOffset dy="2"/><feGaussianBlur stdDeviation="3"/><feColorMatrix values="0 0 0 0 0 0 0 0 0 0 0 0 0 0 0 0 0 0 0.15 0"/><feBlend in2="BackgroundImageFix" result="effect1_dropShadow_802_4232"/><feColorMatrix in="SourceAlpha" result="hardAlpha" values="0 0 0 0 0 0 0 0 0 0 0 0 0 0 0 0 0 0 127 0"/><feOffset dy="1"/><feGaussianBlur stdDeviation="1"/><feColorMatrix values="0 0 0 0 0 0 0 0 0 0 0 0 0 0 0 0 0 0 0.3 0"/><feBlend in2="effect1_dropShadow_802_4232" result="effect2_dropShadow_802_4232"/><feBlend in="SourceGraphic" in2="effect2_dropShadow_802_4232" result="shape"/></filter></defs></svg>